M48
;DRILL file {KiCad 4.0.7} date 05/30/18 10:11:22
;FORMAT={3:3/ absolute / metric / suppress leading zeros}
FMAT,2
METRIC,TZ
T1C0.400
T2C0.650
T3C0.800
T4C1.000
T5C1.118
%
G90
G05
M71
T1
X103563Y-111804
X104767Y-109713
X105686Y-93355
X109677Y-103129
X114966Y-92386
X125777Y-110309
X129437Y-112006
X132080Y-113053
X132972Y-105573
X136175Y-110791
X155269Y-103216
X168152Y-110825
X170006Y-101292
T2
X132080Y-78740
X132080Y-80010
X132080Y-81280
T3
X97790Y-76200
X97790Y-83820
X100330Y-76200
X100330Y-83820
X102870Y-76200
X102870Y-83820
X105410Y-76200
X105410Y-83820
X107950Y-76200
X107950Y-83820
X110490Y-76200
X110490Y-83820
X113030Y-76200
X113030Y-83820
X115570Y-76200
X115570Y-83820
X120650Y-77470
X120650Y-82550
X128270Y-77470
X128270Y-82550
T4
X158750Y-73660
X161290Y-73660
X163830Y-73660
X166370Y-73660
X168910Y-73660
T5
X95250Y-90170
X95250Y-105181
X97790Y-90170
X97790Y-105181
X100330Y-90170
X100330Y-105181
X102870Y-90170
X102870Y-105181
X105410Y-90170
X105410Y-105181
X107950Y-90170
X107950Y-105181
X110490Y-90170
X110490Y-105181
X113030Y-90170
X113030Y-105181
X115570Y-90170
X115570Y-105181
X118110Y-90170
X118110Y-105181
X120650Y-90170
X120650Y-105181
X123190Y-90170
X123190Y-105181
X125730Y-90170
X125730Y-105181
X128270Y-90170
X128270Y-105181
X135890Y-90170
X135890Y-105181
X138430Y-90170
X138430Y-105181
X140970Y-90170
X140970Y-105181
X143510Y-90170
X143510Y-105181
X146050Y-90170
X146050Y-105181
X148590Y-90170
X148590Y-105181
X151130Y-90170
X151130Y-105181
X153670Y-90170
X153670Y-105181
X156210Y-90170
X156210Y-105181
X158750Y-90170
X158750Y-105181
X161290Y-90170
X161290Y-105181
X163830Y-90170
X163830Y-105181
X166370Y-90170
X166370Y-105181
X168910Y-90170
X168910Y-105181
T0
M30
