G04 #@! TF.FileFunction,Legend,Bot*
%FSLAX46Y46*%
G04 Gerber Fmt 4.6, Leading zero omitted, Abs format (unit mm)*
G04 Created by KiCad (PCBNEW 4.0.7) date 05/30/18 10:11:05*
%MOMM*%
%LPD*%
G01*
G04 APERTURE LIST*
%ADD10C,0.150000*%
%ADD11C,0.010000*%
%ADD12C,0.081280*%
%ADD13C,0.142240*%
G04 APERTURE END LIST*
D10*
D11*
G36*
X107405714Y-119924286D02*
X156681714Y-119924286D01*
X156681714Y-103486857D01*
X148009428Y-103486857D01*
X148009428Y-104037388D01*
X147594666Y-104025194D01*
X147405484Y-104017725D01*
X147273188Y-104006669D01*
X147182098Y-103989394D01*
X147116534Y-103963268D01*
X147077595Y-103938424D01*
X147049904Y-103913236D01*
X147021006Y-103874109D01*
X146988451Y-103814683D01*
X146955300Y-103740857D01*
X146594285Y-103740857D01*
X146594285Y-104285143D01*
X146016498Y-104285143D01*
X145799758Y-104284815D01*
X145642952Y-104282641D01*
X145533444Y-104276835D01*
X145458597Y-104265612D01*
X145405773Y-104247188D01*
X145362336Y-104219777D01*
X145322136Y-104187052D01*
X145268421Y-104140070D01*
X145224461Y-104093314D01*
X145189279Y-104039340D01*
X145161898Y-103970702D01*
X145141340Y-103879957D01*
X145126629Y-103759658D01*
X145116787Y-103602362D01*
X145110838Y-103400624D01*
X145107804Y-103146999D01*
X145106709Y-102834042D01*
X145106571Y-102544594D01*
X145105626Y-102189935D01*
X145102865Y-101884712D01*
X145098403Y-101633192D01*
X145092352Y-101439641D01*
X145084827Y-101308324D01*
X145075940Y-101243509D01*
X145071822Y-101237143D01*
X145060967Y-101240321D01*
X145048921Y-101253883D01*
X145033825Y-101283874D01*
X145013819Y-101336339D01*
X144987042Y-101417320D01*
X144951634Y-101532864D01*
X144905735Y-101689013D01*
X144847484Y-101891813D01*
X144775021Y-102147306D01*
X144686485Y-102461539D01*
X144597578Y-102778002D01*
X144522163Y-103044772D01*
X144451624Y-103290803D01*
X144388686Y-103506860D01*
X144336074Y-103683709D01*
X144296514Y-103812119D01*
X144272729Y-103882854D01*
X144268828Y-103891927D01*
X144223891Y-103959224D01*
X144164567Y-104007120D01*
X144078784Y-104038748D01*
X143954473Y-104057241D01*
X143779561Y-104065732D01*
X143592640Y-104067429D01*
X143110857Y-104067429D01*
X143110857Y-103489683D01*
X143424020Y-103479199D01*
X143737184Y-103468714D01*
X144020272Y-102507143D01*
X142312571Y-102507143D01*
X142312571Y-104212572D01*
X140362214Y-104210991D01*
X139987425Y-104210129D01*
X139630429Y-104208235D01*
X139298586Y-104205421D01*
X138999260Y-104201799D01*
X138739810Y-104197481D01*
X138527599Y-104192581D01*
X138369988Y-104187209D01*
X138274337Y-104181478D01*
X138253737Y-104178864D01*
X138155779Y-104157562D01*
X138080659Y-104130218D01*
X138025165Y-104087659D01*
X137986083Y-104020712D01*
X137960201Y-103920204D01*
X137944305Y-103776963D01*
X137935183Y-103581816D01*
X137929621Y-103325590D01*
X137928397Y-103250066D01*
X137916651Y-102507143D01*
X142312571Y-102507143D01*
X144020272Y-102507143D01*
X144057661Y-102380143D01*
X144136595Y-102111327D01*
X144208556Y-101864920D01*
X144271060Y-101649533D01*
X144321623Y-101473773D01*
X144357764Y-101346249D01*
X144376998Y-101275570D01*
X144379497Y-101264357D01*
X144347284Y-101250027D01*
X144262160Y-101240168D01*
X144162610Y-101237143D01*
X144041069Y-101229961D01*
X143939159Y-101203095D01*
X143849469Y-101148569D01*
X143764589Y-101058403D01*
X143677109Y-100924620D01*
X143593392Y-100765429D01*
X142566571Y-100765429D01*
X142566571Y-101273429D01*
X140988143Y-101276217D01*
X141169571Y-101440737D01*
X141305225Y-101556987D01*
X141425957Y-101639378D01*
X141549309Y-101693610D01*
X141692825Y-101725383D01*
X141874048Y-101740398D01*
X142103928Y-101744346D01*
X142566571Y-101745143D01*
X142566571Y-102260460D01*
X141958786Y-102243527D01*
X141699585Y-102233247D01*
X141482058Y-102218417D01*
X141316282Y-102199927D01*
X141212335Y-102178666D01*
X141208046Y-102177240D01*
X141108646Y-102123339D01*
X140964874Y-102015627D01*
X140778993Y-101855899D01*
X140630028Y-101718800D01*
X140483331Y-101582096D01*
X140354946Y-101464787D01*
X140254135Y-101375151D01*
X140190164Y-101321468D01*
X140172271Y-101309714D01*
X140140302Y-101334281D01*
X140067130Y-101402013D01*
X139962052Y-101503961D01*
X139834370Y-101631177D01*
X139760816Y-101705681D01*
X139603357Y-101864381D01*
X139472757Y-101986795D01*
X139355897Y-102077922D01*
X139239657Y-102142763D01*
X139110916Y-102186316D01*
X138956555Y-102213583D01*
X138763454Y-102229561D01*
X138518491Y-102239252D01*
X138348357Y-102243939D01*
X137668000Y-102261876D01*
X137668000Y-101751799D01*
X138206415Y-101739400D01*
X138426835Y-101733464D01*
X138591543Y-101723435D01*
X138717379Y-101703437D01*
X138821181Y-101667594D01*
X138919787Y-101610031D01*
X139030036Y-101524873D01*
X139168766Y-101406245D01*
X139173857Y-101401836D01*
X139319000Y-101276154D01*
X138511643Y-101274791D01*
X137704285Y-101273429D01*
X137704285Y-100765429D01*
X139808857Y-100765429D01*
X139808857Y-100224634D01*
X138884516Y-100213817D01*
X138601727Y-100210319D01*
X138382446Y-100206696D01*
X138217613Y-100202111D01*
X138098168Y-100195724D01*
X138015051Y-100186696D01*
X137959203Y-100174188D01*
X137921563Y-100157361D01*
X137893071Y-100135375D01*
X137877821Y-100120583D01*
X137834277Y-100065545D01*
X137807018Y-99994187D01*
X137791017Y-99886938D01*
X137782320Y-99748655D01*
X137775765Y-99604286D01*
X137123714Y-99604286D01*
X137123714Y-100147441D01*
X136113382Y-100157078D01*
X135103051Y-100166714D01*
X135282957Y-100801714D01*
X136797143Y-100801714D01*
X136797143Y-104248857D01*
X134937500Y-104247992D01*
X134571943Y-104247176D01*
X134224543Y-104245162D01*
X133902811Y-104242078D01*
X133614256Y-104238054D01*
X133366389Y-104233219D01*
X133166719Y-104227702D01*
X133022757Y-104221633D01*
X132942012Y-104215141D01*
X132932714Y-104213497D01*
X132870115Y-104199400D01*
X132817920Y-104184509D01*
X132775184Y-104162579D01*
X132740964Y-104127364D01*
X132714317Y-104072618D01*
X132694298Y-103992096D01*
X132679964Y-103879553D01*
X132670371Y-103728743D01*
X132664575Y-103533420D01*
X132661634Y-103287338D01*
X132660602Y-102984253D01*
X132660536Y-102617918D01*
X132660571Y-102412409D01*
X132660571Y-100801714D01*
X133622143Y-100801714D01*
X133877743Y-100801387D01*
X134107757Y-100800464D01*
X134302752Y-100799034D01*
X134453296Y-100797187D01*
X134549959Y-100795012D01*
X134583321Y-100792643D01*
X134573499Y-100755899D01*
X134548730Y-100671455D01*
X134527873Y-100602143D01*
X134487087Y-100464616D01*
X134448578Y-100329840D01*
X134436153Y-100284643D01*
X134399488Y-100148572D01*
X132297714Y-100148572D01*
X132297714Y-100112286D01*
X131753428Y-100112286D01*
X131753428Y-100584000D01*
X131502710Y-100584000D01*
X131481286Y-102561572D01*
X131269615Y-102883433D01*
X131057945Y-103205295D01*
X131197044Y-103408669D01*
X131301285Y-103556341D01*
X131380875Y-103652741D01*
X131449003Y-103708524D01*
X131518857Y-103734341D01*
X131603626Y-103740848D01*
X131608286Y-103740857D01*
X131753428Y-103740857D01*
X131753428Y-104248857D01*
X131460757Y-104248857D01*
X131315075Y-104244928D01*
X131192554Y-104234514D01*
X131115415Y-104219679D01*
X131106662Y-104215984D01*
X131056103Y-104171556D01*
X130980057Y-104085076D01*
X130894062Y-103974352D01*
X130885044Y-103961984D01*
X130805482Y-103855935D01*
X130741543Y-103777653D01*
X130705241Y-103741709D01*
X130702676Y-103740857D01*
X130671476Y-103768909D01*
X130623366Y-103837925D01*
X130614262Y-103852996D01*
X130546087Y-103954233D01*
X130460071Y-104064701D01*
X130439394Y-104088854D01*
X130381760Y-104150730D01*
X130329478Y-104187526D01*
X130261745Y-104205756D01*
X130157757Y-104211932D01*
X130044241Y-104212572D01*
X129757714Y-104212572D01*
X129757714Y-103976714D01*
X129759002Y-103850025D01*
X129767600Y-103779473D01*
X129790610Y-103748626D01*
X129835132Y-103741052D01*
X129859636Y-103740857D01*
X129956352Y-103725137D01*
X130018450Y-103695500D01*
X130066537Y-103643495D01*
X130134126Y-103554594D01*
X130208136Y-103448210D01*
X130275488Y-103343755D01*
X130323099Y-103260639D01*
X130338286Y-103220857D01*
X130318131Y-103179674D01*
X130264080Y-103095083D01*
X130185749Y-102981753D01*
X130138714Y-102916468D01*
X129939143Y-102643192D01*
X129939143Y-101146429D01*
X129757714Y-101146429D01*
X129757714Y-101418572D01*
X129575120Y-101418572D01*
X129353850Y-101394597D01*
X129183943Y-101320810D01*
X129061483Y-101194420D01*
X128982554Y-101012635D01*
X128977140Y-100992237D01*
X128933488Y-100819857D01*
X128674315Y-100809196D01*
X128415143Y-100798535D01*
X128415143Y-101926572D01*
X129394857Y-101926572D01*
X129394857Y-102434572D01*
X128415143Y-102434572D01*
X128415143Y-103632000D01*
X129612571Y-103632000D01*
X129612571Y-104212572D01*
X126854857Y-104212572D01*
X126854857Y-103777143D01*
X126274286Y-103777143D01*
X126274286Y-104285143D01*
X125801406Y-104285143D01*
X125540934Y-104280422D01*
X125350777Y-104266165D01*
X125229289Y-104242236D01*
X125211763Y-104235723D01*
X125111713Y-104180825D01*
X125034012Y-104117720D01*
X125033511Y-104117159D01*
X125007944Y-104065709D01*
X124968487Y-103960281D01*
X124920070Y-103816982D01*
X124867627Y-103651921D01*
X124816088Y-103481208D01*
X124770386Y-103320950D01*
X124735452Y-103187257D01*
X124716219Y-103096237D01*
X124714000Y-103073563D01*
X124747480Y-103063481D01*
X124836715Y-103055803D01*
X124964898Y-103051759D01*
X125017043Y-103051429D01*
X125320086Y-103051429D01*
X125384866Y-103296357D01*
X125425509Y-103440926D01*
X125467127Y-103574554D01*
X125497257Y-103659214D01*
X125544868Y-103777143D01*
X126274286Y-103777143D01*
X126854857Y-103777143D01*
X126854857Y-103632000D01*
X127798286Y-103632000D01*
X127798286Y-102434572D01*
X127000000Y-102434572D01*
X127000000Y-101926572D01*
X127798286Y-101926572D01*
X127798286Y-100801714D01*
X126927428Y-100801714D01*
X126927428Y-100257429D01*
X127798286Y-100257429D01*
X127798286Y-99713143D01*
X126238000Y-99713143D01*
X126238000Y-100221143D01*
X124206000Y-100221143D01*
X124206000Y-100584000D01*
X126020286Y-100584000D01*
X126020286Y-102833714D01*
X124206000Y-102833714D01*
X124206000Y-104357715D01*
X123589143Y-104357715D01*
X123589143Y-103100359D01*
X123033845Y-103100359D01*
X123033795Y-103100490D01*
X123016777Y-103152432D01*
X122983817Y-103259076D01*
X122939465Y-103405506D01*
X122888271Y-103576806D01*
X122881560Y-103599419D01*
X122812523Y-103824442D01*
X122755351Y-103989320D01*
X122704917Y-104104461D01*
X122656097Y-104180276D01*
X122603765Y-104227174D01*
X122561956Y-104248509D01*
X122496240Y-104260928D01*
X122374858Y-104271491D01*
X122214711Y-104279127D01*
X122032702Y-104282767D01*
X122019785Y-104282843D01*
X121557143Y-104285143D01*
X121557143Y-103777143D01*
X120904000Y-103777143D01*
X120904000Y-104285143D01*
X120586500Y-104284941D01*
X120421755Y-104280295D01*
X120266935Y-104268142D01*
X120149694Y-104250850D01*
X120128476Y-104245720D01*
X120029800Y-104209965D01*
X119950759Y-104157028D01*
X119884622Y-104076152D01*
X119824653Y-103956584D01*
X119764122Y-103787569D01*
X119696294Y-103558352D01*
X119694791Y-103552991D01*
X119645671Y-103375331D01*
X119604656Y-103222774D01*
X119575306Y-103108886D01*
X119561179Y-103047231D01*
X119560441Y-103040996D01*
X119594462Y-103029566D01*
X119684873Y-103022676D01*
X119815585Y-103021204D01*
X119893599Y-103022853D01*
X120225769Y-103033286D01*
X120324697Y-103350921D01*
X120373529Y-103498181D01*
X120420200Y-103622554D01*
X120457291Y-103704869D01*
X120468684Y-103722850D01*
X120544698Y-103761822D01*
X120686863Y-103776957D01*
X120708871Y-103777143D01*
X120904000Y-103777143D01*
X121557143Y-103777143D01*
X122169274Y-103777143D01*
X122407146Y-103051429D01*
X122729884Y-103051429D01*
X122887449Y-103053611D01*
X122983395Y-103061325D01*
X123028576Y-103076324D01*
X123033845Y-103100359D01*
X123589143Y-103100359D01*
X123589143Y-102833714D01*
X122023275Y-102833714D01*
X121917209Y-102727649D01*
X121811143Y-102621583D01*
X121811143Y-100801714D01*
X120650000Y-100801714D01*
X120650000Y-102652286D01*
X118835714Y-102652286D01*
X118835714Y-103777143D01*
X119343714Y-103777143D01*
X119343714Y-104290766D01*
X118857549Y-104278883D01*
X118654601Y-104272626D01*
X118511073Y-104264179D01*
X118413816Y-104251650D01*
X118349680Y-104233143D01*
X118305515Y-104206764D01*
X118295121Y-104197876D01*
X118269337Y-104171091D01*
X118250123Y-104137217D01*
X118236516Y-104086060D01*
X118227553Y-104007428D01*
X118222273Y-103891128D01*
X118219710Y-103726965D01*
X118218904Y-103504746D01*
X118218857Y-103390519D01*
X118218857Y-103053683D01*
X117384285Y-103053683D01*
X117373513Y-103100382D01*
X117343901Y-103202562D01*
X117299510Y-103346842D01*
X117244402Y-103519839D01*
X117221091Y-103591558D01*
X117140805Y-103825497D01*
X117071158Y-103998199D01*
X117006483Y-104119144D01*
X116941112Y-104197810D01*
X116869375Y-104243675D01*
X116821857Y-104259169D01*
X116755139Y-104267203D01*
X116635957Y-104274278D01*
X116484422Y-104279366D01*
X116395500Y-104280934D01*
X116041714Y-104285143D01*
X116041714Y-103777143D01*
X116222306Y-103777143D01*
X116316481Y-103773080D01*
X116386611Y-103753586D01*
X116441713Y-103707705D01*
X116490801Y-103624479D01*
X116542892Y-103492952D01*
X116602972Y-103314500D01*
X116700817Y-103015143D01*
X117042551Y-103015143D01*
X117217155Y-103019111D01*
X117332457Y-103030573D01*
X117382586Y-103048866D01*
X117384285Y-103053683D01*
X118218857Y-103053683D01*
X118218857Y-102652286D01*
X117437549Y-102652286D01*
X117138977Y-102650668D01*
X116904300Y-102644867D01*
X116724893Y-102633458D01*
X116592131Y-102615019D01*
X116497390Y-102588126D01*
X116432045Y-102551356D01*
X116387471Y-102503286D01*
X116371206Y-102476315D01*
X116357118Y-102412055D01*
X116345924Y-102280563D01*
X116337862Y-102087130D01*
X116333169Y-101837047D01*
X116332000Y-101602386D01*
X116332000Y-100801714D01*
X120650000Y-100801714D01*
X121811143Y-100801714D01*
X121811143Y-100584000D01*
X123589143Y-100584000D01*
X123589143Y-100221143D01*
X121557143Y-100221143D01*
X121557143Y-99822000D01*
X120904000Y-99822000D01*
X120904000Y-100330000D01*
X116041714Y-100330000D01*
X116041714Y-99822000D01*
X118073714Y-99822000D01*
X118073714Y-99422857D01*
X118763143Y-99422857D01*
X118763143Y-99822000D01*
X120904000Y-99822000D01*
X121557143Y-99822000D01*
X121557143Y-99713143D01*
X123589143Y-99713143D01*
X123589143Y-99422857D01*
X124206000Y-99422857D01*
X124206000Y-99713143D01*
X126238000Y-99713143D01*
X127798286Y-99713143D01*
X127798286Y-99459143D01*
X128415143Y-99459143D01*
X128415143Y-100257429D01*
X128614714Y-100257429D01*
X128702706Y-100257300D01*
X128763102Y-100249891D01*
X128798025Y-100224664D01*
X128809600Y-100171085D01*
X128799948Y-100078617D01*
X128771195Y-99936725D01*
X128725463Y-99734872D01*
X128722586Y-99722214D01*
X128716902Y-99681778D01*
X128731716Y-99657531D01*
X128780826Y-99645339D01*
X128878030Y-99641066D01*
X128995023Y-99640572D01*
X129130017Y-99642005D01*
X129231731Y-99645816D01*
X129283011Y-99651268D01*
X129286000Y-99653053D01*
X129293730Y-99710582D01*
X129314625Y-99821982D01*
X129345236Y-99971675D01*
X129382119Y-100144085D01*
X129421826Y-100323633D01*
X129460913Y-100494743D01*
X129495932Y-100641837D01*
X129523437Y-100749338D01*
X129539982Y-100801669D01*
X129540209Y-100802105D01*
X129607768Y-100861265D01*
X129668276Y-100874286D01*
X129713773Y-100877829D01*
X129740443Y-100898646D01*
X129753308Y-100952019D01*
X129757391Y-101053229D01*
X129757714Y-101146429D01*
X129939143Y-101146429D01*
X129939143Y-100584000D01*
X129648857Y-100584000D01*
X129648857Y-100112286D01*
X129939143Y-100112286D01*
X129939143Y-99531714D01*
X130447143Y-99531714D01*
X130447143Y-100112286D01*
X130955143Y-100112286D01*
X130955143Y-99531714D01*
X131499428Y-99531714D01*
X131499428Y-100112286D01*
X131753428Y-100112286D01*
X132297714Y-100112286D01*
X132297714Y-99604286D01*
X137123714Y-99604286D01*
X137775765Y-99604286D01*
X137769173Y-99459143D01*
X138466285Y-99459143D01*
X138466285Y-99582261D01*
X138483670Y-99684929D01*
X138523682Y-99727404D01*
X138569958Y-99731573D01*
X138681928Y-99735485D01*
X138852715Y-99739064D01*
X139075442Y-99742234D01*
X139343233Y-99744920D01*
X139649209Y-99747048D01*
X139986494Y-99748542D01*
X140348210Y-99749326D01*
X140537539Y-99749429D01*
X142494000Y-99749429D01*
X142494000Y-100221143D01*
X140498286Y-100221143D01*
X140498286Y-100765429D01*
X142566571Y-100765429D01*
X143593392Y-100765429D01*
X143579620Y-100739242D01*
X143464710Y-100494291D01*
X143457122Y-100477575D01*
X143376203Y-100297286D01*
X143307130Y-100139989D01*
X143255023Y-100017614D01*
X143224999Y-99942091D01*
X143219714Y-99924218D01*
X143253346Y-99911389D01*
X143343657Y-99901356D01*
X143474767Y-99895505D01*
X143559128Y-99894572D01*
X143898542Y-99894572D01*
X144055379Y-100241707D01*
X144128031Y-100392093D01*
X144198795Y-100520628D01*
X144257924Y-100610475D01*
X144286468Y-100640850D01*
X144355506Y-100668212D01*
X144474608Y-100685010D01*
X144653125Y-100692332D01*
X144733645Y-100692857D01*
X145106571Y-100692857D01*
X145106571Y-99422857D01*
X145796000Y-99422857D01*
X145796000Y-101524461D01*
X145796371Y-101909595D01*
X145797440Y-102273879D01*
X145799139Y-102610697D01*
X145801401Y-102913430D01*
X145804158Y-103175460D01*
X145807343Y-103390170D01*
X145810888Y-103550942D01*
X145814725Y-103651159D01*
X145818025Y-103683461D01*
X145840286Y-103709975D01*
X145891129Y-103727102D01*
X145983267Y-103736671D01*
X146129417Y-103740511D01*
X146217168Y-103740857D01*
X146594285Y-103740857D01*
X146955300Y-103740857D01*
X146949794Y-103728597D01*
X146902585Y-103609490D01*
X146844376Y-103451002D01*
X146772721Y-103246772D01*
X146685171Y-102990439D01*
X146579278Y-102675642D01*
X146498088Y-102432567D01*
X146380815Y-102080449D01*
X146284498Y-101789498D01*
X146207057Y-101552066D01*
X146146410Y-101360501D01*
X146100475Y-101207155D01*
X146067171Y-101084377D01*
X146044416Y-100984517D01*
X146030128Y-100899926D01*
X146022227Y-100822954D01*
X146018630Y-100745951D01*
X146017302Y-100665643D01*
X146013714Y-100330000D01*
X147900571Y-100330000D01*
X147900571Y-100874286D01*
X147283714Y-100874286D01*
X147081285Y-100875621D01*
X146906764Y-100879320D01*
X146771932Y-100884925D01*
X146688572Y-100891978D01*
X146666857Y-100898279D01*
X146678402Y-100942389D01*
X146710854Y-101045385D01*
X146760943Y-101197801D01*
X146825395Y-101390174D01*
X146900939Y-101613039D01*
X146984302Y-101856932D01*
X147072213Y-102112388D01*
X147161400Y-102369944D01*
X147248590Y-102620136D01*
X147330511Y-102853498D01*
X147403891Y-103060567D01*
X147465458Y-103231878D01*
X147511940Y-103357968D01*
X147540065Y-103429371D01*
X147546130Y-103441500D01*
X147604532Y-103468499D01*
X147716016Y-103484244D01*
X147796157Y-103486857D01*
X148009428Y-103486857D01*
X156681714Y-103486857D01*
X156681714Y-89988572D01*
X148047221Y-89988572D01*
X148037396Y-93245214D01*
X148027571Y-96501857D01*
X147911706Y-96746450D01*
X147738710Y-97029557D01*
X147512805Y-97264964D01*
X147239758Y-97447674D01*
X146975285Y-97557694D01*
X146932970Y-97566124D01*
X146859864Y-97573572D01*
X146752158Y-97580093D01*
X146606043Y-97585743D01*
X146417708Y-97590576D01*
X146183342Y-97594648D01*
X145899136Y-97598012D01*
X145561280Y-97600725D01*
X145165963Y-97602842D01*
X144709376Y-97604416D01*
X144187708Y-97605504D01*
X143618533Y-97606144D01*
X140406923Y-97608572D01*
X138884219Y-96084572D01*
X146521714Y-96084572D01*
X146521714Y-93036572D01*
X144997714Y-93036572D01*
X144997714Y-94560572D01*
X141949714Y-94560572D01*
X141949714Y-93036572D01*
X144997714Y-93036572D01*
X146521714Y-93036572D01*
X146521714Y-89988572D01*
X144997714Y-89988572D01*
X144997714Y-91512572D01*
X140425714Y-91512572D01*
X140425714Y-94578066D01*
X139663714Y-93816714D01*
X138901714Y-93055363D01*
X138901714Y-90731132D01*
X139646810Y-89988572D01*
X144997714Y-89988572D01*
X146521714Y-89988572D01*
X148047221Y-89988572D01*
X156681714Y-89988572D01*
X156681714Y-86940572D01*
X148045714Y-86940572D01*
X148045714Y-88464572D01*
X139753294Y-88464572D01*
X139327504Y-88037670D01*
X138901714Y-87610767D01*
X138901714Y-86940572D01*
X137377714Y-86940572D01*
X137377283Y-90088357D01*
X137377000Y-90664031D01*
X137376278Y-91171325D01*
X137375054Y-91614429D01*
X137373268Y-91997533D01*
X137370857Y-92324829D01*
X137367760Y-92600507D01*
X137363916Y-92828756D01*
X137359264Y-93013768D01*
X137353740Y-93159733D01*
X137347285Y-93270841D01*
X137339836Y-93351283D01*
X137331333Y-93405249D01*
X137328389Y-93417572D01*
X137208753Y-93732976D01*
X137031825Y-94006650D01*
X136802512Y-94233295D01*
X136525720Y-94407609D01*
X136340716Y-94484251D01*
X136296206Y-94498816D01*
X136249918Y-94511336D01*
X136196278Y-94521968D01*
X136129710Y-94530870D01*
X136044638Y-94538199D01*
X135935489Y-94544114D01*
X135796687Y-94548772D01*
X135622657Y-94552331D01*
X135407824Y-94554949D01*
X135146613Y-94556782D01*
X134833449Y-94557990D01*
X134462757Y-94558729D01*
X134028961Y-94559157D01*
X133685643Y-94559356D01*
X131245428Y-94560572D01*
X131245428Y-93036572D01*
X135817428Y-93036572D01*
X135817428Y-89988572D01*
X134329714Y-89988572D01*
X134329714Y-91512572D01*
X129757714Y-91512572D01*
X129757714Y-94560572D01*
X129757402Y-95023897D01*
X129756496Y-95465794D01*
X129755043Y-95880964D01*
X129753090Y-96264105D01*
X129750683Y-96609917D01*
X129747870Y-96913100D01*
X129744698Y-97168354D01*
X129741212Y-97370377D01*
X129737460Y-97513870D01*
X129733489Y-97593532D01*
X129730816Y-97608572D01*
X129699286Y-97583885D01*
X129623233Y-97514077D01*
X129509267Y-97405524D01*
X129363996Y-97264603D01*
X129194032Y-97097688D01*
X129005984Y-96911158D01*
X128950674Y-96855967D01*
X128214937Y-96120857D01*
X123625428Y-96120857D01*
X123625428Y-97644857D01*
X119053428Y-97644857D01*
X119053428Y-96120857D01*
X123625428Y-96120857D01*
X128214937Y-96120857D01*
X128197428Y-96103363D01*
X128197428Y-93036572D01*
X123625428Y-93036572D01*
X123625428Y-94560572D01*
X119053428Y-94560572D01*
X119053428Y-93036572D01*
X123625428Y-93036572D01*
X128197428Y-93036572D01*
X128197428Y-90731132D01*
X128569976Y-90359852D01*
X128942525Y-89988572D01*
X134329714Y-89988572D01*
X135817428Y-89988572D01*
X135817428Y-89316622D01*
X126673428Y-89316622D01*
X126673428Y-91530391D01*
X125149428Y-90006715D01*
X125131282Y-89988572D01*
X123625428Y-89988572D01*
X123625428Y-91512572D01*
X119053428Y-91512572D01*
X119053428Y-89988572D01*
X123625428Y-89988572D01*
X125131282Y-89988572D01*
X123625428Y-88483038D01*
X123625428Y-86940572D01*
X117529428Y-86940572D01*
X117529428Y-97536000D01*
X116857008Y-97536000D01*
X116005428Y-96682196D01*
X116005428Y-86940572D01*
X117529428Y-86940572D01*
X123625428Y-86940572D01*
X125185714Y-86940572D01*
X125185714Y-87830236D01*
X126673428Y-89316622D01*
X135817428Y-89316622D01*
X135817428Y-87442280D01*
X133199558Y-87442280D01*
X133184029Y-87611011D01*
X133168503Y-87684671D01*
X133067407Y-87918829D01*
X132907768Y-88131203D01*
X132703227Y-88307544D01*
X132467419Y-88433603D01*
X132442857Y-88442817D01*
X132239646Y-88486899D01*
X132006753Y-88491768D01*
X131774214Y-88459447D01*
X131572065Y-88391960D01*
X131553857Y-88382933D01*
X131326607Y-88228014D01*
X131132734Y-88020887D01*
X131023113Y-87847715D01*
X130979621Y-87750705D01*
X130953601Y-87650268D01*
X130940961Y-87522953D01*
X130937623Y-87357857D01*
X130953679Y-87099589D01*
X131007809Y-86887876D01*
X131107308Y-86703552D01*
X131250197Y-86536660D01*
X131415099Y-86394656D01*
X131586206Y-86300665D01*
X131785012Y-86245826D01*
X132012982Y-86222230D01*
X132176950Y-86216723D01*
X132294572Y-86222532D01*
X132391677Y-86243392D01*
X132494091Y-86283034D01*
X132522638Y-86295899D01*
X132779530Y-86447200D01*
X132975548Y-86637997D01*
X133110659Y-86868245D01*
X133184834Y-87137899D01*
X133197351Y-87255471D01*
X133199558Y-87442280D01*
X135817428Y-87442280D01*
X135817428Y-86940572D01*
X137377714Y-86940572D01*
X138901714Y-86940572D01*
X148045714Y-86940572D01*
X156681714Y-86940572D01*
X156681714Y-70612000D01*
X107405714Y-70612000D01*
X107405714Y-119924286D01*
X107405714Y-119924286D01*
G37*
X107405714Y-119924286D02*
X156681714Y-119924286D01*
X156681714Y-103486857D01*
X148009428Y-103486857D01*
X148009428Y-104037388D01*
X147594666Y-104025194D01*
X147405484Y-104017725D01*
X147273188Y-104006669D01*
X147182098Y-103989394D01*
X147116534Y-103963268D01*
X147077595Y-103938424D01*
X147049904Y-103913236D01*
X147021006Y-103874109D01*
X146988451Y-103814683D01*
X146955300Y-103740857D01*
X146594285Y-103740857D01*
X146594285Y-104285143D01*
X146016498Y-104285143D01*
X145799758Y-104284815D01*
X145642952Y-104282641D01*
X145533444Y-104276835D01*
X145458597Y-104265612D01*
X145405773Y-104247188D01*
X145362336Y-104219777D01*
X145322136Y-104187052D01*
X145268421Y-104140070D01*
X145224461Y-104093314D01*
X145189279Y-104039340D01*
X145161898Y-103970702D01*
X145141340Y-103879957D01*
X145126629Y-103759658D01*
X145116787Y-103602362D01*
X145110838Y-103400624D01*
X145107804Y-103146999D01*
X145106709Y-102834042D01*
X145106571Y-102544594D01*
X145105626Y-102189935D01*
X145102865Y-101884712D01*
X145098403Y-101633192D01*
X145092352Y-101439641D01*
X145084827Y-101308324D01*
X145075940Y-101243509D01*
X145071822Y-101237143D01*
X145060967Y-101240321D01*
X145048921Y-101253883D01*
X145033825Y-101283874D01*
X145013819Y-101336339D01*
X144987042Y-101417320D01*
X144951634Y-101532864D01*
X144905735Y-101689013D01*
X144847484Y-101891813D01*
X144775021Y-102147306D01*
X144686485Y-102461539D01*
X144597578Y-102778002D01*
X144522163Y-103044772D01*
X144451624Y-103290803D01*
X144388686Y-103506860D01*
X144336074Y-103683709D01*
X144296514Y-103812119D01*
X144272729Y-103882854D01*
X144268828Y-103891927D01*
X144223891Y-103959224D01*
X144164567Y-104007120D01*
X144078784Y-104038748D01*
X143954473Y-104057241D01*
X143779561Y-104065732D01*
X143592640Y-104067429D01*
X143110857Y-104067429D01*
X143110857Y-103489683D01*
X143424020Y-103479199D01*
X143737184Y-103468714D01*
X144020272Y-102507143D01*
X142312571Y-102507143D01*
X142312571Y-104212572D01*
X140362214Y-104210991D01*
X139987425Y-104210129D01*
X139630429Y-104208235D01*
X139298586Y-104205421D01*
X138999260Y-104201799D01*
X138739810Y-104197481D01*
X138527599Y-104192581D01*
X138369988Y-104187209D01*
X138274337Y-104181478D01*
X138253737Y-104178864D01*
X138155779Y-104157562D01*
X138080659Y-104130218D01*
X138025165Y-104087659D01*
X137986083Y-104020712D01*
X137960201Y-103920204D01*
X137944305Y-103776963D01*
X137935183Y-103581816D01*
X137929621Y-103325590D01*
X137928397Y-103250066D01*
X137916651Y-102507143D01*
X142312571Y-102507143D01*
X144020272Y-102507143D01*
X144057661Y-102380143D01*
X144136595Y-102111327D01*
X144208556Y-101864920D01*
X144271060Y-101649533D01*
X144321623Y-101473773D01*
X144357764Y-101346249D01*
X144376998Y-101275570D01*
X144379497Y-101264357D01*
X144347284Y-101250027D01*
X144262160Y-101240168D01*
X144162610Y-101237143D01*
X144041069Y-101229961D01*
X143939159Y-101203095D01*
X143849469Y-101148569D01*
X143764589Y-101058403D01*
X143677109Y-100924620D01*
X143593392Y-100765429D01*
X142566571Y-100765429D01*
X142566571Y-101273429D01*
X140988143Y-101276217D01*
X141169571Y-101440737D01*
X141305225Y-101556987D01*
X141425957Y-101639378D01*
X141549309Y-101693610D01*
X141692825Y-101725383D01*
X141874048Y-101740398D01*
X142103928Y-101744346D01*
X142566571Y-101745143D01*
X142566571Y-102260460D01*
X141958786Y-102243527D01*
X141699585Y-102233247D01*
X141482058Y-102218417D01*
X141316282Y-102199927D01*
X141212335Y-102178666D01*
X141208046Y-102177240D01*
X141108646Y-102123339D01*
X140964874Y-102015627D01*
X140778993Y-101855899D01*
X140630028Y-101718800D01*
X140483331Y-101582096D01*
X140354946Y-101464787D01*
X140254135Y-101375151D01*
X140190164Y-101321468D01*
X140172271Y-101309714D01*
X140140302Y-101334281D01*
X140067130Y-101402013D01*
X139962052Y-101503961D01*
X139834370Y-101631177D01*
X139760816Y-101705681D01*
X139603357Y-101864381D01*
X139472757Y-101986795D01*
X139355897Y-102077922D01*
X139239657Y-102142763D01*
X139110916Y-102186316D01*
X138956555Y-102213583D01*
X138763454Y-102229561D01*
X138518491Y-102239252D01*
X138348357Y-102243939D01*
X137668000Y-102261876D01*
X137668000Y-101751799D01*
X138206415Y-101739400D01*
X138426835Y-101733464D01*
X138591543Y-101723435D01*
X138717379Y-101703437D01*
X138821181Y-101667594D01*
X138919787Y-101610031D01*
X139030036Y-101524873D01*
X139168766Y-101406245D01*
X139173857Y-101401836D01*
X139319000Y-101276154D01*
X138511643Y-101274791D01*
X137704285Y-101273429D01*
X137704285Y-100765429D01*
X139808857Y-100765429D01*
X139808857Y-100224634D01*
X138884516Y-100213817D01*
X138601727Y-100210319D01*
X138382446Y-100206696D01*
X138217613Y-100202111D01*
X138098168Y-100195724D01*
X138015051Y-100186696D01*
X137959203Y-100174188D01*
X137921563Y-100157361D01*
X137893071Y-100135375D01*
X137877821Y-100120583D01*
X137834277Y-100065545D01*
X137807018Y-99994187D01*
X137791017Y-99886938D01*
X137782320Y-99748655D01*
X137775765Y-99604286D01*
X137123714Y-99604286D01*
X137123714Y-100147441D01*
X136113382Y-100157078D01*
X135103051Y-100166714D01*
X135282957Y-100801714D01*
X136797143Y-100801714D01*
X136797143Y-104248857D01*
X134937500Y-104247992D01*
X134571943Y-104247176D01*
X134224543Y-104245162D01*
X133902811Y-104242078D01*
X133614256Y-104238054D01*
X133366389Y-104233219D01*
X133166719Y-104227702D01*
X133022757Y-104221633D01*
X132942012Y-104215141D01*
X132932714Y-104213497D01*
X132870115Y-104199400D01*
X132817920Y-104184509D01*
X132775184Y-104162579D01*
X132740964Y-104127364D01*
X132714317Y-104072618D01*
X132694298Y-103992096D01*
X132679964Y-103879553D01*
X132670371Y-103728743D01*
X132664575Y-103533420D01*
X132661634Y-103287338D01*
X132660602Y-102984253D01*
X132660536Y-102617918D01*
X132660571Y-102412409D01*
X132660571Y-100801714D01*
X133622143Y-100801714D01*
X133877743Y-100801387D01*
X134107757Y-100800464D01*
X134302752Y-100799034D01*
X134453296Y-100797187D01*
X134549959Y-100795012D01*
X134583321Y-100792643D01*
X134573499Y-100755899D01*
X134548730Y-100671455D01*
X134527873Y-100602143D01*
X134487087Y-100464616D01*
X134448578Y-100329840D01*
X134436153Y-100284643D01*
X134399488Y-100148572D01*
X132297714Y-100148572D01*
X132297714Y-100112286D01*
X131753428Y-100112286D01*
X131753428Y-100584000D01*
X131502710Y-100584000D01*
X131481286Y-102561572D01*
X131269615Y-102883433D01*
X131057945Y-103205295D01*
X131197044Y-103408669D01*
X131301285Y-103556341D01*
X131380875Y-103652741D01*
X131449003Y-103708524D01*
X131518857Y-103734341D01*
X131603626Y-103740848D01*
X131608286Y-103740857D01*
X131753428Y-103740857D01*
X131753428Y-104248857D01*
X131460757Y-104248857D01*
X131315075Y-104244928D01*
X131192554Y-104234514D01*
X131115415Y-104219679D01*
X131106662Y-104215984D01*
X131056103Y-104171556D01*
X130980057Y-104085076D01*
X130894062Y-103974352D01*
X130885044Y-103961984D01*
X130805482Y-103855935D01*
X130741543Y-103777653D01*
X130705241Y-103741709D01*
X130702676Y-103740857D01*
X130671476Y-103768909D01*
X130623366Y-103837925D01*
X130614262Y-103852996D01*
X130546087Y-103954233D01*
X130460071Y-104064701D01*
X130439394Y-104088854D01*
X130381760Y-104150730D01*
X130329478Y-104187526D01*
X130261745Y-104205756D01*
X130157757Y-104211932D01*
X130044241Y-104212572D01*
X129757714Y-104212572D01*
X129757714Y-103976714D01*
X129759002Y-103850025D01*
X129767600Y-103779473D01*
X129790610Y-103748626D01*
X129835132Y-103741052D01*
X129859636Y-103740857D01*
X129956352Y-103725137D01*
X130018450Y-103695500D01*
X130066537Y-103643495D01*
X130134126Y-103554594D01*
X130208136Y-103448210D01*
X130275488Y-103343755D01*
X130323099Y-103260639D01*
X130338286Y-103220857D01*
X130318131Y-103179674D01*
X130264080Y-103095083D01*
X130185749Y-102981753D01*
X130138714Y-102916468D01*
X129939143Y-102643192D01*
X129939143Y-101146429D01*
X129757714Y-101146429D01*
X129757714Y-101418572D01*
X129575120Y-101418572D01*
X129353850Y-101394597D01*
X129183943Y-101320810D01*
X129061483Y-101194420D01*
X128982554Y-101012635D01*
X128977140Y-100992237D01*
X128933488Y-100819857D01*
X128674315Y-100809196D01*
X128415143Y-100798535D01*
X128415143Y-101926572D01*
X129394857Y-101926572D01*
X129394857Y-102434572D01*
X128415143Y-102434572D01*
X128415143Y-103632000D01*
X129612571Y-103632000D01*
X129612571Y-104212572D01*
X126854857Y-104212572D01*
X126854857Y-103777143D01*
X126274286Y-103777143D01*
X126274286Y-104285143D01*
X125801406Y-104285143D01*
X125540934Y-104280422D01*
X125350777Y-104266165D01*
X125229289Y-104242236D01*
X125211763Y-104235723D01*
X125111713Y-104180825D01*
X125034012Y-104117720D01*
X125033511Y-104117159D01*
X125007944Y-104065709D01*
X124968487Y-103960281D01*
X124920070Y-103816982D01*
X124867627Y-103651921D01*
X124816088Y-103481208D01*
X124770386Y-103320950D01*
X124735452Y-103187257D01*
X124716219Y-103096237D01*
X124714000Y-103073563D01*
X124747480Y-103063481D01*
X124836715Y-103055803D01*
X124964898Y-103051759D01*
X125017043Y-103051429D01*
X125320086Y-103051429D01*
X125384866Y-103296357D01*
X125425509Y-103440926D01*
X125467127Y-103574554D01*
X125497257Y-103659214D01*
X125544868Y-103777143D01*
X126274286Y-103777143D01*
X126854857Y-103777143D01*
X126854857Y-103632000D01*
X127798286Y-103632000D01*
X127798286Y-102434572D01*
X127000000Y-102434572D01*
X127000000Y-101926572D01*
X127798286Y-101926572D01*
X127798286Y-100801714D01*
X126927428Y-100801714D01*
X126927428Y-100257429D01*
X127798286Y-100257429D01*
X127798286Y-99713143D01*
X126238000Y-99713143D01*
X126238000Y-100221143D01*
X124206000Y-100221143D01*
X124206000Y-100584000D01*
X126020286Y-100584000D01*
X126020286Y-102833714D01*
X124206000Y-102833714D01*
X124206000Y-104357715D01*
X123589143Y-104357715D01*
X123589143Y-103100359D01*
X123033845Y-103100359D01*
X123033795Y-103100490D01*
X123016777Y-103152432D01*
X122983817Y-103259076D01*
X122939465Y-103405506D01*
X122888271Y-103576806D01*
X122881560Y-103599419D01*
X122812523Y-103824442D01*
X122755351Y-103989320D01*
X122704917Y-104104461D01*
X122656097Y-104180276D01*
X122603765Y-104227174D01*
X122561956Y-104248509D01*
X122496240Y-104260928D01*
X122374858Y-104271491D01*
X122214711Y-104279127D01*
X122032702Y-104282767D01*
X122019785Y-104282843D01*
X121557143Y-104285143D01*
X121557143Y-103777143D01*
X120904000Y-103777143D01*
X120904000Y-104285143D01*
X120586500Y-104284941D01*
X120421755Y-104280295D01*
X120266935Y-104268142D01*
X120149694Y-104250850D01*
X120128476Y-104245720D01*
X120029800Y-104209965D01*
X119950759Y-104157028D01*
X119884622Y-104076152D01*
X119824653Y-103956584D01*
X119764122Y-103787569D01*
X119696294Y-103558352D01*
X119694791Y-103552991D01*
X119645671Y-103375331D01*
X119604656Y-103222774D01*
X119575306Y-103108886D01*
X119561179Y-103047231D01*
X119560441Y-103040996D01*
X119594462Y-103029566D01*
X119684873Y-103022676D01*
X119815585Y-103021204D01*
X119893599Y-103022853D01*
X120225769Y-103033286D01*
X120324697Y-103350921D01*
X120373529Y-103498181D01*
X120420200Y-103622554D01*
X120457291Y-103704869D01*
X120468684Y-103722850D01*
X120544698Y-103761822D01*
X120686863Y-103776957D01*
X120708871Y-103777143D01*
X120904000Y-103777143D01*
X121557143Y-103777143D01*
X122169274Y-103777143D01*
X122407146Y-103051429D01*
X122729884Y-103051429D01*
X122887449Y-103053611D01*
X122983395Y-103061325D01*
X123028576Y-103076324D01*
X123033845Y-103100359D01*
X123589143Y-103100359D01*
X123589143Y-102833714D01*
X122023275Y-102833714D01*
X121917209Y-102727649D01*
X121811143Y-102621583D01*
X121811143Y-100801714D01*
X120650000Y-100801714D01*
X120650000Y-102652286D01*
X118835714Y-102652286D01*
X118835714Y-103777143D01*
X119343714Y-103777143D01*
X119343714Y-104290766D01*
X118857549Y-104278883D01*
X118654601Y-104272626D01*
X118511073Y-104264179D01*
X118413816Y-104251650D01*
X118349680Y-104233143D01*
X118305515Y-104206764D01*
X118295121Y-104197876D01*
X118269337Y-104171091D01*
X118250123Y-104137217D01*
X118236516Y-104086060D01*
X118227553Y-104007428D01*
X118222273Y-103891128D01*
X118219710Y-103726965D01*
X118218904Y-103504746D01*
X118218857Y-103390519D01*
X118218857Y-103053683D01*
X117384285Y-103053683D01*
X117373513Y-103100382D01*
X117343901Y-103202562D01*
X117299510Y-103346842D01*
X117244402Y-103519839D01*
X117221091Y-103591558D01*
X117140805Y-103825497D01*
X117071158Y-103998199D01*
X117006483Y-104119144D01*
X116941112Y-104197810D01*
X116869375Y-104243675D01*
X116821857Y-104259169D01*
X116755139Y-104267203D01*
X116635957Y-104274278D01*
X116484422Y-104279366D01*
X116395500Y-104280934D01*
X116041714Y-104285143D01*
X116041714Y-103777143D01*
X116222306Y-103777143D01*
X116316481Y-103773080D01*
X116386611Y-103753586D01*
X116441713Y-103707705D01*
X116490801Y-103624479D01*
X116542892Y-103492952D01*
X116602972Y-103314500D01*
X116700817Y-103015143D01*
X117042551Y-103015143D01*
X117217155Y-103019111D01*
X117332457Y-103030573D01*
X117382586Y-103048866D01*
X117384285Y-103053683D01*
X118218857Y-103053683D01*
X118218857Y-102652286D01*
X117437549Y-102652286D01*
X117138977Y-102650668D01*
X116904300Y-102644867D01*
X116724893Y-102633458D01*
X116592131Y-102615019D01*
X116497390Y-102588126D01*
X116432045Y-102551356D01*
X116387471Y-102503286D01*
X116371206Y-102476315D01*
X116357118Y-102412055D01*
X116345924Y-102280563D01*
X116337862Y-102087130D01*
X116333169Y-101837047D01*
X116332000Y-101602386D01*
X116332000Y-100801714D01*
X120650000Y-100801714D01*
X121811143Y-100801714D01*
X121811143Y-100584000D01*
X123589143Y-100584000D01*
X123589143Y-100221143D01*
X121557143Y-100221143D01*
X121557143Y-99822000D01*
X120904000Y-99822000D01*
X120904000Y-100330000D01*
X116041714Y-100330000D01*
X116041714Y-99822000D01*
X118073714Y-99822000D01*
X118073714Y-99422857D01*
X118763143Y-99422857D01*
X118763143Y-99822000D01*
X120904000Y-99822000D01*
X121557143Y-99822000D01*
X121557143Y-99713143D01*
X123589143Y-99713143D01*
X123589143Y-99422857D01*
X124206000Y-99422857D01*
X124206000Y-99713143D01*
X126238000Y-99713143D01*
X127798286Y-99713143D01*
X127798286Y-99459143D01*
X128415143Y-99459143D01*
X128415143Y-100257429D01*
X128614714Y-100257429D01*
X128702706Y-100257300D01*
X128763102Y-100249891D01*
X128798025Y-100224664D01*
X128809600Y-100171085D01*
X128799948Y-100078617D01*
X128771195Y-99936725D01*
X128725463Y-99734872D01*
X128722586Y-99722214D01*
X128716902Y-99681778D01*
X128731716Y-99657531D01*
X128780826Y-99645339D01*
X128878030Y-99641066D01*
X128995023Y-99640572D01*
X129130017Y-99642005D01*
X129231731Y-99645816D01*
X129283011Y-99651268D01*
X129286000Y-99653053D01*
X129293730Y-99710582D01*
X129314625Y-99821982D01*
X129345236Y-99971675D01*
X129382119Y-100144085D01*
X129421826Y-100323633D01*
X129460913Y-100494743D01*
X129495932Y-100641837D01*
X129523437Y-100749338D01*
X129539982Y-100801669D01*
X129540209Y-100802105D01*
X129607768Y-100861265D01*
X129668276Y-100874286D01*
X129713773Y-100877829D01*
X129740443Y-100898646D01*
X129753308Y-100952019D01*
X129757391Y-101053229D01*
X129757714Y-101146429D01*
X129939143Y-101146429D01*
X129939143Y-100584000D01*
X129648857Y-100584000D01*
X129648857Y-100112286D01*
X129939143Y-100112286D01*
X129939143Y-99531714D01*
X130447143Y-99531714D01*
X130447143Y-100112286D01*
X130955143Y-100112286D01*
X130955143Y-99531714D01*
X131499428Y-99531714D01*
X131499428Y-100112286D01*
X131753428Y-100112286D01*
X132297714Y-100112286D01*
X132297714Y-99604286D01*
X137123714Y-99604286D01*
X137775765Y-99604286D01*
X137769173Y-99459143D01*
X138466285Y-99459143D01*
X138466285Y-99582261D01*
X138483670Y-99684929D01*
X138523682Y-99727404D01*
X138569958Y-99731573D01*
X138681928Y-99735485D01*
X138852715Y-99739064D01*
X139075442Y-99742234D01*
X139343233Y-99744920D01*
X139649209Y-99747048D01*
X139986494Y-99748542D01*
X140348210Y-99749326D01*
X140537539Y-99749429D01*
X142494000Y-99749429D01*
X142494000Y-100221143D01*
X140498286Y-100221143D01*
X140498286Y-100765429D01*
X142566571Y-100765429D01*
X143593392Y-100765429D01*
X143579620Y-100739242D01*
X143464710Y-100494291D01*
X143457122Y-100477575D01*
X143376203Y-100297286D01*
X143307130Y-100139989D01*
X143255023Y-100017614D01*
X143224999Y-99942091D01*
X143219714Y-99924218D01*
X143253346Y-99911389D01*
X143343657Y-99901356D01*
X143474767Y-99895505D01*
X143559128Y-99894572D01*
X143898542Y-99894572D01*
X144055379Y-100241707D01*
X144128031Y-100392093D01*
X144198795Y-100520628D01*
X144257924Y-100610475D01*
X144286468Y-100640850D01*
X144355506Y-100668212D01*
X144474608Y-100685010D01*
X144653125Y-100692332D01*
X144733645Y-100692857D01*
X145106571Y-100692857D01*
X145106571Y-99422857D01*
X145796000Y-99422857D01*
X145796000Y-101524461D01*
X145796371Y-101909595D01*
X145797440Y-102273879D01*
X145799139Y-102610697D01*
X145801401Y-102913430D01*
X145804158Y-103175460D01*
X145807343Y-103390170D01*
X145810888Y-103550942D01*
X145814725Y-103651159D01*
X145818025Y-103683461D01*
X145840286Y-103709975D01*
X145891129Y-103727102D01*
X145983267Y-103736671D01*
X146129417Y-103740511D01*
X146217168Y-103740857D01*
X146594285Y-103740857D01*
X146955300Y-103740857D01*
X146949794Y-103728597D01*
X146902585Y-103609490D01*
X146844376Y-103451002D01*
X146772721Y-103246772D01*
X146685171Y-102990439D01*
X146579278Y-102675642D01*
X146498088Y-102432567D01*
X146380815Y-102080449D01*
X146284498Y-101789498D01*
X146207057Y-101552066D01*
X146146410Y-101360501D01*
X146100475Y-101207155D01*
X146067171Y-101084377D01*
X146044416Y-100984517D01*
X146030128Y-100899926D01*
X146022227Y-100822954D01*
X146018630Y-100745951D01*
X146017302Y-100665643D01*
X146013714Y-100330000D01*
X147900571Y-100330000D01*
X147900571Y-100874286D01*
X147283714Y-100874286D01*
X147081285Y-100875621D01*
X146906764Y-100879320D01*
X146771932Y-100884925D01*
X146688572Y-100891978D01*
X146666857Y-100898279D01*
X146678402Y-100942389D01*
X146710854Y-101045385D01*
X146760943Y-101197801D01*
X146825395Y-101390174D01*
X146900939Y-101613039D01*
X146984302Y-101856932D01*
X147072213Y-102112388D01*
X147161400Y-102369944D01*
X147248590Y-102620136D01*
X147330511Y-102853498D01*
X147403891Y-103060567D01*
X147465458Y-103231878D01*
X147511940Y-103357968D01*
X147540065Y-103429371D01*
X147546130Y-103441500D01*
X147604532Y-103468499D01*
X147716016Y-103484244D01*
X147796157Y-103486857D01*
X148009428Y-103486857D01*
X156681714Y-103486857D01*
X156681714Y-89988572D01*
X148047221Y-89988572D01*
X148037396Y-93245214D01*
X148027571Y-96501857D01*
X147911706Y-96746450D01*
X147738710Y-97029557D01*
X147512805Y-97264964D01*
X147239758Y-97447674D01*
X146975285Y-97557694D01*
X146932970Y-97566124D01*
X146859864Y-97573572D01*
X146752158Y-97580093D01*
X146606043Y-97585743D01*
X146417708Y-97590576D01*
X146183342Y-97594648D01*
X145899136Y-97598012D01*
X145561280Y-97600725D01*
X145165963Y-97602842D01*
X144709376Y-97604416D01*
X144187708Y-97605504D01*
X143618533Y-97606144D01*
X140406923Y-97608572D01*
X138884219Y-96084572D01*
X146521714Y-96084572D01*
X146521714Y-93036572D01*
X144997714Y-93036572D01*
X144997714Y-94560572D01*
X141949714Y-94560572D01*
X141949714Y-93036572D01*
X144997714Y-93036572D01*
X146521714Y-93036572D01*
X146521714Y-89988572D01*
X144997714Y-89988572D01*
X144997714Y-91512572D01*
X140425714Y-91512572D01*
X140425714Y-94578066D01*
X139663714Y-93816714D01*
X138901714Y-93055363D01*
X138901714Y-90731132D01*
X139646810Y-89988572D01*
X144997714Y-89988572D01*
X146521714Y-89988572D01*
X148047221Y-89988572D01*
X156681714Y-89988572D01*
X156681714Y-86940572D01*
X148045714Y-86940572D01*
X148045714Y-88464572D01*
X139753294Y-88464572D01*
X139327504Y-88037670D01*
X138901714Y-87610767D01*
X138901714Y-86940572D01*
X137377714Y-86940572D01*
X137377283Y-90088357D01*
X137377000Y-90664031D01*
X137376278Y-91171325D01*
X137375054Y-91614429D01*
X137373268Y-91997533D01*
X137370857Y-92324829D01*
X137367760Y-92600507D01*
X137363916Y-92828756D01*
X137359264Y-93013768D01*
X137353740Y-93159733D01*
X137347285Y-93270841D01*
X137339836Y-93351283D01*
X137331333Y-93405249D01*
X137328389Y-93417572D01*
X137208753Y-93732976D01*
X137031825Y-94006650D01*
X136802512Y-94233295D01*
X136525720Y-94407609D01*
X136340716Y-94484251D01*
X136296206Y-94498816D01*
X136249918Y-94511336D01*
X136196278Y-94521968D01*
X136129710Y-94530870D01*
X136044638Y-94538199D01*
X135935489Y-94544114D01*
X135796687Y-94548772D01*
X135622657Y-94552331D01*
X135407824Y-94554949D01*
X135146613Y-94556782D01*
X134833449Y-94557990D01*
X134462757Y-94558729D01*
X134028961Y-94559157D01*
X133685643Y-94559356D01*
X131245428Y-94560572D01*
X131245428Y-93036572D01*
X135817428Y-93036572D01*
X135817428Y-89988572D01*
X134329714Y-89988572D01*
X134329714Y-91512572D01*
X129757714Y-91512572D01*
X129757714Y-94560572D01*
X129757402Y-95023897D01*
X129756496Y-95465794D01*
X129755043Y-95880964D01*
X129753090Y-96264105D01*
X129750683Y-96609917D01*
X129747870Y-96913100D01*
X129744698Y-97168354D01*
X129741212Y-97370377D01*
X129737460Y-97513870D01*
X129733489Y-97593532D01*
X129730816Y-97608572D01*
X129699286Y-97583885D01*
X129623233Y-97514077D01*
X129509267Y-97405524D01*
X129363996Y-97264603D01*
X129194032Y-97097688D01*
X129005984Y-96911158D01*
X128950674Y-96855967D01*
X128214937Y-96120857D01*
X123625428Y-96120857D01*
X123625428Y-97644857D01*
X119053428Y-97644857D01*
X119053428Y-96120857D01*
X123625428Y-96120857D01*
X128214937Y-96120857D01*
X128197428Y-96103363D01*
X128197428Y-93036572D01*
X123625428Y-93036572D01*
X123625428Y-94560572D01*
X119053428Y-94560572D01*
X119053428Y-93036572D01*
X123625428Y-93036572D01*
X128197428Y-93036572D01*
X128197428Y-90731132D01*
X128569976Y-90359852D01*
X128942525Y-89988572D01*
X134329714Y-89988572D01*
X135817428Y-89988572D01*
X135817428Y-89316622D01*
X126673428Y-89316622D01*
X126673428Y-91530391D01*
X125149428Y-90006715D01*
X125131282Y-89988572D01*
X123625428Y-89988572D01*
X123625428Y-91512572D01*
X119053428Y-91512572D01*
X119053428Y-89988572D01*
X123625428Y-89988572D01*
X125131282Y-89988572D01*
X123625428Y-88483038D01*
X123625428Y-86940572D01*
X117529428Y-86940572D01*
X117529428Y-97536000D01*
X116857008Y-97536000D01*
X116005428Y-96682196D01*
X116005428Y-86940572D01*
X117529428Y-86940572D01*
X123625428Y-86940572D01*
X125185714Y-86940572D01*
X125185714Y-87830236D01*
X126673428Y-89316622D01*
X135817428Y-89316622D01*
X135817428Y-87442280D01*
X133199558Y-87442280D01*
X133184029Y-87611011D01*
X133168503Y-87684671D01*
X133067407Y-87918829D01*
X132907768Y-88131203D01*
X132703227Y-88307544D01*
X132467419Y-88433603D01*
X132442857Y-88442817D01*
X132239646Y-88486899D01*
X132006753Y-88491768D01*
X131774214Y-88459447D01*
X131572065Y-88391960D01*
X131553857Y-88382933D01*
X131326607Y-88228014D01*
X131132734Y-88020887D01*
X131023113Y-87847715D01*
X130979621Y-87750705D01*
X130953601Y-87650268D01*
X130940961Y-87522953D01*
X130937623Y-87357857D01*
X130953679Y-87099589D01*
X131007809Y-86887876D01*
X131107308Y-86703552D01*
X131250197Y-86536660D01*
X131415099Y-86394656D01*
X131586206Y-86300665D01*
X131785012Y-86245826D01*
X132012982Y-86222230D01*
X132176950Y-86216723D01*
X132294572Y-86222532D01*
X132391677Y-86243392D01*
X132494091Y-86283034D01*
X132522638Y-86295899D01*
X132779530Y-86447200D01*
X132975548Y-86637997D01*
X133110659Y-86868245D01*
X133184834Y-87137899D01*
X133197351Y-87255471D01*
X133199558Y-87442280D01*
X135817428Y-87442280D01*
X135817428Y-86940572D01*
X137377714Y-86940572D01*
X138901714Y-86940572D01*
X148045714Y-86940572D01*
X156681714Y-86940572D01*
X156681714Y-70612000D01*
X107405714Y-70612000D01*
X107405714Y-119924286D01*
G36*
X124206000Y-102325714D02*
X125439714Y-102325714D01*
X125439714Y-101926572D01*
X124206000Y-101926572D01*
X124206000Y-102325714D01*
X124206000Y-102325714D01*
G37*
X124206000Y-102325714D02*
X125439714Y-102325714D01*
X125439714Y-101926572D01*
X124206000Y-101926572D01*
X124206000Y-102325714D01*
G36*
X122398889Y-102117072D02*
X122409857Y-102307572D01*
X123589143Y-102327512D01*
X123589143Y-101926572D01*
X122387922Y-101926572D01*
X122398889Y-102117072D01*
X122398889Y-102117072D01*
G37*
X122398889Y-102117072D02*
X122409857Y-102307572D01*
X123589143Y-102327512D01*
X123589143Y-101926572D01*
X122387922Y-101926572D01*
X122398889Y-102117072D01*
G36*
X124206000Y-101454857D02*
X125439714Y-101454857D01*
X125439714Y-101092000D01*
X124206000Y-101092000D01*
X124206000Y-101454857D01*
X124206000Y-101454857D01*
G37*
X124206000Y-101454857D02*
X125439714Y-101454857D01*
X125439714Y-101092000D01*
X124206000Y-101092000D01*
X124206000Y-101454857D01*
G36*
X122391714Y-101454857D02*
X123589143Y-101454857D01*
X123589143Y-101092000D01*
X122391714Y-101092000D01*
X122391714Y-101454857D01*
X122391714Y-101454857D01*
G37*
X122391714Y-101454857D02*
X123589143Y-101454857D01*
X123589143Y-101092000D01*
X122391714Y-101092000D01*
X122391714Y-101454857D01*
G36*
X116949413Y-101681643D02*
X116953226Y-101835718D01*
X116962965Y-101965666D01*
X116976875Y-102051880D01*
X116984353Y-102071714D01*
X117001225Y-102085359D01*
X117037283Y-102096735D01*
X117098868Y-102106108D01*
X117192320Y-102113745D01*
X117323981Y-102119912D01*
X117500190Y-102124874D01*
X117727288Y-102128897D01*
X118011616Y-102132248D01*
X118359515Y-102135192D01*
X118525940Y-102136370D01*
X120033143Y-102146597D01*
X120033143Y-101346000D01*
X116948857Y-101346000D01*
X116949413Y-101681643D01*
X116949413Y-101681643D01*
G37*
X116949413Y-101681643D02*
X116953226Y-101835718D01*
X116962965Y-101965666D01*
X116976875Y-102051880D01*
X116984353Y-102071714D01*
X117001225Y-102085359D01*
X117037283Y-102096735D01*
X117098868Y-102106108D01*
X117192320Y-102113745D01*
X117323981Y-102119912D01*
X117500190Y-102124874D01*
X117727288Y-102128897D01*
X118011616Y-102132248D01*
X118359515Y-102135192D01*
X118525940Y-102136370D01*
X120033143Y-102146597D01*
X120033143Y-101346000D01*
X116948857Y-101346000D01*
X116949413Y-101681643D01*
G36*
X133285416Y-103223786D02*
X133295571Y-103686429D01*
X136216571Y-103705395D01*
X136216571Y-102761143D01*
X133275260Y-102761143D01*
X133285416Y-103223786D01*
X133285416Y-103223786D01*
G37*
X133285416Y-103223786D02*
X133295571Y-103686429D01*
X136216571Y-103705395D01*
X136216571Y-102761143D01*
X133275260Y-102761143D01*
X133285416Y-103223786D01*
G36*
X133277428Y-102253143D02*
X136216571Y-102253143D01*
X136216571Y-101309714D01*
X133277428Y-101309714D01*
X133277428Y-102253143D01*
X133277428Y-102253143D01*
G37*
X133277428Y-102253143D02*
X136216571Y-102253143D01*
X136216571Y-101309714D01*
X133277428Y-101309714D01*
X133277428Y-102253143D01*
G36*
X130447143Y-101452495D02*
X130448524Y-101700813D01*
X130452402Y-101928573D01*
X130458375Y-102124525D01*
X130466043Y-102277419D01*
X130475005Y-102376004D01*
X130481066Y-102404995D01*
X130527710Y-102490821D01*
X130595582Y-102586662D01*
X130601807Y-102594321D01*
X130688624Y-102699642D01*
X130821883Y-102486599D01*
X130955143Y-102273557D01*
X130955143Y-100584000D01*
X130447143Y-100584000D01*
X130447143Y-101452495D01*
X130447143Y-101452495D01*
G37*
X130447143Y-101452495D02*
X130448524Y-101700813D01*
X130452402Y-101928573D01*
X130458375Y-102124525D01*
X130466043Y-102277419D01*
X130475005Y-102376004D01*
X130481066Y-102404995D01*
X130527710Y-102490821D01*
X130595582Y-102586662D01*
X130601807Y-102594321D01*
X130688624Y-102699642D01*
X130821883Y-102486599D01*
X130955143Y-102273557D01*
X130955143Y-100584000D01*
X130447143Y-100584000D01*
X130447143Y-101452495D01*
G36*
X138575143Y-103319689D02*
X138577841Y-103475762D01*
X138587561Y-103573269D01*
X138606738Y-103626075D01*
X138632539Y-103646261D01*
X138680221Y-103651004D01*
X138792536Y-103655396D01*
X138961547Y-103659326D01*
X139179317Y-103662682D01*
X139437907Y-103665351D01*
X139729381Y-103667221D01*
X140045802Y-103668181D01*
X140192825Y-103668286D01*
X141695714Y-103668286D01*
X141695714Y-103015143D01*
X138575143Y-103015143D01*
X138575143Y-103319689D01*
X138575143Y-103319689D01*
G37*
X138575143Y-103319689D02*
X138577841Y-103475762D01*
X138587561Y-103573269D01*
X138606738Y-103626075D01*
X138632539Y-103646261D01*
X138680221Y-103651004D01*
X138792536Y-103655396D01*
X138961547Y-103659326D01*
X139179317Y-103662682D01*
X139437907Y-103665351D01*
X139729381Y-103667221D01*
X140045802Y-103668181D01*
X140192825Y-103668286D01*
X141695714Y-103668286D01*
X141695714Y-103015143D01*
X138575143Y-103015143D01*
X138575143Y-103319689D01*
D12*
X168492110Y-111561638D02*
X169043652Y-111561638D01*
X168767881Y-111561638D02*
X168767881Y-110596438D01*
X168859805Y-110734324D01*
X168951729Y-110826248D01*
X169043652Y-110872210D01*
D13*
D12*
X158378071Y-110596438D02*
X158837690Y-110596438D01*
X158883652Y-111056057D01*
X158837690Y-111010095D01*
X158745767Y-110964133D01*
X158515957Y-110964133D01*
X158424033Y-111010095D01*
X158378071Y-111056057D01*
X158332110Y-111147981D01*
X158332110Y-111377790D01*
X158378071Y-111469714D01*
X158424033Y-111515676D01*
X158515957Y-111561638D01*
X158745767Y-111561638D01*
X158837690Y-111515676D01*
X158883652Y-111469714D01*
X146233848Y-111561638D02*
X146785390Y-111561638D01*
X146509619Y-111561638D02*
X146509619Y-110596438D01*
X146601543Y-110734324D01*
X146693467Y-110826248D01*
X146785390Y-110872210D01*
X145636343Y-110596438D02*
X145544419Y-110596438D01*
X145452495Y-110642400D01*
X145406533Y-110688362D01*
X145360571Y-110780286D01*
X145314610Y-110964133D01*
X145314610Y-111193943D01*
X145360571Y-111377790D01*
X145406533Y-111469714D01*
X145452495Y-111515676D01*
X145544419Y-111561638D01*
X145636343Y-111561638D01*
X145728267Y-111515676D01*
X145774229Y-111469714D01*
X145820190Y-111377790D01*
X145866152Y-111193943D01*
X145866152Y-110964133D01*
X145820190Y-110780286D01*
X145774229Y-110688362D01*
X145728267Y-110642400D01*
X145636343Y-110596438D01*
X133533848Y-111561638D02*
X134085390Y-111561638D01*
X133809619Y-111561638D02*
X133809619Y-110596438D01*
X133901543Y-110734324D01*
X133993467Y-110826248D01*
X134085390Y-110872210D01*
X132660571Y-110596438D02*
X133120190Y-110596438D01*
X133166152Y-111056057D01*
X133120190Y-111010095D01*
X133028267Y-110964133D01*
X132798457Y-110964133D01*
X132706533Y-111010095D01*
X132660571Y-111056057D01*
X132614610Y-111147981D01*
X132614610Y-111377790D01*
X132660571Y-111469714D01*
X132706533Y-111515676D01*
X132798457Y-111561638D01*
X133028267Y-111561638D01*
X133120190Y-111515676D01*
X133166152Y-111469714D01*
X121385390Y-110688362D02*
X121339428Y-110642400D01*
X121247505Y-110596438D01*
X121017695Y-110596438D01*
X120925771Y-110642400D01*
X120879809Y-110688362D01*
X120833848Y-110780286D01*
X120833848Y-110872210D01*
X120879809Y-111010095D01*
X121431352Y-111561638D01*
X120833848Y-111561638D01*
X120236343Y-110596438D02*
X120144419Y-110596438D01*
X120052495Y-110642400D01*
X120006533Y-110688362D01*
X119960571Y-110780286D01*
X119914610Y-110964133D01*
X119914610Y-111193943D01*
X119960571Y-111377790D01*
X120006533Y-111469714D01*
X120052495Y-111515676D01*
X120144419Y-111561638D01*
X120236343Y-111561638D01*
X120328267Y-111515676D01*
X120374229Y-111469714D01*
X120420190Y-111377790D01*
X120466152Y-111193943D01*
X120466152Y-110964133D01*
X120420190Y-110780286D01*
X120374229Y-110688362D01*
X120328267Y-110642400D01*
X120236343Y-110596438D01*
X108685390Y-110688362D02*
X108639428Y-110642400D01*
X108547505Y-110596438D01*
X108317695Y-110596438D01*
X108225771Y-110642400D01*
X108179809Y-110688362D01*
X108133848Y-110780286D01*
X108133848Y-110872210D01*
X108179809Y-111010095D01*
X108731352Y-111561638D01*
X108133848Y-111561638D01*
X107260571Y-110596438D02*
X107720190Y-110596438D01*
X107766152Y-111056057D01*
X107720190Y-111010095D01*
X107628267Y-110964133D01*
X107398457Y-110964133D01*
X107306533Y-111010095D01*
X107260571Y-111056057D01*
X107214610Y-111147981D01*
X107214610Y-111377790D01*
X107260571Y-111469714D01*
X107306533Y-111515676D01*
X107398457Y-111561638D01*
X107628267Y-111561638D01*
X107720190Y-111515676D01*
X107766152Y-111469714D01*
X96031352Y-110596438D02*
X95433848Y-110596438D01*
X95755581Y-110964133D01*
X95617695Y-110964133D01*
X95525771Y-111010095D01*
X95479809Y-111056057D01*
X95433848Y-111147981D01*
X95433848Y-111377790D01*
X95479809Y-111469714D01*
X95525771Y-111515676D01*
X95617695Y-111561638D01*
X95893467Y-111561638D01*
X95985390Y-111515676D01*
X96031352Y-111469714D01*
X94836343Y-110596438D02*
X94744419Y-110596438D01*
X94652495Y-110642400D01*
X94606533Y-110688362D01*
X94560571Y-110780286D01*
X94514610Y-110964133D01*
X94514610Y-111193943D01*
X94560571Y-111377790D01*
X94606533Y-111469714D01*
X94652495Y-111515676D01*
X94744419Y-111561638D01*
X94836343Y-111561638D01*
X94928267Y-111515676D01*
X94974229Y-111469714D01*
X95020190Y-111377790D01*
X95066152Y-111193943D01*
X95066152Y-110964133D01*
X95020190Y-110780286D01*
X94974229Y-110688362D01*
X94928267Y-110642400D01*
X94836343Y-110596438D01*
M02*
