G04 #@! TF.FileFunction,Legend,Top*
%FSLAX46Y46*%
G04 Gerber Fmt 4.6, Leading zero omitted, Abs format (unit mm)*
G04 Created by KiCad (PCBNEW 4.0.7) date 05/30/18 10:11:06*
%MOMM*%
%LPD*%
G01*
G04 APERTURE LIST*
%ADD10C,0.150000*%
%ADD11C,0.152400*%
%ADD12C,0.120000*%
%ADD13C,0.010000*%
%ADD14C,0.254000*%
%ADD15C,0.081280*%
%ADD16C,0.142240*%
G04 APERTURE END LIST*
D10*
X166944524Y-78770238D02*
X165674524Y-78770238D01*
X166944524Y-77439762D02*
X166339762Y-77863095D01*
X166944524Y-78165476D02*
X165674524Y-78165476D01*
X165674524Y-77681667D01*
X165735000Y-77560714D01*
X165795476Y-77500238D01*
X165916429Y-77439762D01*
X166097857Y-77439762D01*
X166218810Y-77500238D01*
X166279286Y-77560714D01*
X166339762Y-77681667D01*
X166339762Y-78165476D01*
X167065476Y-76048809D02*
X167005000Y-76169762D01*
X166884048Y-76290714D01*
X166702619Y-76472143D01*
X166642143Y-76593095D01*
X166642143Y-76714047D01*
X166944524Y-76653571D02*
X166884048Y-76774524D01*
X166763095Y-76895476D01*
X166521190Y-76955952D01*
X166097857Y-76955952D01*
X165855952Y-76895476D01*
X165735000Y-76774524D01*
X165674524Y-76653571D01*
X165674524Y-76411667D01*
X165735000Y-76290714D01*
X165855952Y-76169762D01*
X166097857Y-76109286D01*
X166521190Y-76109286D01*
X166763095Y-76169762D01*
X166884048Y-76290714D01*
X166944524Y-76411667D01*
X166944524Y-76653571D01*
X164404524Y-77802619D02*
X163799762Y-78225952D01*
X164404524Y-78528333D02*
X163134524Y-78528333D01*
X163134524Y-78044524D01*
X163195000Y-77923571D01*
X163255476Y-77863095D01*
X163376429Y-77802619D01*
X163557857Y-77802619D01*
X163678810Y-77863095D01*
X163739286Y-77923571D01*
X163799762Y-78044524D01*
X163799762Y-78528333D01*
X163134524Y-77379285D02*
X164404524Y-77076904D01*
X163497381Y-76835000D01*
X164404524Y-76593095D01*
X163134524Y-76290714D01*
X160594524Y-78588809D02*
X161864524Y-78286428D01*
X160957381Y-78044524D01*
X161864524Y-77802619D01*
X160594524Y-77500238D01*
X161199286Y-77016428D02*
X161199286Y-76593095D01*
X161864524Y-76411666D02*
X161864524Y-77016428D01*
X160594524Y-77016428D01*
X160594524Y-76411666D01*
X158659286Y-77893333D02*
X158659286Y-78316666D01*
X159324524Y-78316666D02*
X158054524Y-78316666D01*
X158054524Y-77711904D01*
X158175476Y-77288571D02*
X158115000Y-77228095D01*
X158054524Y-77107143D01*
X158054524Y-76804762D01*
X158115000Y-76683809D01*
X158175476Y-76623333D01*
X158296429Y-76562857D01*
X158417381Y-76562857D01*
X158598810Y-76623333D01*
X159324524Y-77349047D01*
X159324524Y-76562857D01*
D11*
X94107000Y-90805000D02*
X93345000Y-90805000D01*
X96647000Y-90805000D02*
X96393000Y-90805000D01*
X99187000Y-90805000D02*
X98933000Y-90805000D01*
X101727000Y-90805000D02*
X101473000Y-90805000D01*
X104267000Y-90805000D02*
X104013000Y-90805000D01*
X130175000Y-104521000D02*
X130175000Y-90805000D01*
X130175000Y-90805000D02*
X129413000Y-90805000D01*
X93345000Y-90805000D02*
X93345000Y-97358200D01*
X93345000Y-97358200D02*
X93345000Y-97967800D01*
X93345000Y-97967800D02*
X93345000Y-104521000D01*
X93345000Y-104521000D02*
X93929200Y-104521000D01*
X98933000Y-104521000D02*
X99187000Y-104521000D01*
X101473000Y-104521000D02*
X101727000Y-104521000D01*
X104013000Y-104521000D02*
X104267000Y-104521000D01*
X106553000Y-104521000D02*
X106807000Y-104521000D01*
X109093000Y-104521000D02*
X109347000Y-104521000D01*
X111633000Y-104521000D02*
X111887000Y-104521000D01*
X114173000Y-104521000D02*
X114427000Y-104521000D01*
X116713000Y-104521000D02*
X116967000Y-104521000D01*
X119253000Y-104521000D02*
X119507000Y-104521000D01*
X121793000Y-104521000D02*
X122047000Y-104521000D01*
X124333000Y-104521000D02*
X124587000Y-104521000D01*
X126873000Y-104521000D02*
X127127000Y-104521000D01*
X129413000Y-104521000D02*
X130175000Y-104521000D01*
X127127000Y-90805000D02*
X126873000Y-90805000D01*
X124587000Y-90805000D02*
X124333000Y-90805000D01*
X122047000Y-90805000D02*
X121793000Y-90805000D01*
X119507000Y-90805000D02*
X119253000Y-90805000D01*
X116967000Y-90805000D02*
X116713000Y-90805000D01*
X114427000Y-90805000D02*
X114173000Y-90805000D01*
X111887000Y-90805000D02*
X111633000Y-90805000D01*
X109347000Y-90805000D02*
X109093000Y-90805000D01*
X106807000Y-90805000D02*
X106553000Y-90805000D01*
X93345000Y-97967800D02*
G75*
G03X93345000Y-97358200I0J304800D01*
G01*
X134747000Y-90805000D02*
X133985000Y-90805000D01*
X137287000Y-90805000D02*
X137033000Y-90805000D01*
X139827000Y-90805000D02*
X139573000Y-90805000D01*
X142367000Y-90805000D02*
X142113000Y-90805000D01*
X144907000Y-90805000D02*
X144653000Y-90805000D01*
X170815000Y-104521000D02*
X170815000Y-90805000D01*
X170815000Y-90805000D02*
X170053000Y-90805000D01*
X133985000Y-90805000D02*
X133985000Y-97358200D01*
X133985000Y-97358200D02*
X133985000Y-97967800D01*
X133985000Y-97967800D02*
X133985000Y-104521000D01*
X133985000Y-104521000D02*
X134569200Y-104521000D01*
X139573000Y-104521000D02*
X139827000Y-104521000D01*
X142113000Y-104521000D02*
X142367000Y-104521000D01*
X144653000Y-104521000D02*
X144907000Y-104521000D01*
X147193000Y-104521000D02*
X147447000Y-104521000D01*
X149733000Y-104521000D02*
X149987000Y-104521000D01*
X152273000Y-104521000D02*
X152527000Y-104521000D01*
X154813000Y-104521000D02*
X155067000Y-104521000D01*
X157353000Y-104521000D02*
X157607000Y-104521000D01*
X159893000Y-104521000D02*
X160147000Y-104521000D01*
X162433000Y-104521000D02*
X162687000Y-104521000D01*
X164973000Y-104521000D02*
X165227000Y-104521000D01*
X167513000Y-104521000D02*
X167767000Y-104521000D01*
X170053000Y-104521000D02*
X170815000Y-104521000D01*
X167767000Y-90805000D02*
X167513000Y-90805000D01*
X165227000Y-90805000D02*
X164973000Y-90805000D01*
X162687000Y-90805000D02*
X162433000Y-90805000D01*
X160147000Y-90805000D02*
X159893000Y-90805000D01*
X157607000Y-90805000D02*
X157353000Y-90805000D01*
X155067000Y-90805000D02*
X154813000Y-90805000D01*
X152527000Y-90805000D02*
X152273000Y-90805000D01*
X149987000Y-90805000D02*
X149733000Y-90805000D01*
X147447000Y-90805000D02*
X147193000Y-90805000D01*
X133985000Y-97967800D02*
G75*
G03X133985000Y-97358200I0J304800D01*
G01*
D12*
X170240000Y-74990000D02*
X170240000Y-72330000D01*
X160020000Y-74990000D02*
X170240000Y-74990000D01*
X160020000Y-72330000D02*
X170240000Y-72330000D01*
X160020000Y-74990000D02*
X160020000Y-72330000D01*
X158750000Y-74990000D02*
X157420000Y-74990000D01*
X157420000Y-74990000D02*
X157420000Y-73660000D01*
X130970000Y-81975000D02*
X131772470Y-81975000D01*
X132387530Y-81975000D02*
X133190000Y-81975000D01*
X130970000Y-79500000D02*
X130970000Y-81975000D01*
X133190000Y-79500000D02*
X133190000Y-81975000D01*
X130970000Y-79500000D02*
X131516529Y-79500000D01*
X132643471Y-79500000D02*
X133190000Y-79500000D01*
X130970000Y-78740000D02*
X130970000Y-77980000D01*
X130970000Y-77980000D02*
X132080000Y-77980000D01*
X122400000Y-76410000D02*
X122400000Y-78530000D01*
X122400000Y-78530000D02*
X126520000Y-78530000D01*
X126520000Y-78530000D02*
X126520000Y-76410000D01*
X126520000Y-76410000D02*
X122400000Y-76410000D01*
X121630000Y-77470000D02*
X122400000Y-77470000D01*
X127290000Y-77470000D02*
X126520000Y-77470000D01*
X123060000Y-76410000D02*
X123060000Y-78530000D01*
X122400000Y-81490000D02*
X122400000Y-83610000D01*
X122400000Y-83610000D02*
X126520000Y-83610000D01*
X126520000Y-83610000D02*
X126520000Y-81490000D01*
X126520000Y-81490000D02*
X122400000Y-81490000D01*
X121630000Y-82550000D02*
X122400000Y-82550000D01*
X127290000Y-82550000D02*
X126520000Y-82550000D01*
X123060000Y-81490000D02*
X123060000Y-83610000D01*
X96460000Y-79010000D02*
G75*
G02X96460000Y-81010000I0J-1000000D01*
G01*
X96460000Y-81010000D02*
X96460000Y-82260000D01*
X96460000Y-82260000D02*
X116900000Y-82260000D01*
X116900000Y-82260000D02*
X116900000Y-77760000D01*
X116900000Y-77760000D02*
X96460000Y-77760000D01*
X96460000Y-77760000D02*
X96460000Y-79010000D01*
D13*
G36*
X103238884Y-90301769D02*
X103503514Y-90310476D01*
X103684888Y-90325628D01*
X103790914Y-90347750D01*
X103817360Y-90360996D01*
X103839527Y-90386366D01*
X103858199Y-90432903D01*
X103874053Y-90510182D01*
X103887770Y-90627774D01*
X103900027Y-90795253D01*
X103911505Y-91022190D01*
X103922883Y-91318159D01*
X103934838Y-91692733D01*
X103948051Y-92155483D01*
X103950201Y-92233750D01*
X103962605Y-92673052D01*
X103975433Y-93102438D01*
X103988177Y-93506527D01*
X104000324Y-93869937D01*
X104011364Y-94177285D01*
X104020785Y-94413191D01*
X104026838Y-94540585D01*
X104033466Y-94681457D01*
X104042935Y-94910855D01*
X104054857Y-95218139D01*
X104068845Y-95592670D01*
X104084511Y-96023806D01*
X104101467Y-96500909D01*
X104119327Y-97013337D01*
X104137701Y-97550451D01*
X104152434Y-97988437D01*
X104185467Y-98969907D01*
X104217267Y-99898397D01*
X104247670Y-100769568D01*
X104276510Y-101579080D01*
X104303624Y-102322596D01*
X104328847Y-102995776D01*
X104352017Y-103594282D01*
X104372967Y-104113774D01*
X104391535Y-104549915D01*
X104407555Y-104898364D01*
X104420865Y-105154784D01*
X104427950Y-105269559D01*
X104459519Y-105729393D01*
X103324935Y-105716044D01*
X102190352Y-105702695D01*
X102178791Y-105156992D01*
X102172196Y-104874907D01*
X102162799Y-104515286D01*
X102150945Y-104088846D01*
X102136980Y-103606303D01*
X102121248Y-103078372D01*
X102104097Y-102515769D01*
X102085870Y-101929210D01*
X102066913Y-101329410D01*
X102047572Y-100727087D01*
X102028192Y-100132955D01*
X102009119Y-99557731D01*
X101990698Y-99012131D01*
X101973274Y-98506869D01*
X101957193Y-98052663D01*
X101942800Y-97660228D01*
X101930441Y-97340280D01*
X101920461Y-97103534D01*
X101916539Y-97021054D01*
X101901264Y-96707287D01*
X101887963Y-96411312D01*
X101877482Y-96153838D01*
X101870668Y-95955572D01*
X101868365Y-95842832D01*
X101859870Y-95705437D01*
X101838791Y-95620514D01*
X101824368Y-95607187D01*
X101794627Y-95649897D01*
X101722146Y-95773508D01*
X101610626Y-95971242D01*
X101463766Y-96236319D01*
X101285268Y-96561961D01*
X101078830Y-96941389D01*
X100848153Y-97367824D01*
X100596938Y-97834488D01*
X100328883Y-98334602D01*
X100047689Y-98861388D01*
X100030420Y-98893808D01*
X99541124Y-99812205D01*
X99096081Y-100646781D01*
X98693144Y-101401411D01*
X98330162Y-102079972D01*
X98004987Y-102686342D01*
X97715470Y-103224397D01*
X97459462Y-103698015D01*
X97234813Y-104111071D01*
X97039374Y-104467443D01*
X96870997Y-104771008D01*
X96727532Y-105025642D01*
X96606830Y-105235222D01*
X96506743Y-105403626D01*
X96425120Y-105534729D01*
X96359813Y-105632409D01*
X96308673Y-105700543D01*
X96269550Y-105743008D01*
X96240296Y-105763680D01*
X96220428Y-105766818D01*
X96202685Y-105744360D01*
X96175988Y-105679351D01*
X96139229Y-105567462D01*
X96091302Y-105404364D01*
X96031100Y-105185727D01*
X95957517Y-104907221D01*
X95869444Y-104564518D01*
X95765777Y-104153288D01*
X95645407Y-103669202D01*
X95507228Y-103107930D01*
X95350133Y-102465142D01*
X95173015Y-101736511D01*
X94974768Y-100917705D01*
X94872265Y-100493389D01*
X94701959Y-99788270D01*
X94537895Y-99109600D01*
X94381605Y-98463681D01*
X94234618Y-97856810D01*
X94098465Y-97295286D01*
X93974678Y-96785410D01*
X93864785Y-96333481D01*
X93770319Y-95945796D01*
X93692809Y-95628657D01*
X93633787Y-95388361D01*
X93594783Y-95231208D01*
X93577326Y-95163498D01*
X93576775Y-95161746D01*
X93557241Y-95195456D01*
X93508657Y-95319436D01*
X93432416Y-95529521D01*
X93329910Y-95821547D01*
X93202532Y-96191351D01*
X93051674Y-96634768D01*
X92878729Y-97147635D01*
X92685089Y-97725787D01*
X92472146Y-98365062D01*
X92241294Y-99061294D01*
X91993924Y-99810320D01*
X91731430Y-100607976D01*
X91455203Y-101450098D01*
X91166636Y-102332522D01*
X90867122Y-103251084D01*
X90707026Y-103743125D01*
X90572224Y-104154788D01*
X90444967Y-104537803D01*
X90328882Y-104881662D01*
X90227600Y-105175857D01*
X90144747Y-105409881D01*
X90083954Y-105573225D01*
X90048848Y-105655382D01*
X90044303Y-105662223D01*
X90006925Y-105692225D01*
X89953339Y-105714960D01*
X89871280Y-105731150D01*
X89748483Y-105741514D01*
X89572682Y-105746775D01*
X89331614Y-105747653D01*
X89013011Y-105744868D01*
X88709004Y-105740710D01*
X88401548Y-105734608D01*
X88130719Y-105726256D01*
X87911098Y-105716352D01*
X87757265Y-105705591D01*
X87683800Y-105694671D01*
X87679610Y-105691545D01*
X87694601Y-105636656D01*
X87738005Y-105494761D01*
X87807463Y-105273179D01*
X87900619Y-104979232D01*
X88015115Y-104620240D01*
X88148596Y-104203524D01*
X88298703Y-103736403D01*
X88463080Y-103226198D01*
X88639369Y-102680231D01*
X88825214Y-102105822D01*
X89018257Y-101510290D01*
X89216142Y-100900957D01*
X89416511Y-100285144D01*
X89617008Y-99670170D01*
X89712577Y-99377500D01*
X90251892Y-97723752D01*
X90768909Y-96132232D01*
X91260979Y-94611126D01*
X91725451Y-93168621D01*
X92096543Y-92010507D01*
X92218926Y-91630285D01*
X92333601Y-91279055D01*
X92436684Y-90968331D01*
X92524290Y-90709623D01*
X92592535Y-90514443D01*
X92637536Y-90394301D01*
X92653139Y-90360996D01*
X92701744Y-90337410D01*
X92811177Y-90320006D01*
X92990785Y-90308196D01*
X93249917Y-90301391D01*
X93597920Y-90299003D01*
X93637665Y-90298984D01*
X93963909Y-90299373D01*
X94205137Y-90301593D01*
X94375555Y-90307221D01*
X94489366Y-90317832D01*
X94560773Y-90335005D01*
X94603981Y-90360317D01*
X94633192Y-90395344D01*
X94642998Y-90410605D01*
X94670204Y-90483448D01*
X94718290Y-90645538D01*
X94785430Y-90889537D01*
X94869798Y-91208109D01*
X94969569Y-91593914D01*
X95082915Y-92039614D01*
X95208010Y-92537873D01*
X95343029Y-93081351D01*
X95486144Y-93662711D01*
X95635530Y-94274614D01*
X95789361Y-94909724D01*
X95945810Y-95560701D01*
X96103051Y-96220209D01*
X96259257Y-96880908D01*
X96357893Y-97301203D01*
X96484419Y-97842114D01*
X96590221Y-98294336D01*
X96677267Y-98665770D01*
X96747526Y-98964317D01*
X96802969Y-99197876D01*
X96845563Y-99374349D01*
X96877279Y-99501634D01*
X96900085Y-99587634D01*
X96915951Y-99640247D01*
X96926846Y-99667374D01*
X96934739Y-99676916D01*
X96941599Y-99676773D01*
X96949395Y-99674844D01*
X96949538Y-99674842D01*
X96992497Y-99635935D01*
X97058417Y-99540116D01*
X97074127Y-99513612D01*
X97154019Y-99371673D01*
X97273389Y-99155140D01*
X97425209Y-98877062D01*
X97602454Y-98550491D01*
X97798096Y-98188478D01*
X98005111Y-97804073D01*
X98216472Y-97410327D01*
X98425151Y-97020292D01*
X98624125Y-96647018D01*
X98806365Y-96303556D01*
X98964846Y-96002956D01*
X98990283Y-95954453D01*
X99179594Y-95594667D01*
X99384843Y-95207209D01*
X99591431Y-94819467D01*
X99784754Y-94458828D01*
X99950213Y-94152680D01*
X99982111Y-94094101D01*
X100119142Y-93840432D01*
X100291006Y-93518410D01*
X100487201Y-93147936D01*
X100697225Y-92748914D01*
X100910576Y-92341246D01*
X101116753Y-91944835D01*
X101146976Y-91886484D01*
X101328157Y-91538330D01*
X101497796Y-91215888D01*
X101649796Y-90930475D01*
X101778059Y-90693407D01*
X101876491Y-90515999D01*
X101938993Y-90409569D01*
X101955473Y-90385800D01*
X101994017Y-90353785D01*
X102054398Y-90330647D01*
X102151486Y-90314992D01*
X102300151Y-90305431D01*
X102515264Y-90300571D01*
X102811695Y-90299019D01*
X102883090Y-90298984D01*
X103238884Y-90301769D01*
X103238884Y-90301769D01*
G37*
X103238884Y-90301769D02*
X103503514Y-90310476D01*
X103684888Y-90325628D01*
X103790914Y-90347750D01*
X103817360Y-90360996D01*
X103839527Y-90386366D01*
X103858199Y-90432903D01*
X103874053Y-90510182D01*
X103887770Y-90627774D01*
X103900027Y-90795253D01*
X103911505Y-91022190D01*
X103922883Y-91318159D01*
X103934838Y-91692733D01*
X103948051Y-92155483D01*
X103950201Y-92233750D01*
X103962605Y-92673052D01*
X103975433Y-93102438D01*
X103988177Y-93506527D01*
X104000324Y-93869937D01*
X104011364Y-94177285D01*
X104020785Y-94413191D01*
X104026838Y-94540585D01*
X104033466Y-94681457D01*
X104042935Y-94910855D01*
X104054857Y-95218139D01*
X104068845Y-95592670D01*
X104084511Y-96023806D01*
X104101467Y-96500909D01*
X104119327Y-97013337D01*
X104137701Y-97550451D01*
X104152434Y-97988437D01*
X104185467Y-98969907D01*
X104217267Y-99898397D01*
X104247670Y-100769568D01*
X104276510Y-101579080D01*
X104303624Y-102322596D01*
X104328847Y-102995776D01*
X104352017Y-103594282D01*
X104372967Y-104113774D01*
X104391535Y-104549915D01*
X104407555Y-104898364D01*
X104420865Y-105154784D01*
X104427950Y-105269559D01*
X104459519Y-105729393D01*
X103324935Y-105716044D01*
X102190352Y-105702695D01*
X102178791Y-105156992D01*
X102172196Y-104874907D01*
X102162799Y-104515286D01*
X102150945Y-104088846D01*
X102136980Y-103606303D01*
X102121248Y-103078372D01*
X102104097Y-102515769D01*
X102085870Y-101929210D01*
X102066913Y-101329410D01*
X102047572Y-100727087D01*
X102028192Y-100132955D01*
X102009119Y-99557731D01*
X101990698Y-99012131D01*
X101973274Y-98506869D01*
X101957193Y-98052663D01*
X101942800Y-97660228D01*
X101930441Y-97340280D01*
X101920461Y-97103534D01*
X101916539Y-97021054D01*
X101901264Y-96707287D01*
X101887963Y-96411312D01*
X101877482Y-96153838D01*
X101870668Y-95955572D01*
X101868365Y-95842832D01*
X101859870Y-95705437D01*
X101838791Y-95620514D01*
X101824368Y-95607187D01*
X101794627Y-95649897D01*
X101722146Y-95773508D01*
X101610626Y-95971242D01*
X101463766Y-96236319D01*
X101285268Y-96561961D01*
X101078830Y-96941389D01*
X100848153Y-97367824D01*
X100596938Y-97834488D01*
X100328883Y-98334602D01*
X100047689Y-98861388D01*
X100030420Y-98893808D01*
X99541124Y-99812205D01*
X99096081Y-100646781D01*
X98693144Y-101401411D01*
X98330162Y-102079972D01*
X98004987Y-102686342D01*
X97715470Y-103224397D01*
X97459462Y-103698015D01*
X97234813Y-104111071D01*
X97039374Y-104467443D01*
X96870997Y-104771008D01*
X96727532Y-105025642D01*
X96606830Y-105235222D01*
X96506743Y-105403626D01*
X96425120Y-105534729D01*
X96359813Y-105632409D01*
X96308673Y-105700543D01*
X96269550Y-105743008D01*
X96240296Y-105763680D01*
X96220428Y-105766818D01*
X96202685Y-105744360D01*
X96175988Y-105679351D01*
X96139229Y-105567462D01*
X96091302Y-105404364D01*
X96031100Y-105185727D01*
X95957517Y-104907221D01*
X95869444Y-104564518D01*
X95765777Y-104153288D01*
X95645407Y-103669202D01*
X95507228Y-103107930D01*
X95350133Y-102465142D01*
X95173015Y-101736511D01*
X94974768Y-100917705D01*
X94872265Y-100493389D01*
X94701959Y-99788270D01*
X94537895Y-99109600D01*
X94381605Y-98463681D01*
X94234618Y-97856810D01*
X94098465Y-97295286D01*
X93974678Y-96785410D01*
X93864785Y-96333481D01*
X93770319Y-95945796D01*
X93692809Y-95628657D01*
X93633787Y-95388361D01*
X93594783Y-95231208D01*
X93577326Y-95163498D01*
X93576775Y-95161746D01*
X93557241Y-95195456D01*
X93508657Y-95319436D01*
X93432416Y-95529521D01*
X93329910Y-95821547D01*
X93202532Y-96191351D01*
X93051674Y-96634768D01*
X92878729Y-97147635D01*
X92685089Y-97725787D01*
X92472146Y-98365062D01*
X92241294Y-99061294D01*
X91993924Y-99810320D01*
X91731430Y-100607976D01*
X91455203Y-101450098D01*
X91166636Y-102332522D01*
X90867122Y-103251084D01*
X90707026Y-103743125D01*
X90572224Y-104154788D01*
X90444967Y-104537803D01*
X90328882Y-104881662D01*
X90227600Y-105175857D01*
X90144747Y-105409881D01*
X90083954Y-105573225D01*
X90048848Y-105655382D01*
X90044303Y-105662223D01*
X90006925Y-105692225D01*
X89953339Y-105714960D01*
X89871280Y-105731150D01*
X89748483Y-105741514D01*
X89572682Y-105746775D01*
X89331614Y-105747653D01*
X89013011Y-105744868D01*
X88709004Y-105740710D01*
X88401548Y-105734608D01*
X88130719Y-105726256D01*
X87911098Y-105716352D01*
X87757265Y-105705591D01*
X87683800Y-105694671D01*
X87679610Y-105691545D01*
X87694601Y-105636656D01*
X87738005Y-105494761D01*
X87807463Y-105273179D01*
X87900619Y-104979232D01*
X88015115Y-104620240D01*
X88148596Y-104203524D01*
X88298703Y-103736403D01*
X88463080Y-103226198D01*
X88639369Y-102680231D01*
X88825214Y-102105822D01*
X89018257Y-101510290D01*
X89216142Y-100900957D01*
X89416511Y-100285144D01*
X89617008Y-99670170D01*
X89712577Y-99377500D01*
X90251892Y-97723752D01*
X90768909Y-96132232D01*
X91260979Y-94611126D01*
X91725451Y-93168621D01*
X92096543Y-92010507D01*
X92218926Y-91630285D01*
X92333601Y-91279055D01*
X92436684Y-90968331D01*
X92524290Y-90709623D01*
X92592535Y-90514443D01*
X92637536Y-90394301D01*
X92653139Y-90360996D01*
X92701744Y-90337410D01*
X92811177Y-90320006D01*
X92990785Y-90308196D01*
X93249917Y-90301391D01*
X93597920Y-90299003D01*
X93637665Y-90298984D01*
X93963909Y-90299373D01*
X94205137Y-90301593D01*
X94375555Y-90307221D01*
X94489366Y-90317832D01*
X94560773Y-90335005D01*
X94603981Y-90360317D01*
X94633192Y-90395344D01*
X94642998Y-90410605D01*
X94670204Y-90483448D01*
X94718290Y-90645538D01*
X94785430Y-90889537D01*
X94869798Y-91208109D01*
X94969569Y-91593914D01*
X95082915Y-92039614D01*
X95208010Y-92537873D01*
X95343029Y-93081351D01*
X95486144Y-93662711D01*
X95635530Y-94274614D01*
X95789361Y-94909724D01*
X95945810Y-95560701D01*
X96103051Y-96220209D01*
X96259257Y-96880908D01*
X96357893Y-97301203D01*
X96484419Y-97842114D01*
X96590221Y-98294336D01*
X96677267Y-98665770D01*
X96747526Y-98964317D01*
X96802969Y-99197876D01*
X96845563Y-99374349D01*
X96877279Y-99501634D01*
X96900085Y-99587634D01*
X96915951Y-99640247D01*
X96926846Y-99667374D01*
X96934739Y-99676916D01*
X96941599Y-99676773D01*
X96949395Y-99674844D01*
X96949538Y-99674842D01*
X96992497Y-99635935D01*
X97058417Y-99540116D01*
X97074127Y-99513612D01*
X97154019Y-99371673D01*
X97273389Y-99155140D01*
X97425209Y-98877062D01*
X97602454Y-98550491D01*
X97798096Y-98188478D01*
X98005111Y-97804073D01*
X98216472Y-97410327D01*
X98425151Y-97020292D01*
X98624125Y-96647018D01*
X98806365Y-96303556D01*
X98964846Y-96002956D01*
X98990283Y-95954453D01*
X99179594Y-95594667D01*
X99384843Y-95207209D01*
X99591431Y-94819467D01*
X99784754Y-94458828D01*
X99950213Y-94152680D01*
X99982111Y-94094101D01*
X100119142Y-93840432D01*
X100291006Y-93518410D01*
X100487201Y-93147936D01*
X100697225Y-92748914D01*
X100910576Y-92341246D01*
X101116753Y-91944835D01*
X101146976Y-91886484D01*
X101328157Y-91538330D01*
X101497796Y-91215888D01*
X101649796Y-90930475D01*
X101778059Y-90693407D01*
X101876491Y-90515999D01*
X101938993Y-90409569D01*
X101955473Y-90385800D01*
X101994017Y-90353785D01*
X102054398Y-90330647D01*
X102151486Y-90314992D01*
X102300151Y-90305431D01*
X102515264Y-90300571D01*
X102811695Y-90299019D01*
X102883090Y-90298984D01*
X103238884Y-90301769D01*
G36*
X113254067Y-90348870D02*
X113508850Y-90350635D01*
X113690840Y-90355286D01*
X113813252Y-90364223D01*
X113889297Y-90378844D01*
X113932190Y-90400549D01*
X113955144Y-90430738D01*
X113967383Y-90460214D01*
X113984381Y-90531796D01*
X114015713Y-90690484D01*
X114059451Y-90925506D01*
X114113663Y-91226092D01*
X114176419Y-91581471D01*
X114245789Y-91980873D01*
X114319842Y-92413525D01*
X114360802Y-92655429D01*
X114438921Y-93118067D01*
X114530527Y-93659756D01*
X114632440Y-94261738D01*
X114741480Y-94905255D01*
X114854467Y-95571550D01*
X114968221Y-96241864D01*
X115079562Y-96897441D01*
X115185310Y-97519521D01*
X115210223Y-97665976D01*
X115296769Y-98174749D01*
X115389632Y-98720771D01*
X115487382Y-99295630D01*
X115588591Y-99890920D01*
X115691831Y-100498230D01*
X115795671Y-101109152D01*
X115898684Y-101715277D01*
X115999440Y-102308195D01*
X116096511Y-102879498D01*
X116188469Y-103420777D01*
X116273883Y-103923622D01*
X116351326Y-104379625D01*
X116419369Y-104780376D01*
X116476583Y-105117468D01*
X116521539Y-105382489D01*
X116552808Y-105567033D01*
X116568961Y-105662689D01*
X116569430Y-105665488D01*
X116588116Y-105777109D01*
X115427618Y-105777109D01*
X115037121Y-105775829D01*
X114736598Y-105771668D01*
X114516833Y-105764139D01*
X114368611Y-105752757D01*
X114282717Y-105737038D01*
X114249933Y-105716497D01*
X114249453Y-105715097D01*
X114236505Y-105648803D01*
X114210819Y-105500550D01*
X114175071Y-105286395D01*
X114131938Y-105022394D01*
X114084094Y-104724602D01*
X114077900Y-104685703D01*
X113964957Y-103983210D01*
X113863739Y-103369294D01*
X113774506Y-102845391D01*
X113697520Y-102412937D01*
X113633043Y-102073370D01*
X113581335Y-101828126D01*
X113542658Y-101678642D01*
X113522018Y-101629815D01*
X113459215Y-101612378D01*
X113309994Y-101597150D01*
X113086993Y-101584152D01*
X112802849Y-101573408D01*
X112470201Y-101564939D01*
X112101686Y-101558767D01*
X111709942Y-101554915D01*
X111307606Y-101553403D01*
X110907315Y-101554255D01*
X110521708Y-101557492D01*
X110163422Y-101563137D01*
X109845094Y-101571211D01*
X109579362Y-101581736D01*
X109378865Y-101594735D01*
X109256238Y-101610229D01*
X109223683Y-101622324D01*
X109193472Y-101679411D01*
X109126805Y-101817231D01*
X109028171Y-102026137D01*
X108902057Y-102296486D01*
X108752952Y-102618631D01*
X108585344Y-102982929D01*
X108403719Y-103379733D01*
X108294575Y-103619101D01*
X108105888Y-104032522D01*
X107927772Y-104420911D01*
X107764862Y-104774297D01*
X107621793Y-105082709D01*
X107503199Y-105336178D01*
X107413715Y-105524734D01*
X107357976Y-105638405D01*
X107343323Y-105665488D01*
X107319167Y-105700190D01*
X107287760Y-105726833D01*
X107236848Y-105746481D01*
X107154174Y-105760200D01*
X107027483Y-105769054D01*
X106844518Y-105774108D01*
X106593025Y-105776428D01*
X106260747Y-105777077D01*
X106058739Y-105777109D01*
X105723457Y-105776342D01*
X105423647Y-105774187D01*
X105172735Y-105770861D01*
X104984145Y-105766581D01*
X104871301Y-105761564D01*
X104844453Y-105757458D01*
X104864627Y-105710422D01*
X104923268Y-105579346D01*
X105017560Y-105370409D01*
X105144683Y-105089790D01*
X105301818Y-104743671D01*
X105486149Y-104338230D01*
X105694855Y-103879648D01*
X105925119Y-103374104D01*
X106174123Y-102827779D01*
X106439047Y-102246852D01*
X106717074Y-101637504D01*
X107005386Y-101005913D01*
X107301163Y-100358261D01*
X107601587Y-99700726D01*
X107746616Y-99383446D01*
X110309978Y-99383446D01*
X110311197Y-99384552D01*
X110384959Y-99400047D01*
X110541114Y-99412119D01*
X110763520Y-99420883D01*
X111036040Y-99426449D01*
X111342534Y-99428932D01*
X111666863Y-99428444D01*
X111992889Y-99425098D01*
X112304472Y-99419008D01*
X112585473Y-99410285D01*
X112819753Y-99399043D01*
X112991173Y-99385394D01*
X113083594Y-99369452D01*
X113092497Y-99365097D01*
X113117388Y-99338607D01*
X113132532Y-99295715D01*
X113136799Y-99224182D01*
X113129059Y-99111767D01*
X113108180Y-98946229D01*
X113073033Y-98715327D01*
X113022486Y-98406821D01*
X112981376Y-98162070D01*
X112910466Y-97746136D01*
X112836171Y-97317867D01*
X112760564Y-96888556D01*
X112685717Y-96469496D01*
X112613706Y-96071978D01*
X112546603Y-95707295D01*
X112486482Y-95386739D01*
X112435416Y-95121603D01*
X112395479Y-94923179D01*
X112368744Y-94802759D01*
X112358595Y-94770418D01*
X112328227Y-94794349D01*
X112291705Y-94868568D01*
X112251901Y-94961358D01*
X112180677Y-95119563D01*
X112089058Y-95318917D01*
X112012501Y-95483164D01*
X111701545Y-96149354D01*
X111416804Y-96765762D01*
X111160171Y-97328043D01*
X110933543Y-97831852D01*
X110738814Y-98272843D01*
X110577880Y-98646671D01*
X110452634Y-98948991D01*
X110364971Y-99175457D01*
X110316788Y-99321724D01*
X110309978Y-99383446D01*
X107746616Y-99383446D01*
X107903840Y-99039489D01*
X108205104Y-98380730D01*
X108502561Y-97730629D01*
X108793391Y-97095364D01*
X109074776Y-96481118D01*
X109122890Y-96376132D01*
X109340872Y-95899562D01*
X109588493Y-95356565D01*
X109854801Y-94771253D01*
X110128849Y-94167737D01*
X110399687Y-93570128D01*
X110656366Y-93002539D01*
X110878708Y-92509576D01*
X111069245Y-92087630D01*
X111248713Y-91692476D01*
X111412751Y-91333557D01*
X111556996Y-91020314D01*
X111677085Y-90762189D01*
X111768654Y-90568624D01*
X111827342Y-90449062D01*
X111847199Y-90413580D01*
X111890837Y-90390232D01*
X111984804Y-90372762D01*
X112139661Y-90360527D01*
X112365971Y-90352883D01*
X112674295Y-90349186D01*
X112913279Y-90348593D01*
X113254067Y-90348870D01*
X113254067Y-90348870D01*
G37*
X113254067Y-90348870D02*
X113508850Y-90350635D01*
X113690840Y-90355286D01*
X113813252Y-90364223D01*
X113889297Y-90378844D01*
X113932190Y-90400549D01*
X113955144Y-90430738D01*
X113967383Y-90460214D01*
X113984381Y-90531796D01*
X114015713Y-90690484D01*
X114059451Y-90925506D01*
X114113663Y-91226092D01*
X114176419Y-91581471D01*
X114245789Y-91980873D01*
X114319842Y-92413525D01*
X114360802Y-92655429D01*
X114438921Y-93118067D01*
X114530527Y-93659756D01*
X114632440Y-94261738D01*
X114741480Y-94905255D01*
X114854467Y-95571550D01*
X114968221Y-96241864D01*
X115079562Y-96897441D01*
X115185310Y-97519521D01*
X115210223Y-97665976D01*
X115296769Y-98174749D01*
X115389632Y-98720771D01*
X115487382Y-99295630D01*
X115588591Y-99890920D01*
X115691831Y-100498230D01*
X115795671Y-101109152D01*
X115898684Y-101715277D01*
X115999440Y-102308195D01*
X116096511Y-102879498D01*
X116188469Y-103420777D01*
X116273883Y-103923622D01*
X116351326Y-104379625D01*
X116419369Y-104780376D01*
X116476583Y-105117468D01*
X116521539Y-105382489D01*
X116552808Y-105567033D01*
X116568961Y-105662689D01*
X116569430Y-105665488D01*
X116588116Y-105777109D01*
X115427618Y-105777109D01*
X115037121Y-105775829D01*
X114736598Y-105771668D01*
X114516833Y-105764139D01*
X114368611Y-105752757D01*
X114282717Y-105737038D01*
X114249933Y-105716497D01*
X114249453Y-105715097D01*
X114236505Y-105648803D01*
X114210819Y-105500550D01*
X114175071Y-105286395D01*
X114131938Y-105022394D01*
X114084094Y-104724602D01*
X114077900Y-104685703D01*
X113964957Y-103983210D01*
X113863739Y-103369294D01*
X113774506Y-102845391D01*
X113697520Y-102412937D01*
X113633043Y-102073370D01*
X113581335Y-101828126D01*
X113542658Y-101678642D01*
X113522018Y-101629815D01*
X113459215Y-101612378D01*
X113309994Y-101597150D01*
X113086993Y-101584152D01*
X112802849Y-101573408D01*
X112470201Y-101564939D01*
X112101686Y-101558767D01*
X111709942Y-101554915D01*
X111307606Y-101553403D01*
X110907315Y-101554255D01*
X110521708Y-101557492D01*
X110163422Y-101563137D01*
X109845094Y-101571211D01*
X109579362Y-101581736D01*
X109378865Y-101594735D01*
X109256238Y-101610229D01*
X109223683Y-101622324D01*
X109193472Y-101679411D01*
X109126805Y-101817231D01*
X109028171Y-102026137D01*
X108902057Y-102296486D01*
X108752952Y-102618631D01*
X108585344Y-102982929D01*
X108403719Y-103379733D01*
X108294575Y-103619101D01*
X108105888Y-104032522D01*
X107927772Y-104420911D01*
X107764862Y-104774297D01*
X107621793Y-105082709D01*
X107503199Y-105336178D01*
X107413715Y-105524734D01*
X107357976Y-105638405D01*
X107343323Y-105665488D01*
X107319167Y-105700190D01*
X107287760Y-105726833D01*
X107236848Y-105746481D01*
X107154174Y-105760200D01*
X107027483Y-105769054D01*
X106844518Y-105774108D01*
X106593025Y-105776428D01*
X106260747Y-105777077D01*
X106058739Y-105777109D01*
X105723457Y-105776342D01*
X105423647Y-105774187D01*
X105172735Y-105770861D01*
X104984145Y-105766581D01*
X104871301Y-105761564D01*
X104844453Y-105757458D01*
X104864627Y-105710422D01*
X104923268Y-105579346D01*
X105017560Y-105370409D01*
X105144683Y-105089790D01*
X105301818Y-104743671D01*
X105486149Y-104338230D01*
X105694855Y-103879648D01*
X105925119Y-103374104D01*
X106174123Y-102827779D01*
X106439047Y-102246852D01*
X106717074Y-101637504D01*
X107005386Y-101005913D01*
X107301163Y-100358261D01*
X107601587Y-99700726D01*
X107746616Y-99383446D01*
X110309978Y-99383446D01*
X110311197Y-99384552D01*
X110384959Y-99400047D01*
X110541114Y-99412119D01*
X110763520Y-99420883D01*
X111036040Y-99426449D01*
X111342534Y-99428932D01*
X111666863Y-99428444D01*
X111992889Y-99425098D01*
X112304472Y-99419008D01*
X112585473Y-99410285D01*
X112819753Y-99399043D01*
X112991173Y-99385394D01*
X113083594Y-99369452D01*
X113092497Y-99365097D01*
X113117388Y-99338607D01*
X113132532Y-99295715D01*
X113136799Y-99224182D01*
X113129059Y-99111767D01*
X113108180Y-98946229D01*
X113073033Y-98715327D01*
X113022486Y-98406821D01*
X112981376Y-98162070D01*
X112910466Y-97746136D01*
X112836171Y-97317867D01*
X112760564Y-96888556D01*
X112685717Y-96469496D01*
X112613706Y-96071978D01*
X112546603Y-95707295D01*
X112486482Y-95386739D01*
X112435416Y-95121603D01*
X112395479Y-94923179D01*
X112368744Y-94802759D01*
X112358595Y-94770418D01*
X112328227Y-94794349D01*
X112291705Y-94868568D01*
X112251901Y-94961358D01*
X112180677Y-95119563D01*
X112089058Y-95318917D01*
X112012501Y-95483164D01*
X111701545Y-96149354D01*
X111416804Y-96765762D01*
X111160171Y-97328043D01*
X110933543Y-97831852D01*
X110738814Y-98272843D01*
X110577880Y-98646671D01*
X110452634Y-98948991D01*
X110364971Y-99175457D01*
X110316788Y-99321724D01*
X110309978Y-99383446D01*
X107746616Y-99383446D01*
X107903840Y-99039489D01*
X108205104Y-98380730D01*
X108502561Y-97730629D01*
X108793391Y-97095364D01*
X109074776Y-96481118D01*
X109122890Y-96376132D01*
X109340872Y-95899562D01*
X109588493Y-95356565D01*
X109854801Y-94771253D01*
X110128849Y-94167737D01*
X110399687Y-93570128D01*
X110656366Y-93002539D01*
X110878708Y-92509576D01*
X111069245Y-92087630D01*
X111248713Y-91692476D01*
X111412751Y-91333557D01*
X111556996Y-91020314D01*
X111677085Y-90762189D01*
X111768654Y-90568624D01*
X111827342Y-90449062D01*
X111847199Y-90413580D01*
X111890837Y-90390232D01*
X111984804Y-90372762D01*
X112139661Y-90360527D01*
X112365971Y-90352883D01*
X112674295Y-90349186D01*
X112913279Y-90348593D01*
X113254067Y-90348870D01*
G36*
X125773078Y-90201423D02*
X126055897Y-90203714D01*
X126297384Y-90207702D01*
X126482180Y-90213441D01*
X126594922Y-90220986D01*
X126622969Y-90228034D01*
X126604840Y-90270898D01*
X126548032Y-90362456D01*
X126448917Y-90507827D01*
X126303863Y-90712132D01*
X126109242Y-90980489D01*
X125861424Y-91318018D01*
X125587768Y-91688046D01*
X125393491Y-91949137D01*
X125160488Y-92260674D01*
X124894774Y-92614725D01*
X124602369Y-93003358D01*
X124289288Y-93418639D01*
X123961549Y-93852637D01*
X123625169Y-94297419D01*
X123286165Y-94745051D01*
X122950555Y-95187603D01*
X122624355Y-95617140D01*
X122313582Y-96025731D01*
X122024255Y-96405443D01*
X121762389Y-96748344D01*
X121534002Y-97046500D01*
X121345111Y-97291979D01*
X121201734Y-97476850D01*
X121109887Y-97593178D01*
X121090915Y-97616367D01*
X120973063Y-97763299D01*
X120875955Y-97894810D01*
X120827833Y-97970025D01*
X120808338Y-98031668D01*
X120780276Y-98160462D01*
X120743177Y-98359431D01*
X120696567Y-98631599D01*
X120639975Y-98979991D01*
X120572928Y-99407628D01*
X120494956Y-99917536D01*
X120405585Y-100512738D01*
X120304344Y-101196258D01*
X120190761Y-101971119D01*
X120064363Y-102840345D01*
X120023434Y-103123007D01*
X119957200Y-103577443D01*
X119893113Y-104010710D01*
X119833008Y-104410873D01*
X119778716Y-104765999D01*
X119732072Y-105064153D01*
X119694908Y-105293401D01*
X119669057Y-105441807D01*
X119661511Y-105479453D01*
X119601017Y-105752304D01*
X118473516Y-105765638D01*
X117346016Y-105778972D01*
X117346016Y-105599617D01*
X117354128Y-105492503D01*
X117376614Y-105307626D01*
X117410698Y-105064952D01*
X117453605Y-104784444D01*
X117492707Y-104544487D01*
X117598305Y-103894103D01*
X117709881Y-103170216D01*
X117823731Y-102398068D01*
X117936149Y-101602899D01*
X118043432Y-100809952D01*
X118065424Y-100642539D01*
X118115591Y-100267738D01*
X118172295Y-99859196D01*
X118230488Y-99452353D01*
X118285120Y-99082651D01*
X118319849Y-98856601D01*
X118361114Y-98575496D01*
X118393500Y-98318001D01*
X118414804Y-98104840D01*
X118422825Y-97956740D01*
X118420529Y-97908857D01*
X118393315Y-97837916D01*
X118323161Y-97686939D01*
X118213933Y-97463376D01*
X118069495Y-97174676D01*
X117893712Y-96828290D01*
X117690450Y-96431666D01*
X117463574Y-95992255D01*
X117216948Y-95517506D01*
X116954438Y-95014869D01*
X116679908Y-94491794D01*
X116397223Y-93955729D01*
X116110249Y-93414126D01*
X115822850Y-92874433D01*
X115538891Y-92344100D01*
X115386126Y-92060117D01*
X115131521Y-91585405D01*
X114923305Y-91191983D01*
X114758979Y-90874803D01*
X114636046Y-90628813D01*
X114552011Y-90448964D01*
X114504375Y-90330206D01*
X114490642Y-90267489D01*
X114494385Y-90256643D01*
X114550927Y-90247125D01*
X114692691Y-90237508D01*
X114905684Y-90228326D01*
X115175911Y-90220109D01*
X115489377Y-90213388D01*
X115725352Y-90209880D01*
X116126310Y-90206229D01*
X116438320Y-90206539D01*
X116671589Y-90211203D01*
X116836324Y-90220617D01*
X116942732Y-90235176D01*
X117001019Y-90255276D01*
X117007158Y-90259490D01*
X117053173Y-90320586D01*
X117136783Y-90456627D01*
X117250385Y-90654233D01*
X117386378Y-90900022D01*
X117537159Y-91180613D01*
X117621472Y-91340781D01*
X117814093Y-91707091D01*
X118037107Y-92127516D01*
X118273006Y-92569278D01*
X118504282Y-92999603D01*
X118713427Y-93385715D01*
X118734490Y-93424375D01*
X118914959Y-93756768D01*
X119096372Y-94093387D01*
X119267761Y-94413697D01*
X119418157Y-94697168D01*
X119536593Y-94923267D01*
X119575851Y-94999472D01*
X119681040Y-95200119D01*
X119771725Y-95363437D01*
X119837794Y-95471842D01*
X119868292Y-95507967D01*
X119916654Y-95472675D01*
X119998267Y-95384374D01*
X120029097Y-95346736D01*
X120127112Y-95220934D01*
X120276330Y-95026070D01*
X120468805Y-94772742D01*
X120696590Y-94471547D01*
X120951740Y-94133083D01*
X121226306Y-93767948D01*
X121512344Y-93386740D01*
X121801906Y-93000055D01*
X122087046Y-92618492D01*
X122359818Y-92252649D01*
X122612274Y-91913123D01*
X122836469Y-91610512D01*
X123024456Y-91355413D01*
X123125900Y-91216757D01*
X123322462Y-90948463D01*
X123501632Y-90706765D01*
X123654565Y-90503364D01*
X123772415Y-90349965D01*
X123846335Y-90258270D01*
X123865932Y-90237732D01*
X123926403Y-90228386D01*
X124068431Y-90220306D01*
X124276655Y-90213545D01*
X124535714Y-90208158D01*
X124830247Y-90204198D01*
X125144892Y-90201720D01*
X125464290Y-90200777D01*
X125773078Y-90201423D01*
X125773078Y-90201423D01*
G37*
X125773078Y-90201423D02*
X126055897Y-90203714D01*
X126297384Y-90207702D01*
X126482180Y-90213441D01*
X126594922Y-90220986D01*
X126622969Y-90228034D01*
X126604840Y-90270898D01*
X126548032Y-90362456D01*
X126448917Y-90507827D01*
X126303863Y-90712132D01*
X126109242Y-90980489D01*
X125861424Y-91318018D01*
X125587768Y-91688046D01*
X125393491Y-91949137D01*
X125160488Y-92260674D01*
X124894774Y-92614725D01*
X124602369Y-93003358D01*
X124289288Y-93418639D01*
X123961549Y-93852637D01*
X123625169Y-94297419D01*
X123286165Y-94745051D01*
X122950555Y-95187603D01*
X122624355Y-95617140D01*
X122313582Y-96025731D01*
X122024255Y-96405443D01*
X121762389Y-96748344D01*
X121534002Y-97046500D01*
X121345111Y-97291979D01*
X121201734Y-97476850D01*
X121109887Y-97593178D01*
X121090915Y-97616367D01*
X120973063Y-97763299D01*
X120875955Y-97894810D01*
X120827833Y-97970025D01*
X120808338Y-98031668D01*
X120780276Y-98160462D01*
X120743177Y-98359431D01*
X120696567Y-98631599D01*
X120639975Y-98979991D01*
X120572928Y-99407628D01*
X120494956Y-99917536D01*
X120405585Y-100512738D01*
X120304344Y-101196258D01*
X120190761Y-101971119D01*
X120064363Y-102840345D01*
X120023434Y-103123007D01*
X119957200Y-103577443D01*
X119893113Y-104010710D01*
X119833008Y-104410873D01*
X119778716Y-104765999D01*
X119732072Y-105064153D01*
X119694908Y-105293401D01*
X119669057Y-105441807D01*
X119661511Y-105479453D01*
X119601017Y-105752304D01*
X118473516Y-105765638D01*
X117346016Y-105778972D01*
X117346016Y-105599617D01*
X117354128Y-105492503D01*
X117376614Y-105307626D01*
X117410698Y-105064952D01*
X117453605Y-104784444D01*
X117492707Y-104544487D01*
X117598305Y-103894103D01*
X117709881Y-103170216D01*
X117823731Y-102398068D01*
X117936149Y-101602899D01*
X118043432Y-100809952D01*
X118065424Y-100642539D01*
X118115591Y-100267738D01*
X118172295Y-99859196D01*
X118230488Y-99452353D01*
X118285120Y-99082651D01*
X118319849Y-98856601D01*
X118361114Y-98575496D01*
X118393500Y-98318001D01*
X118414804Y-98104840D01*
X118422825Y-97956740D01*
X118420529Y-97908857D01*
X118393315Y-97837916D01*
X118323161Y-97686939D01*
X118213933Y-97463376D01*
X118069495Y-97174676D01*
X117893712Y-96828290D01*
X117690450Y-96431666D01*
X117463574Y-95992255D01*
X117216948Y-95517506D01*
X116954438Y-95014869D01*
X116679908Y-94491794D01*
X116397223Y-93955729D01*
X116110249Y-93414126D01*
X115822850Y-92874433D01*
X115538891Y-92344100D01*
X115386126Y-92060117D01*
X115131521Y-91585405D01*
X114923305Y-91191983D01*
X114758979Y-90874803D01*
X114636046Y-90628813D01*
X114552011Y-90448964D01*
X114504375Y-90330206D01*
X114490642Y-90267489D01*
X114494385Y-90256643D01*
X114550927Y-90247125D01*
X114692691Y-90237508D01*
X114905684Y-90228326D01*
X115175911Y-90220109D01*
X115489377Y-90213388D01*
X115725352Y-90209880D01*
X116126310Y-90206229D01*
X116438320Y-90206539D01*
X116671589Y-90211203D01*
X116836324Y-90220617D01*
X116942732Y-90235176D01*
X117001019Y-90255276D01*
X117007158Y-90259490D01*
X117053173Y-90320586D01*
X117136783Y-90456627D01*
X117250385Y-90654233D01*
X117386378Y-90900022D01*
X117537159Y-91180613D01*
X117621472Y-91340781D01*
X117814093Y-91707091D01*
X118037107Y-92127516D01*
X118273006Y-92569278D01*
X118504282Y-92999603D01*
X118713427Y-93385715D01*
X118734490Y-93424375D01*
X118914959Y-93756768D01*
X119096372Y-94093387D01*
X119267761Y-94413697D01*
X119418157Y-94697168D01*
X119536593Y-94923267D01*
X119575851Y-94999472D01*
X119681040Y-95200119D01*
X119771725Y-95363437D01*
X119837794Y-95471842D01*
X119868292Y-95507967D01*
X119916654Y-95472675D01*
X119998267Y-95384374D01*
X120029097Y-95346736D01*
X120127112Y-95220934D01*
X120276330Y-95026070D01*
X120468805Y-94772742D01*
X120696590Y-94471547D01*
X120951740Y-94133083D01*
X121226306Y-93767948D01*
X121512344Y-93386740D01*
X121801906Y-93000055D01*
X122087046Y-92618492D01*
X122359818Y-92252649D01*
X122612274Y-91913123D01*
X122836469Y-91610512D01*
X123024456Y-91355413D01*
X123125900Y-91216757D01*
X123322462Y-90948463D01*
X123501632Y-90706765D01*
X123654565Y-90503364D01*
X123772415Y-90349965D01*
X123846335Y-90258270D01*
X123865932Y-90237732D01*
X123926403Y-90228386D01*
X124068431Y-90220306D01*
X124276655Y-90213545D01*
X124535714Y-90208158D01*
X124830247Y-90204198D01*
X125144892Y-90201720D01*
X125464290Y-90200777D01*
X125773078Y-90201423D01*
G36*
X129070951Y-90262941D02*
X129637717Y-90270109D01*
X130116340Y-90279512D01*
X130517895Y-90292600D01*
X130853455Y-90310824D01*
X131134092Y-90335634D01*
X131370881Y-90368481D01*
X131574895Y-90410816D01*
X131757208Y-90464088D01*
X131928892Y-90529748D01*
X132101021Y-90609247D01*
X132234155Y-90677293D01*
X132599343Y-90909410D01*
X132956358Y-91210177D01*
X133287004Y-91558806D01*
X133573086Y-91934507D01*
X133796409Y-92316492D01*
X133911493Y-92593763D01*
X134010157Y-92985377D01*
X134073009Y-93443054D01*
X134099278Y-93940031D01*
X134088190Y-94449545D01*
X134038972Y-94944832D01*
X133987844Y-95238451D01*
X133890957Y-95571310D01*
X133735273Y-95945880D01*
X133533906Y-96335514D01*
X133299968Y-96713562D01*
X133175811Y-96888667D01*
X133049580Y-97064213D01*
X132951533Y-97212017D01*
X132893573Y-97313412D01*
X132883364Y-97347254D01*
X132927451Y-97395868D01*
X133032207Y-97486984D01*
X133178426Y-97604243D01*
X133245820Y-97656016D01*
X133596937Y-97965637D01*
X133928290Y-98339084D01*
X134223503Y-98752536D01*
X134466202Y-99182168D01*
X134640009Y-99604160D01*
X134681103Y-99743975D01*
X134813217Y-100436476D01*
X134850061Y-101121287D01*
X134793544Y-101791176D01*
X134645576Y-102438913D01*
X134408065Y-103057269D01*
X134082922Y-103639012D01*
X133672056Y-104176913D01*
X133447646Y-104414740D01*
X132932776Y-104861261D01*
X132378457Y-105217387D01*
X131779907Y-105485686D01*
X131132349Y-105668729D01*
X131103598Y-105674673D01*
X130992522Y-105696389D01*
X130883528Y-105714808D01*
X130767692Y-105730200D01*
X130636090Y-105742836D01*
X130479797Y-105752985D01*
X130289890Y-105760917D01*
X130057445Y-105766904D01*
X129773537Y-105771214D01*
X129429243Y-105774118D01*
X129015638Y-105775885D01*
X128523799Y-105776787D01*
X127944802Y-105777093D01*
X127718985Y-105777109D01*
X124837031Y-105777109D01*
X124837031Y-105660999D01*
X124844192Y-105601915D01*
X124865035Y-105451191D01*
X124898597Y-105215319D01*
X124943917Y-104900792D01*
X125000034Y-104514101D01*
X125065986Y-104061740D01*
X125140811Y-103550200D01*
X125155913Y-103447207D01*
X127454553Y-103447207D01*
X127455397Y-103508335D01*
X127461225Y-103547251D01*
X127471166Y-103571560D01*
X127478419Y-103581894D01*
X127544354Y-103603319D01*
X127694351Y-103620485D01*
X127913348Y-103633455D01*
X128186284Y-103642293D01*
X128498095Y-103647060D01*
X128833719Y-103647821D01*
X129178095Y-103644640D01*
X129516160Y-103637578D01*
X129832852Y-103626699D01*
X130113108Y-103612067D01*
X130341868Y-103593744D01*
X130504067Y-103571795D01*
X130517305Y-103569139D01*
X130989796Y-103421795D01*
X131423686Y-103191895D01*
X131807120Y-102889799D01*
X132128244Y-102525870D01*
X132375204Y-102110470D01*
X132478020Y-101855291D01*
X132531245Y-101676615D01*
X132561464Y-101508071D01*
X132572574Y-101314209D01*
X132568476Y-101059577D01*
X132567751Y-101039414D01*
X132555430Y-100795985D01*
X132534121Y-100615618D01*
X132495645Y-100462162D01*
X132431826Y-100299463D01*
X132370179Y-100165940D01*
X132200944Y-99871560D01*
X131979413Y-99575540D01*
X131728460Y-99303377D01*
X131470958Y-99080568D01*
X131291305Y-98963359D01*
X131093884Y-98859145D01*
X130919416Y-98777948D01*
X130750928Y-98716608D01*
X130571449Y-98671966D01*
X130364007Y-98640863D01*
X130111630Y-98620138D01*
X129797346Y-98606634D01*
X129404183Y-98597189D01*
X129315323Y-98595523D01*
X128162950Y-98574493D01*
X128115641Y-98690742D01*
X128098269Y-98765172D01*
X128069500Y-98926236D01*
X128031139Y-99162232D01*
X127984989Y-99461459D01*
X127932852Y-99812213D01*
X127876531Y-100202794D01*
X127817829Y-100621498D01*
X127814923Y-100642539D01*
X127731725Y-101245838D01*
X127661348Y-101758473D01*
X127602922Y-102188050D01*
X127555575Y-102542174D01*
X127518436Y-102828451D01*
X127490635Y-103054488D01*
X127471301Y-103227889D01*
X127459564Y-103356260D01*
X127454553Y-103447207D01*
X125155913Y-103447207D01*
X125223549Y-102985974D01*
X125313238Y-102375554D01*
X125408916Y-101725432D01*
X125509621Y-101042101D01*
X125614393Y-100332053D01*
X125722269Y-99601780D01*
X125832288Y-98857774D01*
X125943490Y-98106528D01*
X126054911Y-97354534D01*
X126165591Y-96608285D01*
X126227525Y-96191129D01*
X128462968Y-96191129D01*
X128464734Y-96273845D01*
X128473830Y-96319681D01*
X128501626Y-96355657D01*
X128563510Y-96379381D01*
X128676593Y-96393195D01*
X128857987Y-96399441D01*
X129064674Y-96400562D01*
X129330147Y-96395648D01*
X129596018Y-96382709D01*
X129824752Y-96363940D01*
X129936211Y-96349577D01*
X130417398Y-96227771D01*
X130836986Y-96028298D01*
X131195483Y-95750742D01*
X131493396Y-95394685D01*
X131731230Y-94959710D01*
X131785563Y-94827769D01*
X131873298Y-94490936D01*
X131901786Y-94114125D01*
X131871096Y-93736899D01*
X131783152Y-93403598D01*
X131616843Y-93076468D01*
X131394142Y-92819764D01*
X131107452Y-92628197D01*
X130749173Y-92496478D01*
X130380837Y-92427388D01*
X130158180Y-92408327D01*
X129908277Y-92401289D01*
X129652773Y-92405125D01*
X129413313Y-92418689D01*
X129211541Y-92440831D01*
X129069103Y-92470406D01*
X129011261Y-92500004D01*
X128992625Y-92561903D01*
X128962179Y-92709110D01*
X128922169Y-92928712D01*
X128874841Y-93207798D01*
X128822439Y-93533458D01*
X128767207Y-93892780D01*
X128755643Y-93970078D01*
X128674544Y-94518377D01*
X128608114Y-94976562D01*
X128555409Y-95352499D01*
X128515486Y-95654057D01*
X128487400Y-95889103D01*
X128470209Y-96065504D01*
X128462968Y-96191129D01*
X126227525Y-96191129D01*
X126274568Y-95874272D01*
X126380881Y-95158988D01*
X126483568Y-94468926D01*
X126581668Y-93810577D01*
X126674219Y-93190433D01*
X126760260Y-92614988D01*
X126838828Y-92090734D01*
X126908964Y-91624162D01*
X126969705Y-91221765D01*
X127020089Y-90890035D01*
X127059156Y-90635465D01*
X127085943Y-90464546D01*
X127099489Y-90383772D01*
X127099793Y-90382257D01*
X127128503Y-90242287D01*
X129070951Y-90262941D01*
X129070951Y-90262941D01*
G37*
X129070951Y-90262941D02*
X129637717Y-90270109D01*
X130116340Y-90279512D01*
X130517895Y-90292600D01*
X130853455Y-90310824D01*
X131134092Y-90335634D01*
X131370881Y-90368481D01*
X131574895Y-90410816D01*
X131757208Y-90464088D01*
X131928892Y-90529748D01*
X132101021Y-90609247D01*
X132234155Y-90677293D01*
X132599343Y-90909410D01*
X132956358Y-91210177D01*
X133287004Y-91558806D01*
X133573086Y-91934507D01*
X133796409Y-92316492D01*
X133911493Y-92593763D01*
X134010157Y-92985377D01*
X134073009Y-93443054D01*
X134099278Y-93940031D01*
X134088190Y-94449545D01*
X134038972Y-94944832D01*
X133987844Y-95238451D01*
X133890957Y-95571310D01*
X133735273Y-95945880D01*
X133533906Y-96335514D01*
X133299968Y-96713562D01*
X133175811Y-96888667D01*
X133049580Y-97064213D01*
X132951533Y-97212017D01*
X132893573Y-97313412D01*
X132883364Y-97347254D01*
X132927451Y-97395868D01*
X133032207Y-97486984D01*
X133178426Y-97604243D01*
X133245820Y-97656016D01*
X133596937Y-97965637D01*
X133928290Y-98339084D01*
X134223503Y-98752536D01*
X134466202Y-99182168D01*
X134640009Y-99604160D01*
X134681103Y-99743975D01*
X134813217Y-100436476D01*
X134850061Y-101121287D01*
X134793544Y-101791176D01*
X134645576Y-102438913D01*
X134408065Y-103057269D01*
X134082922Y-103639012D01*
X133672056Y-104176913D01*
X133447646Y-104414740D01*
X132932776Y-104861261D01*
X132378457Y-105217387D01*
X131779907Y-105485686D01*
X131132349Y-105668729D01*
X131103598Y-105674673D01*
X130992522Y-105696389D01*
X130883528Y-105714808D01*
X130767692Y-105730200D01*
X130636090Y-105742836D01*
X130479797Y-105752985D01*
X130289890Y-105760917D01*
X130057445Y-105766904D01*
X129773537Y-105771214D01*
X129429243Y-105774118D01*
X129015638Y-105775885D01*
X128523799Y-105776787D01*
X127944802Y-105777093D01*
X127718985Y-105777109D01*
X124837031Y-105777109D01*
X124837031Y-105660999D01*
X124844192Y-105601915D01*
X124865035Y-105451191D01*
X124898597Y-105215319D01*
X124943917Y-104900792D01*
X125000034Y-104514101D01*
X125065986Y-104061740D01*
X125140811Y-103550200D01*
X125155913Y-103447207D01*
X127454553Y-103447207D01*
X127455397Y-103508335D01*
X127461225Y-103547251D01*
X127471166Y-103571560D01*
X127478419Y-103581894D01*
X127544354Y-103603319D01*
X127694351Y-103620485D01*
X127913348Y-103633455D01*
X128186284Y-103642293D01*
X128498095Y-103647060D01*
X128833719Y-103647821D01*
X129178095Y-103644640D01*
X129516160Y-103637578D01*
X129832852Y-103626699D01*
X130113108Y-103612067D01*
X130341868Y-103593744D01*
X130504067Y-103571795D01*
X130517305Y-103569139D01*
X130989796Y-103421795D01*
X131423686Y-103191895D01*
X131807120Y-102889799D01*
X132128244Y-102525870D01*
X132375204Y-102110470D01*
X132478020Y-101855291D01*
X132531245Y-101676615D01*
X132561464Y-101508071D01*
X132572574Y-101314209D01*
X132568476Y-101059577D01*
X132567751Y-101039414D01*
X132555430Y-100795985D01*
X132534121Y-100615618D01*
X132495645Y-100462162D01*
X132431826Y-100299463D01*
X132370179Y-100165940D01*
X132200944Y-99871560D01*
X131979413Y-99575540D01*
X131728460Y-99303377D01*
X131470958Y-99080568D01*
X131291305Y-98963359D01*
X131093884Y-98859145D01*
X130919416Y-98777948D01*
X130750928Y-98716608D01*
X130571449Y-98671966D01*
X130364007Y-98640863D01*
X130111630Y-98620138D01*
X129797346Y-98606634D01*
X129404183Y-98597189D01*
X129315323Y-98595523D01*
X128162950Y-98574493D01*
X128115641Y-98690742D01*
X128098269Y-98765172D01*
X128069500Y-98926236D01*
X128031139Y-99162232D01*
X127984989Y-99461459D01*
X127932852Y-99812213D01*
X127876531Y-100202794D01*
X127817829Y-100621498D01*
X127814923Y-100642539D01*
X127731725Y-101245838D01*
X127661348Y-101758473D01*
X127602922Y-102188050D01*
X127555575Y-102542174D01*
X127518436Y-102828451D01*
X127490635Y-103054488D01*
X127471301Y-103227889D01*
X127459564Y-103356260D01*
X127454553Y-103447207D01*
X125155913Y-103447207D01*
X125223549Y-102985974D01*
X125313238Y-102375554D01*
X125408916Y-101725432D01*
X125509621Y-101042101D01*
X125614393Y-100332053D01*
X125722269Y-99601780D01*
X125832288Y-98857774D01*
X125943490Y-98106528D01*
X126054911Y-97354534D01*
X126165591Y-96608285D01*
X126227525Y-96191129D01*
X128462968Y-96191129D01*
X128464734Y-96273845D01*
X128473830Y-96319681D01*
X128501626Y-96355657D01*
X128563510Y-96379381D01*
X128676593Y-96393195D01*
X128857987Y-96399441D01*
X129064674Y-96400562D01*
X129330147Y-96395648D01*
X129596018Y-96382709D01*
X129824752Y-96363940D01*
X129936211Y-96349577D01*
X130417398Y-96227771D01*
X130836986Y-96028298D01*
X131195483Y-95750742D01*
X131493396Y-95394685D01*
X131731230Y-94959710D01*
X131785563Y-94827769D01*
X131873298Y-94490936D01*
X131901786Y-94114125D01*
X131871096Y-93736899D01*
X131783152Y-93403598D01*
X131616843Y-93076468D01*
X131394142Y-92819764D01*
X131107452Y-92628197D01*
X130749173Y-92496478D01*
X130380837Y-92427388D01*
X130158180Y-92408327D01*
X129908277Y-92401289D01*
X129652773Y-92405125D01*
X129413313Y-92418689D01*
X129211541Y-92440831D01*
X129069103Y-92470406D01*
X129011261Y-92500004D01*
X128992625Y-92561903D01*
X128962179Y-92709110D01*
X128922169Y-92928712D01*
X128874841Y-93207798D01*
X128822439Y-93533458D01*
X128767207Y-93892780D01*
X128755643Y-93970078D01*
X128674544Y-94518377D01*
X128608114Y-94976562D01*
X128555409Y-95352499D01*
X128515486Y-95654057D01*
X128487400Y-95889103D01*
X128470209Y-96065504D01*
X128462968Y-96191129D01*
X126227525Y-96191129D01*
X126274568Y-95874272D01*
X126380881Y-95158988D01*
X126483568Y-94468926D01*
X126581668Y-93810577D01*
X126674219Y-93190433D01*
X126760260Y-92614988D01*
X126838828Y-92090734D01*
X126908964Y-91624162D01*
X126969705Y-91221765D01*
X127020089Y-90890035D01*
X127059156Y-90635465D01*
X127085943Y-90464546D01*
X127099489Y-90383772D01*
X127099793Y-90382257D01*
X127128503Y-90242287D01*
X129070951Y-90262941D01*
G36*
X140854033Y-90360703D02*
X144854414Y-90373398D01*
X144870172Y-90537480D01*
X144868135Y-90645416D01*
X144851386Y-90823668D01*
X144823055Y-91052573D01*
X144786269Y-91312470D01*
X144744154Y-91583697D01*
X144699839Y-91846595D01*
X144656452Y-92081500D01*
X144617120Y-92268752D01*
X144584971Y-92388690D01*
X144570748Y-92419785D01*
X144538315Y-92433749D01*
X144461518Y-92445614D01*
X144333987Y-92455517D01*
X144149355Y-92463601D01*
X143901251Y-92470005D01*
X143583306Y-92474869D01*
X143189153Y-92478333D01*
X142712422Y-92480538D01*
X142146743Y-92481624D01*
X141753828Y-92481796D01*
X141130611Y-92482266D01*
X140600238Y-92483768D01*
X140156342Y-92486443D01*
X139792554Y-92490432D01*
X139502503Y-92495873D01*
X139279821Y-92502908D01*
X139118138Y-92511677D01*
X139011085Y-92522320D01*
X138952294Y-92534978D01*
X138937359Y-92543808D01*
X138912357Y-92614275D01*
X138876730Y-92770289D01*
X138832386Y-92998974D01*
X138781231Y-93287453D01*
X138725175Y-93622849D01*
X138666123Y-93992286D01*
X138605984Y-94382888D01*
X138546664Y-94781776D01*
X138490072Y-95176076D01*
X138438114Y-95552909D01*
X138392698Y-95899400D01*
X138355732Y-96202671D01*
X138329123Y-96449847D01*
X138314778Y-96628050D01*
X138314604Y-96724404D01*
X138316735Y-96733544D01*
X138340290Y-96748650D01*
X138403131Y-96761332D01*
X138512377Y-96771773D01*
X138675149Y-96780160D01*
X138898565Y-96786676D01*
X139189747Y-96791507D01*
X139555812Y-96794837D01*
X140003883Y-96796851D01*
X140541077Y-96797734D01*
X140793310Y-96797812D01*
X141351327Y-96798005D01*
X141818314Y-96798772D01*
X142202456Y-96800395D01*
X142511942Y-96803156D01*
X142754959Y-96807335D01*
X142939693Y-96813215D01*
X143074333Y-96821078D01*
X143167065Y-96831204D01*
X143226078Y-96843877D01*
X143259557Y-96859376D01*
X143275690Y-96877985D01*
X143278025Y-96883291D01*
X143281686Y-96959299D01*
X143271113Y-97114071D01*
X143248958Y-97328914D01*
X143217879Y-97585139D01*
X143180529Y-97864055D01*
X143139563Y-98146972D01*
X143097637Y-98415199D01*
X143057406Y-98650044D01*
X143021525Y-98832818D01*
X142992648Y-98944831D01*
X142981859Y-98968222D01*
X142948567Y-98983034D01*
X142869859Y-98995475D01*
X142739000Y-99005712D01*
X142549256Y-99013912D01*
X142293893Y-99020244D01*
X141966177Y-99024875D01*
X141559373Y-99027972D01*
X141066747Y-99029702D01*
X140488789Y-99030234D01*
X139927073Y-99030524D01*
X139456432Y-99031560D01*
X139068724Y-99033594D01*
X138755805Y-99036876D01*
X138509534Y-99041656D01*
X138321767Y-99048187D01*
X138184362Y-99056717D01*
X138089177Y-99067498D01*
X138028069Y-99080781D01*
X137992895Y-99096816D01*
X137981198Y-99107441D01*
X137958664Y-99174165D01*
X137925307Y-99326331D01*
X137882930Y-99551648D01*
X137833334Y-99837828D01*
X137778323Y-100172581D01*
X137719699Y-100543617D01*
X137659265Y-100938647D01*
X137598823Y-101345381D01*
X137540175Y-101751529D01*
X137485125Y-102144803D01*
X137435474Y-102512912D01*
X137393026Y-102843568D01*
X137359582Y-103124480D01*
X137336946Y-103343359D01*
X137326920Y-103487916D01*
X137330374Y-103544687D01*
X137348437Y-103558812D01*
X137389202Y-103571242D01*
X137459085Y-103582147D01*
X137564505Y-103591694D01*
X137711875Y-103600051D01*
X137907614Y-103607388D01*
X138158136Y-103613871D01*
X138469859Y-103619670D01*
X138849198Y-103624952D01*
X139302570Y-103629886D01*
X139836391Y-103634640D01*
X140457078Y-103639382D01*
X141114305Y-103643906D01*
X144854414Y-103668710D01*
X144865757Y-103891953D01*
X144861468Y-104016942D01*
X144842261Y-104217263D01*
X144810808Y-104470601D01*
X144769777Y-104754640D01*
X144741135Y-104933750D01*
X144605170Y-105752304D01*
X139632429Y-105764945D01*
X138764591Y-105766846D01*
X137992100Y-105767864D01*
X137311084Y-105767966D01*
X136717675Y-105767117D01*
X136208004Y-105765284D01*
X135778200Y-105762432D01*
X135424394Y-105758526D01*
X135142717Y-105753534D01*
X134929300Y-105747420D01*
X134780272Y-105740150D01*
X134691765Y-105731691D01*
X134659908Y-105722008D01*
X134659688Y-105721058D01*
X134666554Y-105666724D01*
X134686538Y-105520653D01*
X134718716Y-105289332D01*
X134762166Y-104979243D01*
X134815965Y-104596871D01*
X134879189Y-104148701D01*
X134950915Y-103641217D01*
X135030221Y-103080903D01*
X135116184Y-102474245D01*
X135207880Y-101827725D01*
X135304387Y-101147829D01*
X135404781Y-100441041D01*
X135508139Y-99713846D01*
X135613539Y-98972727D01*
X135720058Y-98224170D01*
X135826772Y-97474658D01*
X135932758Y-96730676D01*
X136037094Y-95998709D01*
X136138856Y-95285240D01*
X136237122Y-94596754D01*
X136330969Y-93939736D01*
X136419473Y-93320670D01*
X136501711Y-92746040D01*
X136576761Y-92222331D01*
X136643699Y-91756027D01*
X136701603Y-91353613D01*
X136749549Y-91021572D01*
X136786614Y-90766390D01*
X136811877Y-90594550D01*
X136824412Y-90512537D01*
X136824929Y-90509532D01*
X136853652Y-90348009D01*
X140854033Y-90360703D01*
X140854033Y-90360703D01*
G37*
X140854033Y-90360703D02*
X144854414Y-90373398D01*
X144870172Y-90537480D01*
X144868135Y-90645416D01*
X144851386Y-90823668D01*
X144823055Y-91052573D01*
X144786269Y-91312470D01*
X144744154Y-91583697D01*
X144699839Y-91846595D01*
X144656452Y-92081500D01*
X144617120Y-92268752D01*
X144584971Y-92388690D01*
X144570748Y-92419785D01*
X144538315Y-92433749D01*
X144461518Y-92445614D01*
X144333987Y-92455517D01*
X144149355Y-92463601D01*
X143901251Y-92470005D01*
X143583306Y-92474869D01*
X143189153Y-92478333D01*
X142712422Y-92480538D01*
X142146743Y-92481624D01*
X141753828Y-92481796D01*
X141130611Y-92482266D01*
X140600238Y-92483768D01*
X140156342Y-92486443D01*
X139792554Y-92490432D01*
X139502503Y-92495873D01*
X139279821Y-92502908D01*
X139118138Y-92511677D01*
X139011085Y-92522320D01*
X138952294Y-92534978D01*
X138937359Y-92543808D01*
X138912357Y-92614275D01*
X138876730Y-92770289D01*
X138832386Y-92998974D01*
X138781231Y-93287453D01*
X138725175Y-93622849D01*
X138666123Y-93992286D01*
X138605984Y-94382888D01*
X138546664Y-94781776D01*
X138490072Y-95176076D01*
X138438114Y-95552909D01*
X138392698Y-95899400D01*
X138355732Y-96202671D01*
X138329123Y-96449847D01*
X138314778Y-96628050D01*
X138314604Y-96724404D01*
X138316735Y-96733544D01*
X138340290Y-96748650D01*
X138403131Y-96761332D01*
X138512377Y-96771773D01*
X138675149Y-96780160D01*
X138898565Y-96786676D01*
X139189747Y-96791507D01*
X139555812Y-96794837D01*
X140003883Y-96796851D01*
X140541077Y-96797734D01*
X140793310Y-96797812D01*
X141351327Y-96798005D01*
X141818314Y-96798772D01*
X142202456Y-96800395D01*
X142511942Y-96803156D01*
X142754959Y-96807335D01*
X142939693Y-96813215D01*
X143074333Y-96821078D01*
X143167065Y-96831204D01*
X143226078Y-96843877D01*
X143259557Y-96859376D01*
X143275690Y-96877985D01*
X143278025Y-96883291D01*
X143281686Y-96959299D01*
X143271113Y-97114071D01*
X143248958Y-97328914D01*
X143217879Y-97585139D01*
X143180529Y-97864055D01*
X143139563Y-98146972D01*
X143097637Y-98415199D01*
X143057406Y-98650044D01*
X143021525Y-98832818D01*
X142992648Y-98944831D01*
X142981859Y-98968222D01*
X142948567Y-98983034D01*
X142869859Y-98995475D01*
X142739000Y-99005712D01*
X142549256Y-99013912D01*
X142293893Y-99020244D01*
X141966177Y-99024875D01*
X141559373Y-99027972D01*
X141066747Y-99029702D01*
X140488789Y-99030234D01*
X139927073Y-99030524D01*
X139456432Y-99031560D01*
X139068724Y-99033594D01*
X138755805Y-99036876D01*
X138509534Y-99041656D01*
X138321767Y-99048187D01*
X138184362Y-99056717D01*
X138089177Y-99067498D01*
X138028069Y-99080781D01*
X137992895Y-99096816D01*
X137981198Y-99107441D01*
X137958664Y-99174165D01*
X137925307Y-99326331D01*
X137882930Y-99551648D01*
X137833334Y-99837828D01*
X137778323Y-100172581D01*
X137719699Y-100543617D01*
X137659265Y-100938647D01*
X137598823Y-101345381D01*
X137540175Y-101751529D01*
X137485125Y-102144803D01*
X137435474Y-102512912D01*
X137393026Y-102843568D01*
X137359582Y-103124480D01*
X137336946Y-103343359D01*
X137326920Y-103487916D01*
X137330374Y-103544687D01*
X137348437Y-103558812D01*
X137389202Y-103571242D01*
X137459085Y-103582147D01*
X137564505Y-103591694D01*
X137711875Y-103600051D01*
X137907614Y-103607388D01*
X138158136Y-103613871D01*
X138469859Y-103619670D01*
X138849198Y-103624952D01*
X139302570Y-103629886D01*
X139836391Y-103634640D01*
X140457078Y-103639382D01*
X141114305Y-103643906D01*
X144854414Y-103668710D01*
X144865757Y-103891953D01*
X144861468Y-104016942D01*
X144842261Y-104217263D01*
X144810808Y-104470601D01*
X144769777Y-104754640D01*
X144741135Y-104933750D01*
X144605170Y-105752304D01*
X139632429Y-105764945D01*
X138764591Y-105766846D01*
X137992100Y-105767864D01*
X137311084Y-105767966D01*
X136717675Y-105767117D01*
X136208004Y-105765284D01*
X135778200Y-105762432D01*
X135424394Y-105758526D01*
X135142717Y-105753534D01*
X134929300Y-105747420D01*
X134780272Y-105740150D01*
X134691765Y-105731691D01*
X134659908Y-105722008D01*
X134659688Y-105721058D01*
X134666554Y-105666724D01*
X134686538Y-105520653D01*
X134718716Y-105289332D01*
X134762166Y-104979243D01*
X134815965Y-104596871D01*
X134879189Y-104148701D01*
X134950915Y-103641217D01*
X135030221Y-103080903D01*
X135116184Y-102474245D01*
X135207880Y-101827725D01*
X135304387Y-101147829D01*
X135404781Y-100441041D01*
X135508139Y-99713846D01*
X135613539Y-98972727D01*
X135720058Y-98224170D01*
X135826772Y-97474658D01*
X135932758Y-96730676D01*
X136037094Y-95998709D01*
X136138856Y-95285240D01*
X136237122Y-94596754D01*
X136330969Y-93939736D01*
X136419473Y-93320670D01*
X136501711Y-92746040D01*
X136576761Y-92222331D01*
X136643699Y-91756027D01*
X136701603Y-91353613D01*
X136749549Y-91021572D01*
X136786614Y-90766390D01*
X136811877Y-90594550D01*
X136824412Y-90512537D01*
X136824929Y-90509532D01*
X136853652Y-90348009D01*
X140854033Y-90360703D01*
G36*
X161556640Y-90078551D02*
X161884257Y-90083035D01*
X162155202Y-90092636D01*
X162390731Y-90108641D01*
X162612101Y-90132333D01*
X162840569Y-90164999D01*
X162986641Y-90188890D01*
X163350864Y-90250968D01*
X163628520Y-90299757D01*
X163831032Y-90337558D01*
X163969817Y-90366674D01*
X164056298Y-90389407D01*
X164101893Y-90408059D01*
X164112147Y-90415767D01*
X164119434Y-90476973D01*
X164112333Y-90617969D01*
X164093360Y-90820776D01*
X164065029Y-91067417D01*
X164029856Y-91339913D01*
X163990355Y-91620284D01*
X163949042Y-91890554D01*
X163908430Y-92132742D01*
X163871035Y-92328872D01*
X163839371Y-92460964D01*
X163819347Y-92508986D01*
X163762495Y-92510967D01*
X163630631Y-92494895D01*
X163445685Y-92463862D01*
X163302788Y-92436196D01*
X162910187Y-92364942D01*
X162524498Y-92314342D01*
X162123671Y-92283102D01*
X161685658Y-92269931D01*
X161188410Y-92273536D01*
X160754219Y-92286819D01*
X160334235Y-92305300D01*
X159983080Y-92328530D01*
X159678480Y-92361116D01*
X159398163Y-92407668D01*
X159119855Y-92472795D01*
X158821284Y-92561105D01*
X158480177Y-92677207D01*
X158074260Y-92825710D01*
X157980551Y-92860749D01*
X157445310Y-93068292D01*
X156990229Y-93262092D01*
X156599061Y-93451869D01*
X156255562Y-93647342D01*
X155943486Y-93858229D01*
X155646587Y-94094249D01*
X155348620Y-94365123D01*
X155166934Y-94544017D01*
X154725583Y-95051605D01*
X154331420Y-95631239D01*
X153995949Y-96262385D01*
X153730673Y-96924508D01*
X153612443Y-97318710D01*
X153542708Y-97631213D01*
X153481677Y-97992329D01*
X153432441Y-98373670D01*
X153398094Y-98746846D01*
X153381728Y-99083468D01*
X153386435Y-99355146D01*
X153388171Y-99377500D01*
X153459366Y-100012984D01*
X153560675Y-100565868D01*
X153697050Y-101049525D01*
X153873442Y-101477330D01*
X154094803Y-101862656D01*
X154366085Y-102218879D01*
X154491908Y-102358579D01*
X154946393Y-102775618D01*
X155447653Y-103108623D01*
X155999561Y-103359321D01*
X156605991Y-103529440D01*
X157270819Y-103620709D01*
X157331172Y-103624954D01*
X157945896Y-103628739D01*
X158541422Y-103561731D01*
X159098108Y-103427407D01*
X159596311Y-103229248D01*
X159613203Y-103220818D01*
X159801120Y-103123226D01*
X159940561Y-103035473D01*
X160041093Y-102940166D01*
X160112286Y-102819913D01*
X160163707Y-102657320D01*
X160204925Y-102434994D01*
X160245507Y-102135544D01*
X160255941Y-102052465D01*
X160305534Y-101641799D01*
X160340220Y-101320818D01*
X160360733Y-101081230D01*
X160367806Y-100914741D01*
X160364278Y-100828574D01*
X160338705Y-100807501D01*
X160261031Y-100791412D01*
X160121864Y-100779790D01*
X159911810Y-100772118D01*
X159621477Y-100767881D01*
X159241470Y-100766562D01*
X159235825Y-100766562D01*
X158860039Y-100765416D01*
X158573944Y-100761621D01*
X158368035Y-100754640D01*
X158232808Y-100743936D01*
X158158757Y-100728974D01*
X158136378Y-100709216D01*
X158137300Y-100704550D01*
X158150530Y-100638680D01*
X158174410Y-100489903D01*
X158206652Y-100273687D01*
X158244967Y-100005496D01*
X158287067Y-99700797D01*
X158300610Y-99600742D01*
X158440926Y-98558945D01*
X160661677Y-98558945D01*
X161256717Y-98559910D01*
X161755916Y-98562858D01*
X162162635Y-98567871D01*
X162480231Y-98575029D01*
X162712066Y-98584412D01*
X162861498Y-98596101D01*
X162931888Y-98610176D01*
X162937014Y-98613514D01*
X162948313Y-98659941D01*
X162947659Y-98769030D01*
X162934434Y-98946689D01*
X162908020Y-99198825D01*
X162867801Y-99531345D01*
X162813158Y-99950155D01*
X162745150Y-100449061D01*
X162682214Y-100905334D01*
X162618278Y-101371537D01*
X162555961Y-101828367D01*
X162497886Y-102256521D01*
X162446673Y-102636699D01*
X162404944Y-102949596D01*
X162385394Y-103098203D01*
X162272087Y-103966367D01*
X162004428Y-104248756D01*
X161562214Y-104645706D01*
X161042518Y-104988364D01*
X160452987Y-105273405D01*
X159801267Y-105497501D01*
X159095004Y-105657326D01*
X158610569Y-105725144D01*
X158263690Y-105752578D01*
X157868806Y-105767447D01*
X157453702Y-105770084D01*
X157046165Y-105760828D01*
X156673982Y-105740012D01*
X156364939Y-105707973D01*
X156294174Y-105697149D01*
X155921131Y-105617181D01*
X155508983Y-105499872D01*
X155094227Y-105357512D01*
X154713356Y-105202392D01*
X154463636Y-105080642D01*
X153827873Y-104686513D01*
X153244429Y-104220940D01*
X152722568Y-103694177D01*
X152271553Y-103116479D01*
X151900647Y-102498099D01*
X151670938Y-101989040D01*
X151540831Y-101619846D01*
X151438452Y-101247195D01*
X151360780Y-100852195D01*
X151304794Y-100415949D01*
X151267472Y-99919563D01*
X151245794Y-99344143D01*
X151245410Y-99327890D01*
X151237589Y-98945525D01*
X151234734Y-98641622D01*
X151237797Y-98395505D01*
X151247734Y-98186499D01*
X151265499Y-97993926D01*
X151292047Y-97797113D01*
X151325554Y-97591562D01*
X151439562Y-96991058D01*
X151565892Y-96463697D01*
X151712627Y-95983497D01*
X151887848Y-95524472D01*
X152099638Y-95060639D01*
X152134999Y-94989165D01*
X152314880Y-94650406D01*
X152508370Y-94333380D01*
X152731355Y-94015141D01*
X152999723Y-93672745D01*
X153263439Y-93359432D01*
X153633965Y-92948720D01*
X153995188Y-92592888D01*
X154375007Y-92267454D01*
X154801322Y-91947934D01*
X155123555Y-91727173D01*
X155827704Y-91295477D01*
X156541114Y-90934843D01*
X157275536Y-90642055D01*
X158042723Y-90413898D01*
X158854427Y-90247157D01*
X159722399Y-90138614D01*
X160658393Y-90085056D01*
X161151094Y-90077898D01*
X161556640Y-90078551D01*
X161556640Y-90078551D01*
G37*
X161556640Y-90078551D02*
X161884257Y-90083035D01*
X162155202Y-90092636D01*
X162390731Y-90108641D01*
X162612101Y-90132333D01*
X162840569Y-90164999D01*
X162986641Y-90188890D01*
X163350864Y-90250968D01*
X163628520Y-90299757D01*
X163831032Y-90337558D01*
X163969817Y-90366674D01*
X164056298Y-90389407D01*
X164101893Y-90408059D01*
X164112147Y-90415767D01*
X164119434Y-90476973D01*
X164112333Y-90617969D01*
X164093360Y-90820776D01*
X164065029Y-91067417D01*
X164029856Y-91339913D01*
X163990355Y-91620284D01*
X163949042Y-91890554D01*
X163908430Y-92132742D01*
X163871035Y-92328872D01*
X163839371Y-92460964D01*
X163819347Y-92508986D01*
X163762495Y-92510967D01*
X163630631Y-92494895D01*
X163445685Y-92463862D01*
X163302788Y-92436196D01*
X162910187Y-92364942D01*
X162524498Y-92314342D01*
X162123671Y-92283102D01*
X161685658Y-92269931D01*
X161188410Y-92273536D01*
X160754219Y-92286819D01*
X160334235Y-92305300D01*
X159983080Y-92328530D01*
X159678480Y-92361116D01*
X159398163Y-92407668D01*
X159119855Y-92472795D01*
X158821284Y-92561105D01*
X158480177Y-92677207D01*
X158074260Y-92825710D01*
X157980551Y-92860749D01*
X157445310Y-93068292D01*
X156990229Y-93262092D01*
X156599061Y-93451869D01*
X156255562Y-93647342D01*
X155943486Y-93858229D01*
X155646587Y-94094249D01*
X155348620Y-94365123D01*
X155166934Y-94544017D01*
X154725583Y-95051605D01*
X154331420Y-95631239D01*
X153995949Y-96262385D01*
X153730673Y-96924508D01*
X153612443Y-97318710D01*
X153542708Y-97631213D01*
X153481677Y-97992329D01*
X153432441Y-98373670D01*
X153398094Y-98746846D01*
X153381728Y-99083468D01*
X153386435Y-99355146D01*
X153388171Y-99377500D01*
X153459366Y-100012984D01*
X153560675Y-100565868D01*
X153697050Y-101049525D01*
X153873442Y-101477330D01*
X154094803Y-101862656D01*
X154366085Y-102218879D01*
X154491908Y-102358579D01*
X154946393Y-102775618D01*
X155447653Y-103108623D01*
X155999561Y-103359321D01*
X156605991Y-103529440D01*
X157270819Y-103620709D01*
X157331172Y-103624954D01*
X157945896Y-103628739D01*
X158541422Y-103561731D01*
X159098108Y-103427407D01*
X159596311Y-103229248D01*
X159613203Y-103220818D01*
X159801120Y-103123226D01*
X159940561Y-103035473D01*
X160041093Y-102940166D01*
X160112286Y-102819913D01*
X160163707Y-102657320D01*
X160204925Y-102434994D01*
X160245507Y-102135544D01*
X160255941Y-102052465D01*
X160305534Y-101641799D01*
X160340220Y-101320818D01*
X160360733Y-101081230D01*
X160367806Y-100914741D01*
X160364278Y-100828574D01*
X160338705Y-100807501D01*
X160261031Y-100791412D01*
X160121864Y-100779790D01*
X159911810Y-100772118D01*
X159621477Y-100767881D01*
X159241470Y-100766562D01*
X159235825Y-100766562D01*
X158860039Y-100765416D01*
X158573944Y-100761621D01*
X158368035Y-100754640D01*
X158232808Y-100743936D01*
X158158757Y-100728974D01*
X158136378Y-100709216D01*
X158137300Y-100704550D01*
X158150530Y-100638680D01*
X158174410Y-100489903D01*
X158206652Y-100273687D01*
X158244967Y-100005496D01*
X158287067Y-99700797D01*
X158300610Y-99600742D01*
X158440926Y-98558945D01*
X160661677Y-98558945D01*
X161256717Y-98559910D01*
X161755916Y-98562858D01*
X162162635Y-98567871D01*
X162480231Y-98575029D01*
X162712066Y-98584412D01*
X162861498Y-98596101D01*
X162931888Y-98610176D01*
X162937014Y-98613514D01*
X162948313Y-98659941D01*
X162947659Y-98769030D01*
X162934434Y-98946689D01*
X162908020Y-99198825D01*
X162867801Y-99531345D01*
X162813158Y-99950155D01*
X162745150Y-100449061D01*
X162682214Y-100905334D01*
X162618278Y-101371537D01*
X162555961Y-101828367D01*
X162497886Y-102256521D01*
X162446673Y-102636699D01*
X162404944Y-102949596D01*
X162385394Y-103098203D01*
X162272087Y-103966367D01*
X162004428Y-104248756D01*
X161562214Y-104645706D01*
X161042518Y-104988364D01*
X160452987Y-105273405D01*
X159801267Y-105497501D01*
X159095004Y-105657326D01*
X158610569Y-105725144D01*
X158263690Y-105752578D01*
X157868806Y-105767447D01*
X157453702Y-105770084D01*
X157046165Y-105760828D01*
X156673982Y-105740012D01*
X156364939Y-105707973D01*
X156294174Y-105697149D01*
X155921131Y-105617181D01*
X155508983Y-105499872D01*
X155094227Y-105357512D01*
X154713356Y-105202392D01*
X154463636Y-105080642D01*
X153827873Y-104686513D01*
X153244429Y-104220940D01*
X152722568Y-103694177D01*
X152271553Y-103116479D01*
X151900647Y-102498099D01*
X151670938Y-101989040D01*
X151540831Y-101619846D01*
X151438452Y-101247195D01*
X151360780Y-100852195D01*
X151304794Y-100415949D01*
X151267472Y-99919563D01*
X151245794Y-99344143D01*
X151245410Y-99327890D01*
X151237589Y-98945525D01*
X151234734Y-98641622D01*
X151237797Y-98395505D01*
X151247734Y-98186499D01*
X151265499Y-97993926D01*
X151292047Y-97797113D01*
X151325554Y-97591562D01*
X151439562Y-96991058D01*
X151565892Y-96463697D01*
X151712627Y-95983497D01*
X151887848Y-95524472D01*
X152099638Y-95060639D01*
X152134999Y-94989165D01*
X152314880Y-94650406D01*
X152508370Y-94333380D01*
X152731355Y-94015141D01*
X152999723Y-93672745D01*
X153263439Y-93359432D01*
X153633965Y-92948720D01*
X153995188Y-92592888D01*
X154375007Y-92267454D01*
X154801322Y-91947934D01*
X155123555Y-91727173D01*
X155827704Y-91295477D01*
X156541114Y-90934843D01*
X157275536Y-90642055D01*
X158042723Y-90413898D01*
X158854427Y-90247157D01*
X159722399Y-90138614D01*
X160658393Y-90085056D01*
X161151094Y-90077898D01*
X161556640Y-90078551D01*
G36*
X171836451Y-89870794D02*
X172167649Y-89901069D01*
X172498290Y-89960934D01*
X172759688Y-90025618D01*
X173370652Y-90228333D01*
X173921079Y-90493930D01*
X174431078Y-90834096D01*
X174920755Y-91260516D01*
X174973099Y-91312052D01*
X175349419Y-91724501D01*
X175663206Y-92155702D01*
X175920914Y-92619939D01*
X176129000Y-93131501D01*
X176293918Y-93704673D01*
X176422125Y-94353741D01*
X176459547Y-94601693D01*
X176497489Y-94984256D01*
X176516428Y-95434852D01*
X176516897Y-95924239D01*
X176499428Y-96423174D01*
X176464556Y-96902413D01*
X176412811Y-97332715D01*
X176409362Y-97355179D01*
X176301557Y-97930959D01*
X176152290Y-98555228D01*
X175968327Y-99208601D01*
X175756433Y-99871697D01*
X175523375Y-100525133D01*
X175275918Y-101149527D01*
X175020827Y-101725495D01*
X174764868Y-102233656D01*
X174614953Y-102495856D01*
X174379474Y-102851896D01*
X174093911Y-103230348D01*
X173776141Y-103611180D01*
X173444036Y-103974359D01*
X173115472Y-104299852D01*
X172808323Y-104567626D01*
X172677907Y-104666795D01*
X172370615Y-104862229D01*
X171993329Y-105063146D01*
X171573756Y-105257738D01*
X171139602Y-105434197D01*
X170718574Y-105580715D01*
X170338380Y-105685483D01*
X170237648Y-105706772D01*
X170002720Y-105738571D01*
X169696787Y-105760231D01*
X169345033Y-105771879D01*
X168972643Y-105773641D01*
X168604802Y-105765643D01*
X168266695Y-105748011D01*
X167983505Y-105720872D01*
X167823792Y-105694674D01*
X167263623Y-105536767D01*
X166701971Y-105308203D01*
X166169618Y-105023768D01*
X165697346Y-104698248D01*
X165621757Y-104636984D01*
X165229023Y-104256697D01*
X164864124Y-103799805D01*
X164540035Y-103287803D01*
X164269729Y-102742186D01*
X164066180Y-102184448D01*
X164005519Y-101959284D01*
X163917243Y-101534730D01*
X163850766Y-101097316D01*
X163809029Y-100675156D01*
X163794979Y-100296361D01*
X163802217Y-100121640D01*
X166048437Y-100121640D01*
X166065161Y-100670531D01*
X166119748Y-101144086D01*
X166217066Y-101560543D01*
X166361986Y-101938139D01*
X166559378Y-102295112D01*
X166673915Y-102464100D01*
X167009960Y-102850228D01*
X167411604Y-103162257D01*
X167877708Y-103399509D01*
X168407132Y-103561304D01*
X168568285Y-103593297D01*
X168824488Y-103616872D01*
X169142020Y-103613330D01*
X169487472Y-103585028D01*
X169827435Y-103534325D01*
X170031172Y-103490087D01*
X170551810Y-103311094D01*
X171060895Y-103042687D01*
X171543323Y-102694611D01*
X171983992Y-102276607D01*
X172081296Y-102167617D01*
X172450993Y-101685892D01*
X172804932Y-101119105D01*
X173137047Y-100480939D01*
X173441271Y-99785075D01*
X173711535Y-99045197D01*
X173941774Y-98274987D01*
X174099426Y-97616367D01*
X174169165Y-97266324D01*
X174218207Y-96960247D01*
X174251098Y-96659368D01*
X174272385Y-96324922D01*
X174282705Y-96053671D01*
X174288278Y-95457969D01*
X174263832Y-94944660D01*
X174207617Y-94501034D01*
X174117880Y-94114377D01*
X173992870Y-93771977D01*
X173957829Y-93695820D01*
X173696612Y-93257372D01*
X173361539Y-92865828D01*
X172968371Y-92535438D01*
X172532868Y-92280448D01*
X172276801Y-92176050D01*
X172114977Y-92125131D01*
X171963363Y-92091993D01*
X171793980Y-92073447D01*
X171578850Y-92066298D01*
X171321016Y-92066993D01*
X171046332Y-92072348D01*
X170839679Y-92084559D01*
X170669892Y-92108460D01*
X170505803Y-92148886D01*
X170316247Y-92210672D01*
X170254414Y-92232439D01*
X169656685Y-92471019D01*
X169149607Y-92731220D01*
X168726129Y-93017384D01*
X168379199Y-93333852D01*
X168276392Y-93450368D01*
X167939893Y-93905545D01*
X167613516Y-94446353D01*
X167302794Y-95059314D01*
X167013260Y-95730945D01*
X166750449Y-96447767D01*
X166519895Y-97196300D01*
X166327129Y-97963061D01*
X166230287Y-98434921D01*
X166163242Y-98803311D01*
X166114679Y-99101133D01*
X166081756Y-99354720D01*
X166061636Y-99590404D01*
X166051479Y-99834520D01*
X166048447Y-100113399D01*
X166048437Y-100121640D01*
X163802217Y-100121640D01*
X163805301Y-100047226D01*
X163875890Y-99337825D01*
X163951985Y-98710680D01*
X164036826Y-98148853D01*
X164133653Y-97635407D01*
X164245707Y-97153405D01*
X164376227Y-96685909D01*
X164528455Y-96215983D01*
X164550336Y-96152890D01*
X164652462Y-95871968D01*
X164779772Y-95539573D01*
X164924905Y-95173341D01*
X165080498Y-94790907D01*
X165239191Y-94409909D01*
X165393623Y-94047983D01*
X165536431Y-93722764D01*
X165660255Y-93451888D01*
X165757734Y-93252993D01*
X165772054Y-93225937D01*
X166138053Y-92627817D01*
X166571257Y-92073839D01*
X167083919Y-91549381D01*
X167432720Y-91244480D01*
X167897680Y-90890060D01*
X168364526Y-90601097D01*
X168852103Y-90369889D01*
X169379252Y-90188733D01*
X169964817Y-90049927D01*
X170601680Y-89949073D01*
X171077251Y-89895640D01*
X171480913Y-89869265D01*
X171836451Y-89870794D01*
X171836451Y-89870794D01*
G37*
X171836451Y-89870794D02*
X172167649Y-89901069D01*
X172498290Y-89960934D01*
X172759688Y-90025618D01*
X173370652Y-90228333D01*
X173921079Y-90493930D01*
X174431078Y-90834096D01*
X174920755Y-91260516D01*
X174973099Y-91312052D01*
X175349419Y-91724501D01*
X175663206Y-92155702D01*
X175920914Y-92619939D01*
X176129000Y-93131501D01*
X176293918Y-93704673D01*
X176422125Y-94353741D01*
X176459547Y-94601693D01*
X176497489Y-94984256D01*
X176516428Y-95434852D01*
X176516897Y-95924239D01*
X176499428Y-96423174D01*
X176464556Y-96902413D01*
X176412811Y-97332715D01*
X176409362Y-97355179D01*
X176301557Y-97930959D01*
X176152290Y-98555228D01*
X175968327Y-99208601D01*
X175756433Y-99871697D01*
X175523375Y-100525133D01*
X175275918Y-101149527D01*
X175020827Y-101725495D01*
X174764868Y-102233656D01*
X174614953Y-102495856D01*
X174379474Y-102851896D01*
X174093911Y-103230348D01*
X173776141Y-103611180D01*
X173444036Y-103974359D01*
X173115472Y-104299852D01*
X172808323Y-104567626D01*
X172677907Y-104666795D01*
X172370615Y-104862229D01*
X171993329Y-105063146D01*
X171573756Y-105257738D01*
X171139602Y-105434197D01*
X170718574Y-105580715D01*
X170338380Y-105685483D01*
X170237648Y-105706772D01*
X170002720Y-105738571D01*
X169696787Y-105760231D01*
X169345033Y-105771879D01*
X168972643Y-105773641D01*
X168604802Y-105765643D01*
X168266695Y-105748011D01*
X167983505Y-105720872D01*
X167823792Y-105694674D01*
X167263623Y-105536767D01*
X166701971Y-105308203D01*
X166169618Y-105023768D01*
X165697346Y-104698248D01*
X165621757Y-104636984D01*
X165229023Y-104256697D01*
X164864124Y-103799805D01*
X164540035Y-103287803D01*
X164269729Y-102742186D01*
X164066180Y-102184448D01*
X164005519Y-101959284D01*
X163917243Y-101534730D01*
X163850766Y-101097316D01*
X163809029Y-100675156D01*
X163794979Y-100296361D01*
X163802217Y-100121640D01*
X166048437Y-100121640D01*
X166065161Y-100670531D01*
X166119748Y-101144086D01*
X166217066Y-101560543D01*
X166361986Y-101938139D01*
X166559378Y-102295112D01*
X166673915Y-102464100D01*
X167009960Y-102850228D01*
X167411604Y-103162257D01*
X167877708Y-103399509D01*
X168407132Y-103561304D01*
X168568285Y-103593297D01*
X168824488Y-103616872D01*
X169142020Y-103613330D01*
X169487472Y-103585028D01*
X169827435Y-103534325D01*
X170031172Y-103490087D01*
X170551810Y-103311094D01*
X171060895Y-103042687D01*
X171543323Y-102694611D01*
X171983992Y-102276607D01*
X172081296Y-102167617D01*
X172450993Y-101685892D01*
X172804932Y-101119105D01*
X173137047Y-100480939D01*
X173441271Y-99785075D01*
X173711535Y-99045197D01*
X173941774Y-98274987D01*
X174099426Y-97616367D01*
X174169165Y-97266324D01*
X174218207Y-96960247D01*
X174251098Y-96659368D01*
X174272385Y-96324922D01*
X174282705Y-96053671D01*
X174288278Y-95457969D01*
X174263832Y-94944660D01*
X174207617Y-94501034D01*
X174117880Y-94114377D01*
X173992870Y-93771977D01*
X173957829Y-93695820D01*
X173696612Y-93257372D01*
X173361539Y-92865828D01*
X172968371Y-92535438D01*
X172532868Y-92280448D01*
X172276801Y-92176050D01*
X172114977Y-92125131D01*
X171963363Y-92091993D01*
X171793980Y-92073447D01*
X171578850Y-92066298D01*
X171321016Y-92066993D01*
X171046332Y-92072348D01*
X170839679Y-92084559D01*
X170669892Y-92108460D01*
X170505803Y-92148886D01*
X170316247Y-92210672D01*
X170254414Y-92232439D01*
X169656685Y-92471019D01*
X169149607Y-92731220D01*
X168726129Y-93017384D01*
X168379199Y-93333852D01*
X168276392Y-93450368D01*
X167939893Y-93905545D01*
X167613516Y-94446353D01*
X167302794Y-95059314D01*
X167013260Y-95730945D01*
X166750449Y-96447767D01*
X166519895Y-97196300D01*
X166327129Y-97963061D01*
X166230287Y-98434921D01*
X166163242Y-98803311D01*
X166114679Y-99101133D01*
X166081756Y-99354720D01*
X166061636Y-99590404D01*
X166051479Y-99834520D01*
X166048447Y-100113399D01*
X166048437Y-100121640D01*
X163802217Y-100121640D01*
X163805301Y-100047226D01*
X163875890Y-99337825D01*
X163951985Y-98710680D01*
X164036826Y-98148853D01*
X164133653Y-97635407D01*
X164245707Y-97153405D01*
X164376227Y-96685909D01*
X164528455Y-96215983D01*
X164550336Y-96152890D01*
X164652462Y-95871968D01*
X164779772Y-95539573D01*
X164924905Y-95173341D01*
X165080498Y-94790907D01*
X165239191Y-94409909D01*
X165393623Y-94047983D01*
X165536431Y-93722764D01*
X165660255Y-93451888D01*
X165757734Y-93252993D01*
X165772054Y-93225937D01*
X166138053Y-92627817D01*
X166571257Y-92073839D01*
X167083919Y-91549381D01*
X167432720Y-91244480D01*
X167897680Y-90890060D01*
X168364526Y-90601097D01*
X168852103Y-90369889D01*
X169379252Y-90188733D01*
X169964817Y-90049927D01*
X170601680Y-89949073D01*
X171077251Y-89895640D01*
X171480913Y-89869265D01*
X171836451Y-89870794D01*
G36*
X149134286Y-87666286D02*
X146957143Y-87666286D01*
X146957143Y-86577715D01*
X149134286Y-86577715D01*
X149134286Y-87666286D01*
X149134286Y-87666286D01*
G37*
X149134286Y-87666286D02*
X146957143Y-87666286D01*
X146957143Y-86577715D01*
X149134286Y-86577715D01*
X149134286Y-87666286D01*
G36*
X150222857Y-86577715D02*
X149170572Y-86577715D01*
X149170572Y-85489143D01*
X146957143Y-85489143D01*
X146957143Y-83312000D01*
X148045714Y-83312000D01*
X148045714Y-84400572D01*
X149170572Y-84400572D01*
X149170572Y-83312000D01*
X148045714Y-83312000D01*
X146957143Y-83312000D01*
X146957143Y-82223429D01*
X150222857Y-82223429D01*
X150222857Y-86577715D01*
X150222857Y-86577715D01*
G37*
X150222857Y-86577715D02*
X149170572Y-86577715D01*
X149170572Y-85489143D01*
X146957143Y-85489143D01*
X146957143Y-83312000D01*
X148045714Y-83312000D01*
X148045714Y-84400572D01*
X149170572Y-84400572D01*
X149170572Y-83312000D01*
X148045714Y-83312000D01*
X146957143Y-83312000D01*
X146957143Y-82223429D01*
X150222857Y-82223429D01*
X150222857Y-86577715D01*
G36*
X134946572Y-82223429D02*
X137123714Y-82223429D01*
X137123714Y-85489143D01*
X133858000Y-85489143D01*
X133858000Y-83312000D01*
X134946572Y-83312000D01*
X134946572Y-84400572D01*
X136035143Y-84400572D01*
X136035143Y-83312000D01*
X134946572Y-83312000D01*
X133858000Y-83312000D01*
X133858000Y-81134858D01*
X134946572Y-81134858D01*
X134946572Y-82223429D01*
X134946572Y-82223429D01*
G37*
X134946572Y-82223429D02*
X137123714Y-82223429D01*
X137123714Y-85489143D01*
X133858000Y-85489143D01*
X133858000Y-83312000D01*
X134946572Y-83312000D01*
X134946572Y-84400572D01*
X136035143Y-84400572D01*
X136035143Y-83312000D01*
X134946572Y-83312000D01*
X133858000Y-83312000D01*
X133858000Y-81134858D01*
X134946572Y-81134858D01*
X134946572Y-82223429D01*
G36*
X141478000Y-85489143D02*
X138212286Y-85489143D01*
X138212286Y-83312000D01*
X139300857Y-83312000D01*
X139300857Y-84400572D01*
X140425714Y-84400572D01*
X140425714Y-83312000D01*
X139300857Y-83312000D01*
X138212286Y-83312000D01*
X138212286Y-82223429D01*
X141478000Y-82223429D01*
X141478000Y-85489143D01*
X141478000Y-85489143D01*
G37*
X141478000Y-85489143D02*
X138212286Y-85489143D01*
X138212286Y-83312000D01*
X139300857Y-83312000D01*
X139300857Y-84400572D01*
X140425714Y-84400572D01*
X140425714Y-83312000D01*
X139300857Y-83312000D01*
X138212286Y-83312000D01*
X138212286Y-82223429D01*
X141478000Y-82223429D01*
X141478000Y-85489143D01*
G36*
X145868572Y-85489143D02*
X144780000Y-85489143D01*
X144780000Y-83312000D01*
X145868572Y-83312000D01*
X145868572Y-85489143D01*
X145868572Y-85489143D01*
G37*
X145868572Y-85489143D02*
X144780000Y-85489143D01*
X144780000Y-83312000D01*
X145868572Y-83312000D01*
X145868572Y-85489143D01*
G36*
X144780000Y-83312000D02*
X143655143Y-83312000D01*
X143655143Y-85489143D01*
X142602857Y-85489143D01*
X142602857Y-82223429D01*
X144780000Y-82223429D01*
X144780000Y-83312000D01*
X144780000Y-83312000D01*
G37*
X144780000Y-83312000D02*
X143655143Y-83312000D01*
X143655143Y-85489143D01*
X142602857Y-85489143D01*
X142602857Y-82223429D01*
X144780000Y-82223429D01*
X144780000Y-83312000D01*
G36*
X154613429Y-85489143D02*
X151347715Y-85489143D01*
X151347715Y-83312000D01*
X152400000Y-83312000D01*
X152400000Y-84400572D01*
X153524857Y-84400572D01*
X153524857Y-83312000D01*
X152400000Y-83312000D01*
X151347715Y-83312000D01*
X151347715Y-82223429D01*
X154613429Y-82223429D01*
X154613429Y-85489143D01*
X154613429Y-85489143D01*
G37*
X154613429Y-85489143D02*
X151347715Y-85489143D01*
X151347715Y-83312000D01*
X152400000Y-83312000D01*
X152400000Y-84400572D01*
X153524857Y-84400572D01*
X153524857Y-83312000D01*
X152400000Y-83312000D01*
X151347715Y-83312000D01*
X151347715Y-82223429D01*
X154613429Y-82223429D01*
X154613429Y-85489143D01*
G36*
X158967714Y-83312000D02*
X156790572Y-83312000D01*
X156790572Y-85489143D01*
X155702000Y-85489143D01*
X155702000Y-82223429D01*
X158967714Y-82223429D01*
X158967714Y-83312000D01*
X158967714Y-83312000D01*
G37*
X158967714Y-83312000D02*
X156790572Y-83312000D01*
X156790572Y-85489143D01*
X155702000Y-85489143D01*
X155702000Y-82223429D01*
X158967714Y-82223429D01*
X158967714Y-83312000D01*
G36*
X161144857Y-85489143D02*
X160092572Y-85489143D01*
X160092572Y-82223429D01*
X161144857Y-82223429D01*
X161144857Y-85489143D01*
X161144857Y-85489143D01*
G37*
X161144857Y-85489143D02*
X160092572Y-85489143D01*
X160092572Y-82223429D01*
X161144857Y-82223429D01*
X161144857Y-85489143D01*
G36*
X166624000Y-85489143D02*
X165535429Y-85489143D01*
X165535429Y-84400572D01*
X166624000Y-84400572D01*
X166624000Y-85489143D01*
X166624000Y-85489143D01*
G37*
X166624000Y-85489143D02*
X165535429Y-85489143D01*
X165535429Y-84400572D01*
X166624000Y-84400572D01*
X166624000Y-85489143D01*
G36*
X165535429Y-84400572D02*
X164446857Y-84400572D01*
X164446857Y-85489143D01*
X162269714Y-85489143D01*
X162269714Y-83312000D01*
X163358286Y-83312000D01*
X163358286Y-84400572D01*
X164446857Y-84400572D01*
X164446857Y-83312000D01*
X163358286Y-83312000D01*
X163358286Y-82223429D01*
X165535429Y-82223429D01*
X165535429Y-84400572D01*
X165535429Y-84400572D01*
G37*
X165535429Y-84400572D02*
X164446857Y-84400572D01*
X164446857Y-85489143D01*
X162269714Y-85489143D01*
X162269714Y-83312000D01*
X163358286Y-83312000D01*
X163358286Y-84400572D01*
X164446857Y-84400572D01*
X164446857Y-83312000D01*
X163358286Y-83312000D01*
X163358286Y-82223429D01*
X165535429Y-82223429D01*
X165535429Y-84400572D01*
G36*
X169889715Y-83312000D02*
X168801143Y-83312000D01*
X168801143Y-85489143D01*
X167748857Y-85489143D01*
X167748857Y-82223429D01*
X169889715Y-82223429D01*
X169889715Y-83312000D01*
X169889715Y-83312000D01*
G37*
X169889715Y-83312000D02*
X168801143Y-83312000D01*
X168801143Y-85489143D01*
X167748857Y-85489143D01*
X167748857Y-82223429D01*
X169889715Y-82223429D01*
X169889715Y-83312000D01*
G36*
X170978286Y-85489143D02*
X169926000Y-85489143D01*
X169926000Y-83312000D01*
X170978286Y-83312000D01*
X170978286Y-85489143D01*
X170978286Y-85489143D01*
G37*
X170978286Y-85489143D02*
X169926000Y-85489143D01*
X169926000Y-83312000D01*
X170978286Y-83312000D01*
X170978286Y-85489143D01*
G36*
X161144857Y-81098572D02*
X160092572Y-81098572D01*
X160092572Y-80046286D01*
X161144857Y-80046286D01*
X161144857Y-81098572D01*
X161144857Y-81098572D01*
G37*
X161144857Y-81098572D02*
X160092572Y-81098572D01*
X160092572Y-80046286D01*
X161144857Y-80046286D01*
X161144857Y-81098572D01*
D14*
X105283809Y-109489762D02*
X105283809Y-107489762D01*
X106045714Y-107489762D01*
X106236190Y-107585000D01*
X106331429Y-107680238D01*
X106426667Y-107870714D01*
X106426667Y-108156429D01*
X106331429Y-108346905D01*
X106236190Y-108442143D01*
X106045714Y-108537381D01*
X105283809Y-108537381D01*
X108426667Y-109489762D02*
X107760000Y-108537381D01*
X107283809Y-109489762D02*
X107283809Y-107489762D01*
X108045714Y-107489762D01*
X108236190Y-107585000D01*
X108331429Y-107680238D01*
X108426667Y-107870714D01*
X108426667Y-108156429D01*
X108331429Y-108346905D01*
X108236190Y-108442143D01*
X108045714Y-108537381D01*
X107283809Y-108537381D01*
X110331429Y-107585000D02*
X110140952Y-107489762D01*
X109855238Y-107489762D01*
X109569524Y-107585000D01*
X109379048Y-107775476D01*
X109283809Y-107965952D01*
X109188571Y-108346905D01*
X109188571Y-108632619D01*
X109283809Y-109013571D01*
X109379048Y-109204048D01*
X109569524Y-109394524D01*
X109855238Y-109489762D01*
X110045714Y-109489762D01*
X110331429Y-109394524D01*
X110426667Y-109299286D01*
X110426667Y-108632619D01*
X110045714Y-108632619D01*
X113950477Y-109489762D02*
X113283810Y-108537381D01*
X112807619Y-109489762D02*
X112807619Y-107489762D01*
X113569524Y-107489762D01*
X113760000Y-107585000D01*
X113855239Y-107680238D01*
X113950477Y-107870714D01*
X113950477Y-108156429D01*
X113855239Y-108346905D01*
X113760000Y-108442143D01*
X113569524Y-108537381D01*
X112807619Y-108537381D01*
X115188572Y-107489762D02*
X115569524Y-107489762D01*
X115760000Y-107585000D01*
X115950477Y-107775476D01*
X116045715Y-108156429D01*
X116045715Y-108823095D01*
X115950477Y-109204048D01*
X115760000Y-109394524D01*
X115569524Y-109489762D01*
X115188572Y-109489762D01*
X114998096Y-109394524D01*
X114807619Y-109204048D01*
X114712381Y-108823095D01*
X114712381Y-108156429D01*
X114807619Y-107775476D01*
X114998096Y-107585000D01*
X115188572Y-107489762D01*
X116902857Y-109489762D02*
X116902857Y-107489762D01*
X117569524Y-108918333D01*
X118236191Y-107489762D01*
X118236191Y-109489762D01*
X147019048Y-109299286D02*
X146923810Y-109394524D01*
X146638095Y-109489762D01*
X146447619Y-109489762D01*
X146161905Y-109394524D01*
X145971429Y-109204048D01*
X145876190Y-109013571D01*
X145780952Y-108632619D01*
X145780952Y-108346905D01*
X145876190Y-107965952D01*
X145971429Y-107775476D01*
X146161905Y-107585000D01*
X146447619Y-107489762D01*
X146638095Y-107489762D01*
X146923810Y-107585000D01*
X147019048Y-107680238D01*
X147876190Y-109489762D02*
X147876190Y-107489762D01*
X147876190Y-108442143D02*
X149019048Y-108442143D01*
X149019048Y-109489762D02*
X149019048Y-107489762D01*
X151114286Y-109489762D02*
X150447619Y-108537381D01*
X149971428Y-109489762D02*
X149971428Y-107489762D01*
X150733333Y-107489762D01*
X150923809Y-107585000D01*
X151019048Y-107680238D01*
X151114286Y-107870714D01*
X151114286Y-108156429D01*
X151019048Y-108346905D01*
X150923809Y-108442143D01*
X150733333Y-108537381D01*
X149971428Y-108537381D01*
X154638096Y-109489762D02*
X153971429Y-108537381D01*
X153495238Y-109489762D02*
X153495238Y-107489762D01*
X154257143Y-107489762D01*
X154447619Y-107585000D01*
X154542858Y-107680238D01*
X154638096Y-107870714D01*
X154638096Y-108156429D01*
X154542858Y-108346905D01*
X154447619Y-108442143D01*
X154257143Y-108537381D01*
X153495238Y-108537381D01*
X155876191Y-107489762D02*
X156257143Y-107489762D01*
X156447619Y-107585000D01*
X156638096Y-107775476D01*
X156733334Y-108156429D01*
X156733334Y-108823095D01*
X156638096Y-109204048D01*
X156447619Y-109394524D01*
X156257143Y-109489762D01*
X155876191Y-109489762D01*
X155685715Y-109394524D01*
X155495238Y-109204048D01*
X155400000Y-108823095D01*
X155400000Y-108156429D01*
X155495238Y-107775476D01*
X155685715Y-107585000D01*
X155876191Y-107489762D01*
X157590476Y-109489762D02*
X157590476Y-107489762D01*
X158257143Y-108918333D01*
X158923810Y-107489762D01*
X158923810Y-109489762D01*
D10*
X148471428Y-74112381D02*
X148471428Y-73112381D01*
X148709523Y-73112381D01*
X148852381Y-73160000D01*
X148947619Y-73255238D01*
X148995238Y-73350476D01*
X149042857Y-73540952D01*
X149042857Y-73683810D01*
X148995238Y-73874286D01*
X148947619Y-73969524D01*
X148852381Y-74064762D01*
X148709523Y-74112381D01*
X148471428Y-74112381D01*
X149471428Y-73588571D02*
X149804762Y-73588571D01*
X149947619Y-74112381D02*
X149471428Y-74112381D01*
X149471428Y-73112381D01*
X149947619Y-73112381D01*
X150709524Y-73588571D02*
X150852381Y-73636190D01*
X150900000Y-73683810D01*
X150947619Y-73779048D01*
X150947619Y-73921905D01*
X150900000Y-74017143D01*
X150852381Y-74064762D01*
X150757143Y-74112381D01*
X150376190Y-74112381D01*
X150376190Y-73112381D01*
X150709524Y-73112381D01*
X150804762Y-73160000D01*
X150852381Y-73207619D01*
X150900000Y-73302857D01*
X150900000Y-73398095D01*
X150852381Y-73493333D01*
X150804762Y-73540952D01*
X150709524Y-73588571D01*
X150376190Y-73588571D01*
X151376190Y-73112381D02*
X151376190Y-73921905D01*
X151423809Y-74017143D01*
X151471428Y-74064762D01*
X151566666Y-74112381D01*
X151757143Y-74112381D01*
X151852381Y-74064762D01*
X151900000Y-74017143D01*
X151947619Y-73921905D01*
X151947619Y-73112381D01*
X152947619Y-73160000D02*
X152852381Y-73112381D01*
X152709524Y-73112381D01*
X152566666Y-73160000D01*
X152471428Y-73255238D01*
X152423809Y-73350476D01*
X152376190Y-73540952D01*
X152376190Y-73683810D01*
X152423809Y-73874286D01*
X152471428Y-73969524D01*
X152566666Y-74064762D01*
X152709524Y-74112381D01*
X152804762Y-74112381D01*
X152947619Y-74064762D01*
X152995238Y-74017143D01*
X152995238Y-73683810D01*
X152804762Y-73683810D01*
X153185714Y-74207619D02*
X153947619Y-74207619D01*
X154185714Y-73588571D02*
X154519048Y-73588571D01*
X154661905Y-74112381D02*
X154185714Y-74112381D01*
X154185714Y-73112381D01*
X154661905Y-73112381D01*
X154995238Y-73112381D02*
X155661905Y-74112381D01*
X155661905Y-73112381D02*
X154995238Y-74112381D01*
X155900000Y-73112381D02*
X156471429Y-73112381D01*
X156185714Y-74112381D02*
X156185714Y-73112381D01*
D15*
X94940967Y-110596438D02*
X94757119Y-110596438D01*
X94665195Y-110642400D01*
X94619233Y-110688362D01*
X94527310Y-110826248D01*
X94481348Y-111010095D01*
X94481348Y-111377790D01*
X94527310Y-111469714D01*
X94573271Y-111515676D01*
X94665195Y-111561638D01*
X94849043Y-111561638D01*
X94940967Y-111515676D01*
X94986929Y-111469714D01*
X95032890Y-111377790D01*
X95032890Y-111147981D01*
X94986929Y-111056057D01*
X94940967Y-111010095D01*
X94849043Y-110964133D01*
X94665195Y-110964133D01*
X94573271Y-111010095D01*
X94527310Y-111056057D01*
X94481348Y-111147981D01*
X95630395Y-110596438D02*
X95722319Y-110596438D01*
X95814243Y-110642400D01*
X95860205Y-110688362D01*
X95906167Y-110780286D01*
X95952128Y-110964133D01*
X95952128Y-111193943D01*
X95906167Y-111377790D01*
X95860205Y-111469714D01*
X95814243Y-111515676D01*
X95722319Y-111561638D01*
X95630395Y-111561638D01*
X95538471Y-111515676D01*
X95492509Y-111469714D01*
X95446548Y-111377790D01*
X95400586Y-111193943D01*
X95400586Y-110964133D01*
X95446548Y-110780286D01*
X95492509Y-110688362D01*
X95538471Y-110642400D01*
X95630395Y-110596438D01*
D16*
D15*
X107858229Y-110539038D02*
X107398610Y-110539038D01*
X107352648Y-110998657D01*
X107398610Y-110952695D01*
X107490533Y-110906733D01*
X107720343Y-110906733D01*
X107812267Y-110952695D01*
X107858229Y-110998657D01*
X107904190Y-111090581D01*
X107904190Y-111320390D01*
X107858229Y-111412314D01*
X107812267Y-111458276D01*
X107720343Y-111504238D01*
X107490533Y-111504238D01*
X107398610Y-111458276D01*
X107352648Y-111412314D01*
X108777467Y-110539038D02*
X108317848Y-110539038D01*
X108271886Y-110998657D01*
X108317848Y-110952695D01*
X108409771Y-110906733D01*
X108639581Y-110906733D01*
X108731505Y-110952695D01*
X108777467Y-110998657D01*
X108823428Y-111090581D01*
X108823428Y-111320390D01*
X108777467Y-111412314D01*
X108731505Y-111458276D01*
X108639581Y-111504238D01*
X108409771Y-111504238D01*
X108317848Y-111458276D01*
X108271886Y-111412314D01*
X120451791Y-110589838D02*
X119992172Y-110589838D01*
X119946210Y-111049457D01*
X119992172Y-111003495D01*
X120084095Y-110957533D01*
X120313905Y-110957533D01*
X120405829Y-111003495D01*
X120451791Y-111049457D01*
X120497752Y-111141381D01*
X120497752Y-111371190D01*
X120451791Y-111463114D01*
X120405829Y-111509076D01*
X120313905Y-111555038D01*
X120084095Y-111555038D01*
X119992172Y-111509076D01*
X119946210Y-111463114D01*
X121095257Y-110589838D02*
X121187181Y-110589838D01*
X121279105Y-110635800D01*
X121325067Y-110681762D01*
X121371029Y-110773686D01*
X121416990Y-110957533D01*
X121416990Y-111187343D01*
X121371029Y-111371190D01*
X121325067Y-111463114D01*
X121279105Y-111509076D01*
X121187181Y-111555038D01*
X121095257Y-111555038D01*
X121003333Y-111509076D01*
X120957371Y-111463114D01*
X120911410Y-111371190D01*
X120865448Y-111187343D01*
X120865448Y-110957533D01*
X120911410Y-110773686D01*
X120957371Y-110681762D01*
X121003333Y-110635800D01*
X121095257Y-110589838D01*
X133131229Y-110873471D02*
X133131229Y-111516938D01*
X132901419Y-110505776D02*
X132671610Y-111195205D01*
X133269114Y-111195205D01*
X134096429Y-110551738D02*
X133636810Y-110551738D01*
X133590848Y-111011357D01*
X133636810Y-110965395D01*
X133728733Y-110919433D01*
X133958543Y-110919433D01*
X134050467Y-110965395D01*
X134096429Y-111011357D01*
X134142390Y-111103281D01*
X134142390Y-111333090D01*
X134096429Y-111425014D01*
X134050467Y-111470976D01*
X133958543Y-111516938D01*
X133728733Y-111516938D01*
X133636810Y-111470976D01*
X133590848Y-111425014D01*
X145755029Y-110911571D02*
X145755029Y-111555038D01*
X145525219Y-110543876D02*
X145295410Y-111233305D01*
X145892914Y-111233305D01*
X146444457Y-110589838D02*
X146536381Y-110589838D01*
X146628305Y-110635800D01*
X146674267Y-110681762D01*
X146720229Y-110773686D01*
X146766190Y-110957533D01*
X146766190Y-111187343D01*
X146720229Y-111371190D01*
X146674267Y-111463114D01*
X146628305Y-111509076D01*
X146536381Y-111555038D01*
X146444457Y-111555038D01*
X146352533Y-111509076D01*
X146306571Y-111463114D01*
X146260610Y-111371190D01*
X146214648Y-111187343D01*
X146214648Y-110957533D01*
X146260610Y-110773686D01*
X146306571Y-110681762D01*
X146352533Y-110635800D01*
X146444457Y-110589838D01*
X157962148Y-110577138D02*
X158559652Y-110577138D01*
X158237919Y-110944833D01*
X158375805Y-110944833D01*
X158467729Y-110990795D01*
X158513691Y-111036757D01*
X158559652Y-111128681D01*
X158559652Y-111358490D01*
X158513691Y-111450414D01*
X158467729Y-111496376D01*
X158375805Y-111542338D01*
X158100033Y-111542338D01*
X158008110Y-111496376D01*
X157962148Y-111450414D01*
X159432929Y-110577138D02*
X158973310Y-110577138D01*
X158927348Y-111036757D01*
X158973310Y-110990795D01*
X159065233Y-110944833D01*
X159295043Y-110944833D01*
X159386967Y-110990795D01*
X159432929Y-111036757D01*
X159478890Y-111128681D01*
X159478890Y-111358490D01*
X159432929Y-111450414D01*
X159386967Y-111496376D01*
X159295043Y-111542338D01*
X159065233Y-111542338D01*
X158973310Y-111496376D01*
X158927348Y-111450414D01*
X168128648Y-110596438D02*
X168726152Y-110596438D01*
X168404419Y-110964133D01*
X168542305Y-110964133D01*
X168634229Y-111010095D01*
X168680191Y-111056057D01*
X168726152Y-111147981D01*
X168726152Y-111377790D01*
X168680191Y-111469714D01*
X168634229Y-111515676D01*
X168542305Y-111561638D01*
X168266533Y-111561638D01*
X168174610Y-111515676D01*
X168128648Y-111469714D01*
X169645390Y-111561638D02*
X169093848Y-111561638D01*
X169369619Y-111561638D02*
X169369619Y-110596438D01*
X169277695Y-110734324D01*
X169185771Y-110826248D01*
X169093848Y-110872210D01*
D10*
X130841905Y-77497381D02*
X130841905Y-76497381D01*
X130841905Y-76973571D02*
X131413334Y-76973571D01*
X131413334Y-77497381D02*
X131413334Y-76497381D01*
X132603810Y-76449762D02*
X131746667Y-77735476D01*
X132794286Y-76497381D02*
X133127619Y-77497381D01*
X133460953Y-76497381D01*
X123721905Y-77922381D02*
X123721905Y-76922381D01*
X123960000Y-76922381D01*
X124102858Y-76970000D01*
X124198096Y-77065238D01*
X124245715Y-77160476D01*
X124293334Y-77350952D01*
X124293334Y-77493810D01*
X124245715Y-77684286D01*
X124198096Y-77779524D01*
X124102858Y-77874762D01*
X123960000Y-77922381D01*
X123721905Y-77922381D01*
X125245715Y-77922381D02*
X124674286Y-77922381D01*
X124960000Y-77922381D02*
X124960000Y-76922381D01*
X124864762Y-77065238D01*
X124769524Y-77160476D01*
X124674286Y-77208095D01*
X123721905Y-83002381D02*
X123721905Y-82002381D01*
X123960000Y-82002381D01*
X124102858Y-82050000D01*
X124198096Y-82145238D01*
X124245715Y-82240476D01*
X124293334Y-82430952D01*
X124293334Y-82573810D01*
X124245715Y-82764286D01*
X124198096Y-82859524D01*
X124102858Y-82954762D01*
X123960000Y-83002381D01*
X123721905Y-83002381D01*
X124674286Y-82097619D02*
X124721905Y-82050000D01*
X124817143Y-82002381D01*
X125055239Y-82002381D01*
X125150477Y-82050000D01*
X125198096Y-82097619D01*
X125245715Y-82192857D01*
X125245715Y-82288095D01*
X125198096Y-82430952D01*
X124626667Y-83002381D01*
X125245715Y-83002381D01*
X96489523Y-80462381D02*
X96489523Y-79462381D01*
X96822857Y-80176667D01*
X97156190Y-79462381D01*
X97156190Y-80462381D01*
X97632380Y-79938571D02*
X97965714Y-79938571D01*
X98108571Y-80462381D02*
X97632380Y-80462381D01*
X97632380Y-79462381D01*
X98108571Y-79462381D01*
X98537142Y-80462381D02*
X98537142Y-79462381D01*
X98870476Y-80176667D01*
X99203809Y-79462381D01*
X99203809Y-80462381D01*
X99870475Y-79462381D02*
X100060952Y-79462381D01*
X100156190Y-79510000D01*
X100251428Y-79605238D01*
X100299047Y-79795714D01*
X100299047Y-80129048D01*
X100251428Y-80319524D01*
X100156190Y-80414762D01*
X100060952Y-80462381D01*
X99870475Y-80462381D01*
X99775237Y-80414762D01*
X99679999Y-80319524D01*
X99632380Y-80129048D01*
X99632380Y-79795714D01*
X99679999Y-79605238D01*
X99775237Y-79510000D01*
X99870475Y-79462381D01*
X101299047Y-80462381D02*
X100965713Y-79986190D01*
X100727618Y-80462381D02*
X100727618Y-79462381D01*
X101108571Y-79462381D01*
X101203809Y-79510000D01*
X101251428Y-79557619D01*
X101299047Y-79652857D01*
X101299047Y-79795714D01*
X101251428Y-79890952D01*
X101203809Y-79938571D01*
X101108571Y-79986190D01*
X100727618Y-79986190D01*
X101918094Y-79986190D02*
X101918094Y-80462381D01*
X101584761Y-79462381D02*
X101918094Y-79986190D01*
X102251428Y-79462381D01*
X103346666Y-80462381D02*
X103346666Y-79462381D01*
X103680000Y-80176667D01*
X104013333Y-79462381D01*
X104013333Y-80462381D01*
X104441904Y-80176667D02*
X104918095Y-80176667D01*
X104346666Y-80462381D02*
X104679999Y-79462381D01*
X105013333Y-80462381D01*
X105346666Y-80462381D02*
X105346666Y-79462381D01*
X105727619Y-79462381D01*
X105822857Y-79510000D01*
X105870476Y-79557619D01*
X105918095Y-79652857D01*
X105918095Y-79795714D01*
X105870476Y-79890952D01*
X105822857Y-79938571D01*
X105727619Y-79986190D01*
X105346666Y-79986190D01*
X107680000Y-80367143D02*
X107632381Y-80414762D01*
X107489524Y-80462381D01*
X107394286Y-80462381D01*
X107251428Y-80414762D01*
X107156190Y-80319524D01*
X107108571Y-80224286D01*
X107060952Y-80033810D01*
X107060952Y-79890952D01*
X107108571Y-79700476D01*
X107156190Y-79605238D01*
X107251428Y-79510000D01*
X107394286Y-79462381D01*
X107489524Y-79462381D01*
X107632381Y-79510000D01*
X107680000Y-79557619D01*
X108299047Y-79462381D02*
X108489524Y-79462381D01*
X108584762Y-79510000D01*
X108680000Y-79605238D01*
X108727619Y-79795714D01*
X108727619Y-80129048D01*
X108680000Y-80319524D01*
X108584762Y-80414762D01*
X108489524Y-80462381D01*
X108299047Y-80462381D01*
X108203809Y-80414762D01*
X108108571Y-80319524D01*
X108060952Y-80129048D01*
X108060952Y-79795714D01*
X108108571Y-79605238D01*
X108203809Y-79510000D01*
X108299047Y-79462381D01*
X109156190Y-80462381D02*
X109156190Y-79462381D01*
X109727619Y-80462381D01*
X109727619Y-79462381D01*
X110060952Y-79462381D02*
X110632381Y-79462381D01*
X110346666Y-80462381D02*
X110346666Y-79462381D01*
X111537143Y-80462381D02*
X111203809Y-79986190D01*
X110965714Y-80462381D02*
X110965714Y-79462381D01*
X111346667Y-79462381D01*
X111441905Y-79510000D01*
X111489524Y-79557619D01*
X111537143Y-79652857D01*
X111537143Y-79795714D01*
X111489524Y-79890952D01*
X111441905Y-79938571D01*
X111346667Y-79986190D01*
X110965714Y-79986190D01*
X112156190Y-79462381D02*
X112346667Y-79462381D01*
X112441905Y-79510000D01*
X112537143Y-79605238D01*
X112584762Y-79795714D01*
X112584762Y-80129048D01*
X112537143Y-80319524D01*
X112441905Y-80414762D01*
X112346667Y-80462381D01*
X112156190Y-80462381D01*
X112060952Y-80414762D01*
X111965714Y-80319524D01*
X111918095Y-80129048D01*
X111918095Y-79795714D01*
X111965714Y-79605238D01*
X112060952Y-79510000D01*
X112156190Y-79462381D01*
X113489524Y-80462381D02*
X113013333Y-80462381D01*
X113013333Y-79462381D01*
X114299048Y-80462381D02*
X113822857Y-80462381D01*
X113822857Y-79462381D01*
X115108572Y-80462381D02*
X114632381Y-80462381D01*
X114632381Y-79462381D01*
X115441905Y-79938571D02*
X115775239Y-79938571D01*
X115918096Y-80462381D02*
X115441905Y-80462381D01*
X115441905Y-79462381D01*
X115918096Y-79462381D01*
X116918096Y-80462381D02*
X116584762Y-79986190D01*
X116346667Y-80462381D02*
X116346667Y-79462381D01*
X116727620Y-79462381D01*
X116822858Y-79510000D01*
X116870477Y-79557619D01*
X116918096Y-79652857D01*
X116918096Y-79795714D01*
X116870477Y-79890952D01*
X116822858Y-79938571D01*
X116727620Y-79986190D01*
X116346667Y-79986190D01*
M02*
