G04 #@! TF.FileFunction,Copper,L2,Bot,Signal*
%FSLAX46Y46*%
G04 Gerber Fmt 4.6, Leading zero omitted, Abs format (unit mm)*
G04 Created by KiCad (PCBNEW 4.0.7) date 05/30/18 10:11:05*
%MOMM*%
%LPD*%
G01*
G04 APERTURE LIST*
%ADD10C,0.150000*%
%ADD11R,1.676400X1.676400*%
%ADD12C,1.676400*%
%ADD13R,1.700000X1.700000*%
%ADD14O,1.700000X1.700000*%
%ADD15R,1.524000X7.112000*%
%ADD16R,1.000000X1.000000*%
%ADD17O,1.000000X1.000000*%
%ADD18R,1.600000X1.600000*%
%ADD19O,1.600000X1.600000*%
%ADD20R,1.600000X2.400000*%
%ADD21O,1.600000X2.400000*%
%ADD22C,0.600000*%
%ADD23C,0.500000*%
%ADD24C,0.250000*%
%ADD25C,0.254000*%
G04 APERTURE END LIST*
D10*
D11*
X95250000Y-105181400D03*
D12*
X97790000Y-105181400D03*
X100330000Y-105181400D03*
X102870000Y-105181400D03*
X105410000Y-105181400D03*
X107950000Y-105181400D03*
X110490000Y-105181400D03*
X113030000Y-105181400D03*
X115570000Y-105181400D03*
X118110000Y-105181400D03*
X120650000Y-105181400D03*
X123190000Y-105181400D03*
X125730000Y-105181400D03*
X128270000Y-105181400D03*
X128270000Y-90170000D03*
X125730000Y-90170000D03*
X123190000Y-90170000D03*
X120650000Y-90170000D03*
X118110000Y-90170000D03*
X115570000Y-90170000D03*
X113030000Y-90170000D03*
X110490000Y-90170000D03*
X107950000Y-90170000D03*
X105410000Y-90170000D03*
X102870000Y-90170000D03*
X100330000Y-90170000D03*
X97790000Y-90170000D03*
X95250000Y-90170000D03*
D11*
X135890000Y-105181400D03*
D12*
X138430000Y-105181400D03*
X140970000Y-105181400D03*
X143510000Y-105181400D03*
X146050000Y-105181400D03*
X148590000Y-105181400D03*
X151130000Y-105181400D03*
X153670000Y-105181400D03*
X156210000Y-105181400D03*
X158750000Y-105181400D03*
X161290000Y-105181400D03*
X163830000Y-105181400D03*
X166370000Y-105181400D03*
X168910000Y-105181400D03*
X168910000Y-90170000D03*
X166370000Y-90170000D03*
X163830000Y-90170000D03*
X161290000Y-90170000D03*
X158750000Y-90170000D03*
X156210000Y-90170000D03*
X153670000Y-90170000D03*
X151130000Y-90170000D03*
X148590000Y-90170000D03*
X146050000Y-90170000D03*
X143510000Y-90170000D03*
X140970000Y-90170000D03*
X138430000Y-90170000D03*
X135890000Y-90170000D03*
D13*
X158750000Y-73660000D03*
D14*
X161290000Y-73660000D03*
X163830000Y-73660000D03*
X166370000Y-73660000D03*
X168910000Y-73660000D03*
D15*
X168910000Y-115887500D03*
X166370000Y-115887500D03*
X163830000Y-115887500D03*
X161290000Y-115887500D03*
X158750000Y-115887500D03*
X156210000Y-115887500D03*
X153670000Y-115887500D03*
X151130000Y-115887500D03*
X148590000Y-115887500D03*
X146050000Y-115887500D03*
X143510000Y-115887500D03*
X140970000Y-115887500D03*
X138430000Y-115887500D03*
X135890000Y-115887500D03*
X133350000Y-115887500D03*
X130810000Y-115887500D03*
X128270000Y-115887500D03*
X125730000Y-115887500D03*
X123190000Y-115887500D03*
X120650000Y-115887500D03*
X118110000Y-115887500D03*
X115570000Y-115887500D03*
X113030000Y-115887500D03*
X110490000Y-115887500D03*
X107950000Y-115887500D03*
X105410000Y-115887500D03*
X102870000Y-115887500D03*
X100330000Y-115887500D03*
X97790000Y-115887500D03*
X95250000Y-115887500D03*
D16*
X132080000Y-78740000D03*
D17*
X132080000Y-80010000D03*
X132080000Y-81280000D03*
D18*
X120650000Y-77470000D03*
D19*
X128270000Y-77470000D03*
D18*
X120650000Y-82550000D03*
D19*
X128270000Y-82550000D03*
D20*
X97790000Y-83820000D03*
D21*
X115570000Y-76200000D03*
X100330000Y-83820000D03*
X113030000Y-76200000D03*
X102870000Y-83820000D03*
X110490000Y-76200000D03*
X105410000Y-83820000D03*
X107950000Y-76200000D03*
X107950000Y-83820000D03*
X105410000Y-76200000D03*
X110490000Y-83820000D03*
X102870000Y-76200000D03*
X113030000Y-83820000D03*
X100330000Y-76200000D03*
X115570000Y-83820000D03*
X97790000Y-76200000D03*
D22*
X125777300Y-110308700D03*
X114966100Y-92385600D03*
X109677300Y-103129200D03*
X105686300Y-93354600D03*
X103563100Y-111804100D03*
X104767000Y-109712700D03*
X155269100Y-103215500D03*
X168152300Y-110824600D03*
X170006500Y-101291800D03*
X129436800Y-112006200D03*
X132080000Y-113053000D03*
X132972200Y-105572600D03*
X136175100Y-110790800D03*
D23*
X97790000Y-76200000D02*
X97790000Y-83820000D01*
X97790000Y-83820000D02*
X97790000Y-85470300D01*
X135890000Y-90170000D02*
X135890000Y-105181400D01*
X95250000Y-88010300D02*
X95250000Y-90170000D01*
X97790000Y-85470300D02*
X95250000Y-88010300D01*
X95250000Y-115887500D02*
X95250000Y-111881200D01*
X95250000Y-90170000D02*
X95250000Y-105181400D01*
X95250000Y-105181400D02*
X95250000Y-111881200D01*
D24*
X100330000Y-107721400D02*
X100330000Y-115887500D01*
X97790000Y-105181400D02*
X100330000Y-107721400D01*
X125730000Y-115887500D02*
X125730000Y-112006200D01*
X120650000Y-96926600D02*
X120650000Y-105181400D01*
X126903800Y-90672800D02*
X120650000Y-96926600D01*
X126903800Y-89695800D02*
X126903800Y-90672800D01*
X125689500Y-88481500D02*
X126903800Y-89695800D01*
X122917200Y-88481500D02*
X125689500Y-88481500D01*
X116262800Y-81827100D02*
X122917200Y-88481500D01*
X107895200Y-81827100D02*
X116262800Y-81827100D01*
X106680000Y-83042300D02*
X107895200Y-81827100D01*
X106680000Y-84553700D02*
X106680000Y-83042300D01*
X105888400Y-85345300D02*
X106680000Y-84553700D01*
X102870000Y-85345300D02*
X105888400Y-85345300D01*
X102870000Y-83820000D02*
X102870000Y-85345300D01*
X125777300Y-111958900D02*
X125777300Y-110308700D01*
X125730000Y-112006200D02*
X125777300Y-111958900D01*
X105410000Y-83820000D02*
X105410000Y-82294700D01*
X123190000Y-115887500D02*
X123190000Y-112006200D01*
X125288900Y-103082500D02*
X123190000Y-105181400D01*
X126931000Y-104724600D02*
X125288900Y-103082500D01*
X126931000Y-108265200D02*
X126931000Y-104724600D01*
X123190000Y-112006200D02*
X126931000Y-108265200D01*
X106328000Y-81376700D02*
X105410000Y-82294700D01*
X116740100Y-81376700D02*
X106328000Y-81376700D01*
X119256700Y-83893300D02*
X116740100Y-81376700D01*
X123698100Y-83893300D02*
X119256700Y-83893300D01*
X129444600Y-89639800D02*
X123698100Y-83893300D01*
X129444600Y-98926800D02*
X129444600Y-89639800D01*
X125288900Y-103082500D02*
X129444600Y-98926800D01*
X120650000Y-110261400D02*
X125730000Y-105181400D01*
X120650000Y-115887500D02*
X120650000Y-110261400D01*
D23*
X115570000Y-83820000D02*
X115570000Y-90170000D01*
X115570000Y-91781700D02*
X114966100Y-92385600D01*
X115570000Y-90170000D02*
X115570000Y-91781700D01*
X168910000Y-101241700D02*
X168910000Y-105181400D01*
X170231500Y-99920200D02*
X168910000Y-101241700D01*
X170231500Y-76281800D02*
X170231500Y-99920200D01*
X168910000Y-74960300D02*
X170231500Y-76281800D01*
X168910000Y-73660000D02*
X168910000Y-74960300D01*
D24*
X121920000Y-96520000D02*
X128270000Y-90170000D01*
X121920000Y-105569700D02*
X121920000Y-96520000D01*
X118110000Y-109379700D02*
X121920000Y-105569700D01*
X118110000Y-115887500D02*
X118110000Y-109379700D01*
X115570000Y-110520800D02*
X115570000Y-115887500D01*
X119380000Y-106710800D02*
X115570000Y-110520800D01*
X119380000Y-96520000D02*
X119380000Y-106710800D01*
X125730000Y-90170000D02*
X119380000Y-96520000D01*
X123190000Y-89391200D02*
X123190000Y-90170000D01*
X116093500Y-82294700D02*
X123190000Y-89391200D01*
X110490000Y-82294700D02*
X116093500Y-82294700D01*
X110490000Y-83820000D02*
X110490000Y-82294700D01*
X116840000Y-96520000D02*
X123190000Y-90170000D01*
X116840000Y-107310700D02*
X116840000Y-96520000D01*
X113030000Y-111120700D02*
X116840000Y-107310700D01*
X113030000Y-115887500D02*
X113030000Y-111120700D01*
X114300000Y-96520000D02*
X120650000Y-90170000D01*
X114300000Y-106787600D02*
X114300000Y-96520000D01*
X110490000Y-110597600D02*
X114300000Y-106787600D01*
X110490000Y-115887500D02*
X110490000Y-110597600D01*
X111760000Y-96520000D02*
X118110000Y-90170000D01*
X111760000Y-106787600D02*
X111760000Y-96520000D01*
X107950000Y-110597600D02*
X111760000Y-106787600D01*
X107950000Y-115887500D02*
X107950000Y-110597600D01*
X109677300Y-93522700D02*
X113030000Y-90170000D01*
X109677300Y-103129200D02*
X109677300Y-93522700D01*
X100330000Y-83820000D02*
X100330000Y-82294700D01*
X128270000Y-115887500D02*
X128270000Y-112006200D01*
X129895000Y-110381200D02*
X128270000Y-112006200D01*
X129895000Y-89453300D02*
X129895000Y-110381200D01*
X120157400Y-79715700D02*
X129895000Y-89453300D01*
X117088300Y-79715700D02*
X120157400Y-79715700D01*
X114202400Y-76829800D02*
X117088300Y-79715700D01*
X114202400Y-75338800D02*
X114202400Y-76829800D01*
X113538300Y-74674700D02*
X114202400Y-75338800D01*
X109926800Y-74674700D02*
X113538300Y-74674700D01*
X109220000Y-75381500D02*
X109926800Y-74674700D01*
X109220000Y-76936500D02*
X109220000Y-75381500D01*
X103861800Y-82294700D02*
X109220000Y-76936500D01*
X100330000Y-82294700D02*
X103861800Y-82294700D01*
X107950000Y-91090900D02*
X107950000Y-90170000D01*
X105686300Y-93354600D02*
X107950000Y-91090900D01*
X106590300Y-108776900D02*
X103563100Y-111804100D01*
X106590300Y-102806800D02*
X106590300Y-108776900D01*
X105061000Y-101277500D02*
X106590300Y-102806800D01*
X105061000Y-90519000D02*
X105061000Y-101277500D01*
X105410000Y-90170000D02*
X105061000Y-90519000D01*
X104246400Y-109192100D02*
X104767000Y-109712700D01*
X104246400Y-91546400D02*
X104246400Y-109192100D01*
X102870000Y-90170000D02*
X104246400Y-91546400D01*
X101706400Y-91546400D02*
X100330000Y-90170000D01*
X101706400Y-110842600D02*
X101706400Y-91546400D01*
X102870000Y-112006200D02*
X101706400Y-110842600D01*
X102870000Y-115887500D02*
X102870000Y-112006200D01*
X98994500Y-88965500D02*
X97790000Y-90170000D01*
X108400300Y-88965500D02*
X98994500Y-88965500D01*
X109132600Y-89697800D02*
X108400300Y-88965500D01*
X109132600Y-90864000D02*
X109132600Y-89697800D01*
X109045300Y-90951300D02*
X109132600Y-90864000D01*
X109045300Y-104011200D02*
X109045300Y-90951300D01*
X109135900Y-104101800D02*
X109045300Y-104011200D01*
X109135900Y-108280300D02*
X109135900Y-104101800D01*
X105410000Y-112006200D02*
X109135900Y-108280300D01*
X105410000Y-115887500D02*
X105410000Y-112006200D01*
X155046400Y-103438200D02*
X155269100Y-103215500D01*
X155046400Y-110842600D02*
X155046400Y-103438200D01*
X156210000Y-112006200D02*
X155046400Y-110842600D01*
X156210000Y-115887500D02*
X156210000Y-112006200D01*
X137105600Y-103857000D02*
X138430000Y-105181400D01*
X137105500Y-103857000D02*
X137105600Y-103857000D01*
X137105500Y-82291600D02*
X137105500Y-103857000D01*
X132283900Y-77470000D02*
X137105500Y-82291600D01*
X128270000Y-77470000D02*
X132283900Y-77470000D01*
X143510000Y-107721400D02*
X140970000Y-105181400D01*
X143510000Y-115887500D02*
X143510000Y-107721400D01*
X170095500Y-101380800D02*
X170006500Y-101291800D01*
X170095500Y-108881400D02*
X170095500Y-101380800D01*
X168152300Y-110824600D02*
X170095500Y-108881400D01*
X168910000Y-115887500D02*
X168910000Y-112006200D01*
X168449600Y-112006200D02*
X168910000Y-112006200D01*
X167527000Y-111083600D02*
X168449600Y-112006200D01*
X167527000Y-110565600D02*
X167527000Y-111083600D01*
X167583500Y-110509100D02*
X167527000Y-110565600D01*
X167583500Y-91383500D02*
X167583500Y-110509100D01*
X166370000Y-90170000D02*
X167583500Y-91383500D01*
X165206400Y-91546400D02*
X163830000Y-90170000D01*
X165206400Y-110842600D02*
X165206400Y-91546400D01*
X166370000Y-112006200D02*
X165206400Y-110842600D01*
X166370000Y-115887500D02*
X166370000Y-112006200D01*
X162666400Y-91546400D02*
X161290000Y-90170000D01*
X162666400Y-110842600D02*
X162666400Y-91546400D01*
X163830000Y-112006200D02*
X162666400Y-110842600D01*
X163830000Y-115887500D02*
X163830000Y-112006200D01*
X160020000Y-91440000D02*
X158750000Y-90170000D01*
X160020000Y-110736200D02*
X160020000Y-91440000D01*
X161290000Y-112006200D02*
X160020000Y-110736200D01*
X161290000Y-115887500D02*
X161290000Y-112006200D01*
X157480000Y-91440000D02*
X156210000Y-90170000D01*
X157480000Y-110736200D02*
X157480000Y-91440000D01*
X158750000Y-112006200D02*
X157480000Y-110736200D01*
X158750000Y-115887500D02*
X158750000Y-112006200D01*
X149768600Y-110644800D02*
X151130000Y-112006200D01*
X149768600Y-94552600D02*
X149768600Y-110644800D01*
X147426400Y-92210400D02*
X149768600Y-94552600D01*
X147426400Y-89669700D02*
X147426400Y-92210400D01*
X148102300Y-88993800D02*
X147426400Y-89669700D01*
X152493800Y-88993800D02*
X148102300Y-88993800D01*
X153670000Y-90170000D02*
X152493800Y-88993800D01*
X151130000Y-115887500D02*
X151130000Y-112006200D01*
X152400000Y-110736200D02*
X153670000Y-112006200D01*
X152400000Y-93980000D02*
X152400000Y-110736200D01*
X148590000Y-90170000D02*
X152400000Y-93980000D01*
X153670000Y-115887500D02*
X153670000Y-112006200D01*
X146050000Y-92073100D02*
X146050000Y-90170000D01*
X147320000Y-93343100D02*
X146050000Y-92073100D01*
X147320000Y-110736200D02*
X147320000Y-93343100D01*
X148590000Y-112006200D02*
X147320000Y-110736200D01*
X148590000Y-115887500D02*
X148590000Y-112006200D01*
X144780000Y-91440000D02*
X143510000Y-90170000D01*
X144780000Y-110736200D02*
X144780000Y-91440000D01*
X146050000Y-112006200D02*
X144780000Y-110736200D01*
X146050000Y-115887500D02*
X146050000Y-112006200D01*
X140970000Y-85519200D02*
X140970000Y-90170000D01*
X129197400Y-73746600D02*
X140970000Y-85519200D01*
X103798100Y-73746600D02*
X129197400Y-73746600D01*
X102870000Y-74674700D02*
X103798100Y-73746600D01*
X102870000Y-76200000D02*
X102870000Y-74674700D01*
X97790000Y-115887500D02*
X97790000Y-112006200D01*
X158750000Y-73660000D02*
X157574700Y-73660000D01*
X96599400Y-110815600D02*
X97790000Y-112006200D01*
X96599400Y-89198300D02*
X96599400Y-110815600D01*
X98915400Y-86882300D02*
X96599400Y-89198300D01*
X98915400Y-81286900D02*
X98915400Y-86882300D01*
X101455400Y-78746900D02*
X98915400Y-81286900D01*
X101455400Y-75452400D02*
X101455400Y-78746900D01*
X103611600Y-73296200D02*
X101455400Y-75452400D01*
X157210900Y-73296200D02*
X103611600Y-73296200D01*
X157574700Y-73660000D02*
X157210900Y-73296200D01*
X160114700Y-74468100D02*
X160114700Y-73660000D01*
X159747500Y-74835300D02*
X160114700Y-74468100D01*
X157190300Y-74835300D02*
X159747500Y-74835300D01*
X142240000Y-89785600D02*
X157190300Y-74835300D01*
X142240000Y-101241800D02*
X142240000Y-89785600D01*
X139622300Y-103859500D02*
X142240000Y-101241800D01*
X139622300Y-108273900D02*
X139622300Y-103859500D01*
X135890000Y-112006200D02*
X139622300Y-108273900D01*
X135890000Y-115887500D02*
X135890000Y-112006200D01*
X161290000Y-73660000D02*
X160114700Y-73660000D01*
X130397500Y-111045500D02*
X129436800Y-112006200D01*
X130397500Y-89318900D02*
X130397500Y-111045500D01*
X117278600Y-76200000D02*
X130397500Y-89318900D01*
X115570000Y-76200000D02*
X117278600Y-76200000D01*
X132080000Y-106464800D02*
X132972200Y-105572600D01*
X132080000Y-113053000D02*
X132080000Y-106464800D01*
X138430000Y-112006200D02*
X140970000Y-112006200D01*
X138430000Y-115887500D02*
X138430000Y-112006200D01*
X140970000Y-115887500D02*
X140970000Y-112006200D01*
X130810000Y-115887500D02*
X133350000Y-115887500D01*
X134236600Y-108852300D02*
X136175100Y-110790800D01*
X134236600Y-82166600D02*
X134236600Y-108852300D01*
X132080000Y-80010000D02*
X134236600Y-82166600D01*
X120650000Y-77470000D02*
X119524700Y-77470000D01*
X107950000Y-76200000D02*
X107950000Y-74674700D01*
X108400300Y-74224400D02*
X107950000Y-74674700D01*
X116279100Y-74224400D02*
X108400300Y-74224400D01*
X119524700Y-77470000D02*
X116279100Y-74224400D01*
X117140800Y-80166100D02*
X119524700Y-82550000D01*
X112930800Y-80166100D02*
X117140800Y-80166100D01*
X110490000Y-77725300D02*
X112930800Y-80166100D01*
X110490000Y-76200000D02*
X110490000Y-77725300D01*
X120650000Y-82550000D02*
X119524700Y-82550000D01*
D25*
G36*
X176229100Y-84149100D02*
X172491100Y-84149100D01*
X172199495Y-84207104D01*
X171952285Y-84372285D01*
X171787104Y-84619495D01*
X171729100Y-84911100D01*
X171729100Y-86911100D01*
X171787104Y-87202705D01*
X171952285Y-87449915D01*
X172199495Y-87615096D01*
X172491100Y-87673100D01*
X176229100Y-87673100D01*
X176229100Y-109149100D01*
X170991100Y-109149100D01*
X170785826Y-109189932D01*
X170797648Y-109172239D01*
X170855500Y-108881400D01*
X170855500Y-101685319D01*
X170941338Y-101478599D01*
X170941662Y-101106633D01*
X170799617Y-100762857D01*
X170536827Y-100499608D01*
X170193299Y-100356962D01*
X169821333Y-100356638D01*
X169477557Y-100498683D01*
X169214308Y-100761473D01*
X169071662Y-101105001D01*
X169071338Y-101476967D01*
X169213383Y-101820743D01*
X169335500Y-101943073D01*
X169335500Y-103768676D01*
X169135903Y-103696423D01*
X168550431Y-103723011D01*
X168343500Y-103808725D01*
X168343500Y-91529926D01*
X168615677Y-91642944D01*
X169201752Y-91643455D01*
X169743411Y-91419647D01*
X170158190Y-91005591D01*
X170382944Y-90464323D01*
X170383455Y-89878248D01*
X170159647Y-89336589D01*
X169745591Y-88921810D01*
X169204323Y-88697056D01*
X168618248Y-88696545D01*
X168076589Y-88920353D01*
X167661810Y-89334409D01*
X167640225Y-89386392D01*
X167619647Y-89336589D01*
X167205591Y-88921810D01*
X166664323Y-88697056D01*
X166078248Y-88696545D01*
X165536589Y-88920353D01*
X165121810Y-89334409D01*
X165100225Y-89386392D01*
X165079647Y-89336589D01*
X164665591Y-88921810D01*
X164124323Y-88697056D01*
X163538248Y-88696545D01*
X162996589Y-88920353D01*
X162581810Y-89334409D01*
X162560225Y-89386392D01*
X162539647Y-89336589D01*
X162125591Y-88921810D01*
X161584323Y-88697056D01*
X160998248Y-88696545D01*
X160456589Y-88920353D01*
X160041810Y-89334409D01*
X160020225Y-89386392D01*
X159999647Y-89336589D01*
X159585591Y-88921810D01*
X159044323Y-88697056D01*
X158458248Y-88696545D01*
X157916589Y-88920353D01*
X157501810Y-89334409D01*
X157480225Y-89386392D01*
X157459647Y-89336589D01*
X157045591Y-88921810D01*
X156504323Y-88697056D01*
X155918248Y-88696545D01*
X155376589Y-88920353D01*
X154961810Y-89334409D01*
X154940225Y-89386392D01*
X154919647Y-89336589D01*
X154505591Y-88921810D01*
X153964323Y-88697056D01*
X153378248Y-88696545D01*
X153302603Y-88727801D01*
X153031201Y-88456399D01*
X152784639Y-88291652D01*
X152493800Y-88233800D01*
X148102300Y-88233800D01*
X147811461Y-88291652D01*
X147564899Y-88456399D01*
X146992446Y-89028852D01*
X146885591Y-88921810D01*
X146344323Y-88697056D01*
X145758248Y-88696545D01*
X145216589Y-88920353D01*
X144801810Y-89334409D01*
X144780225Y-89386392D01*
X144759647Y-89336589D01*
X144345591Y-88921810D01*
X144227590Y-88872812D01*
X157505102Y-75595300D01*
X159747500Y-75595300D01*
X160038339Y-75537448D01*
X160284901Y-75372701D01*
X160646683Y-75010919D01*
X160721715Y-75061054D01*
X161290000Y-75174093D01*
X161858285Y-75061054D01*
X162340054Y-74739147D01*
X162560000Y-74409974D01*
X162779946Y-74739147D01*
X163261715Y-75061054D01*
X163830000Y-75174093D01*
X164398285Y-75061054D01*
X164880054Y-74739147D01*
X165100000Y-74409974D01*
X165319946Y-74739147D01*
X165801715Y-75061054D01*
X166370000Y-75174093D01*
X166938285Y-75061054D01*
X167420054Y-74739147D01*
X167647702Y-74398447D01*
X167714817Y-74541358D01*
X168143076Y-74931645D01*
X168553110Y-75101476D01*
X168783000Y-74980155D01*
X168783000Y-73787000D01*
X169037000Y-73787000D01*
X169037000Y-74980155D01*
X169266890Y-75101476D01*
X169676924Y-74931645D01*
X170105183Y-74541358D01*
X170351486Y-74016892D01*
X170230819Y-73787000D01*
X169037000Y-73787000D01*
X168783000Y-73787000D01*
X168763000Y-73787000D01*
X168763000Y-73533000D01*
X168783000Y-73533000D01*
X168783000Y-72339845D01*
X169037000Y-72339845D01*
X169037000Y-73533000D01*
X170230819Y-73533000D01*
X170351486Y-73303108D01*
X170105183Y-72778642D01*
X169676924Y-72388355D01*
X169266890Y-72218524D01*
X169037000Y-72339845D01*
X168783000Y-72339845D01*
X168553110Y-72218524D01*
X168143076Y-72388355D01*
X167714817Y-72778642D01*
X167647702Y-72921553D01*
X167420054Y-72580853D01*
X166938285Y-72258946D01*
X166370000Y-72145907D01*
X165801715Y-72258946D01*
X165319946Y-72580853D01*
X165100000Y-72910026D01*
X164880054Y-72580853D01*
X164398285Y-72258946D01*
X163830000Y-72145907D01*
X163261715Y-72258946D01*
X162779946Y-72580853D01*
X162560000Y-72910026D01*
X162340054Y-72580853D01*
X161858285Y-72258946D01*
X161290000Y-72145907D01*
X160721715Y-72258946D01*
X160239946Y-72580853D01*
X160212150Y-72622452D01*
X160203162Y-72574683D01*
X160064090Y-72358559D01*
X159851890Y-72213569D01*
X159600000Y-72162560D01*
X157900000Y-72162560D01*
X157664683Y-72206838D01*
X157448559Y-72345910D01*
X157305660Y-72555049D01*
X157210900Y-72536200D01*
X103611600Y-72536200D01*
X103320760Y-72594052D01*
X103074199Y-72758799D01*
X101188209Y-74644789D01*
X100879151Y-74438283D01*
X100330000Y-74329050D01*
X99780849Y-74438283D01*
X99315302Y-74749352D01*
X99060000Y-75131438D01*
X98804698Y-74749352D01*
X98339151Y-74438283D01*
X97790000Y-74329050D01*
X97240849Y-74438283D01*
X96775302Y-74749352D01*
X96464233Y-75214899D01*
X96355000Y-75764050D01*
X96355000Y-76635950D01*
X96464233Y-77185101D01*
X96775302Y-77650648D01*
X96905000Y-77737310D01*
X96905000Y-81988554D01*
X96754683Y-82016838D01*
X96538559Y-82155910D01*
X96393569Y-82368110D01*
X96342560Y-82620000D01*
X96342560Y-85020000D01*
X96386838Y-85255317D01*
X96525910Y-85471441D01*
X96532665Y-85476056D01*
X94624210Y-87384510D01*
X94432367Y-87671625D01*
X94432367Y-87671626D01*
X94364999Y-88010300D01*
X94365000Y-88010305D01*
X94365000Y-88971852D01*
X94001810Y-89334409D01*
X93777056Y-89875677D01*
X93776545Y-90461752D01*
X94000353Y-91003411D01*
X94365000Y-91368695D01*
X94365000Y-103704566D01*
X94176483Y-103740038D01*
X93960359Y-103879110D01*
X93815369Y-104091310D01*
X93764360Y-104343200D01*
X93764360Y-106019600D01*
X93808638Y-106254917D01*
X93947710Y-106471041D01*
X94159910Y-106616031D01*
X94365000Y-106657563D01*
X94365000Y-111707204D01*
X94252683Y-111728338D01*
X94036559Y-111867410D01*
X93891569Y-112079610D01*
X93840560Y-112331500D01*
X93840560Y-119358297D01*
X93793993Y-119288604D01*
X93753100Y-119083022D01*
X93753100Y-109911100D01*
X93695096Y-109619495D01*
X93529915Y-109372285D01*
X93282705Y-109207104D01*
X92991100Y-109149100D01*
X87753100Y-109149100D01*
X87753100Y-87673100D01*
X91491100Y-87673100D01*
X91782705Y-87615096D01*
X92029915Y-87449915D01*
X92195096Y-87202705D01*
X92253100Y-86911100D01*
X92253100Y-84911100D01*
X92195096Y-84619495D01*
X92029915Y-84372285D01*
X91782705Y-84207104D01*
X91491100Y-84149100D01*
X87753100Y-84149100D01*
X87753100Y-71443100D01*
X176229100Y-71443100D01*
X176229100Y-84149100D01*
X176229100Y-84149100D01*
G37*
X176229100Y-84149100D02*
X172491100Y-84149100D01*
X172199495Y-84207104D01*
X171952285Y-84372285D01*
X171787104Y-84619495D01*
X171729100Y-84911100D01*
X171729100Y-86911100D01*
X171787104Y-87202705D01*
X171952285Y-87449915D01*
X172199495Y-87615096D01*
X172491100Y-87673100D01*
X176229100Y-87673100D01*
X176229100Y-109149100D01*
X170991100Y-109149100D01*
X170785826Y-109189932D01*
X170797648Y-109172239D01*
X170855500Y-108881400D01*
X170855500Y-101685319D01*
X170941338Y-101478599D01*
X170941662Y-101106633D01*
X170799617Y-100762857D01*
X170536827Y-100499608D01*
X170193299Y-100356962D01*
X169821333Y-100356638D01*
X169477557Y-100498683D01*
X169214308Y-100761473D01*
X169071662Y-101105001D01*
X169071338Y-101476967D01*
X169213383Y-101820743D01*
X169335500Y-101943073D01*
X169335500Y-103768676D01*
X169135903Y-103696423D01*
X168550431Y-103723011D01*
X168343500Y-103808725D01*
X168343500Y-91529926D01*
X168615677Y-91642944D01*
X169201752Y-91643455D01*
X169743411Y-91419647D01*
X170158190Y-91005591D01*
X170382944Y-90464323D01*
X170383455Y-89878248D01*
X170159647Y-89336589D01*
X169745591Y-88921810D01*
X169204323Y-88697056D01*
X168618248Y-88696545D01*
X168076589Y-88920353D01*
X167661810Y-89334409D01*
X167640225Y-89386392D01*
X167619647Y-89336589D01*
X167205591Y-88921810D01*
X166664323Y-88697056D01*
X166078248Y-88696545D01*
X165536589Y-88920353D01*
X165121810Y-89334409D01*
X165100225Y-89386392D01*
X165079647Y-89336589D01*
X164665591Y-88921810D01*
X164124323Y-88697056D01*
X163538248Y-88696545D01*
X162996589Y-88920353D01*
X162581810Y-89334409D01*
X162560225Y-89386392D01*
X162539647Y-89336589D01*
X162125591Y-88921810D01*
X161584323Y-88697056D01*
X160998248Y-88696545D01*
X160456589Y-88920353D01*
X160041810Y-89334409D01*
X160020225Y-89386392D01*
X159999647Y-89336589D01*
X159585591Y-88921810D01*
X159044323Y-88697056D01*
X158458248Y-88696545D01*
X157916589Y-88920353D01*
X157501810Y-89334409D01*
X157480225Y-89386392D01*
X157459647Y-89336589D01*
X157045591Y-88921810D01*
X156504323Y-88697056D01*
X155918248Y-88696545D01*
X155376589Y-88920353D01*
X154961810Y-89334409D01*
X154940225Y-89386392D01*
X154919647Y-89336589D01*
X154505591Y-88921810D01*
X153964323Y-88697056D01*
X153378248Y-88696545D01*
X153302603Y-88727801D01*
X153031201Y-88456399D01*
X152784639Y-88291652D01*
X152493800Y-88233800D01*
X148102300Y-88233800D01*
X147811461Y-88291652D01*
X147564899Y-88456399D01*
X146992446Y-89028852D01*
X146885591Y-88921810D01*
X146344323Y-88697056D01*
X145758248Y-88696545D01*
X145216589Y-88920353D01*
X144801810Y-89334409D01*
X144780225Y-89386392D01*
X144759647Y-89336589D01*
X144345591Y-88921810D01*
X144227590Y-88872812D01*
X157505102Y-75595300D01*
X159747500Y-75595300D01*
X160038339Y-75537448D01*
X160284901Y-75372701D01*
X160646683Y-75010919D01*
X160721715Y-75061054D01*
X161290000Y-75174093D01*
X161858285Y-75061054D01*
X162340054Y-74739147D01*
X162560000Y-74409974D01*
X162779946Y-74739147D01*
X163261715Y-75061054D01*
X163830000Y-75174093D01*
X164398285Y-75061054D01*
X164880054Y-74739147D01*
X165100000Y-74409974D01*
X165319946Y-74739147D01*
X165801715Y-75061054D01*
X166370000Y-75174093D01*
X166938285Y-75061054D01*
X167420054Y-74739147D01*
X167647702Y-74398447D01*
X167714817Y-74541358D01*
X168143076Y-74931645D01*
X168553110Y-75101476D01*
X168783000Y-74980155D01*
X168783000Y-73787000D01*
X169037000Y-73787000D01*
X169037000Y-74980155D01*
X169266890Y-75101476D01*
X169676924Y-74931645D01*
X170105183Y-74541358D01*
X170351486Y-74016892D01*
X170230819Y-73787000D01*
X169037000Y-73787000D01*
X168783000Y-73787000D01*
X168763000Y-73787000D01*
X168763000Y-73533000D01*
X168783000Y-73533000D01*
X168783000Y-72339845D01*
X169037000Y-72339845D01*
X169037000Y-73533000D01*
X170230819Y-73533000D01*
X170351486Y-73303108D01*
X170105183Y-72778642D01*
X169676924Y-72388355D01*
X169266890Y-72218524D01*
X169037000Y-72339845D01*
X168783000Y-72339845D01*
X168553110Y-72218524D01*
X168143076Y-72388355D01*
X167714817Y-72778642D01*
X167647702Y-72921553D01*
X167420054Y-72580853D01*
X166938285Y-72258946D01*
X166370000Y-72145907D01*
X165801715Y-72258946D01*
X165319946Y-72580853D01*
X165100000Y-72910026D01*
X164880054Y-72580853D01*
X164398285Y-72258946D01*
X163830000Y-72145907D01*
X163261715Y-72258946D01*
X162779946Y-72580853D01*
X162560000Y-72910026D01*
X162340054Y-72580853D01*
X161858285Y-72258946D01*
X161290000Y-72145907D01*
X160721715Y-72258946D01*
X160239946Y-72580853D01*
X160212150Y-72622452D01*
X160203162Y-72574683D01*
X160064090Y-72358559D01*
X159851890Y-72213569D01*
X159600000Y-72162560D01*
X157900000Y-72162560D01*
X157664683Y-72206838D01*
X157448559Y-72345910D01*
X157305660Y-72555049D01*
X157210900Y-72536200D01*
X103611600Y-72536200D01*
X103320760Y-72594052D01*
X103074199Y-72758799D01*
X101188209Y-74644789D01*
X100879151Y-74438283D01*
X100330000Y-74329050D01*
X99780849Y-74438283D01*
X99315302Y-74749352D01*
X99060000Y-75131438D01*
X98804698Y-74749352D01*
X98339151Y-74438283D01*
X97790000Y-74329050D01*
X97240849Y-74438283D01*
X96775302Y-74749352D01*
X96464233Y-75214899D01*
X96355000Y-75764050D01*
X96355000Y-76635950D01*
X96464233Y-77185101D01*
X96775302Y-77650648D01*
X96905000Y-77737310D01*
X96905000Y-81988554D01*
X96754683Y-82016838D01*
X96538559Y-82155910D01*
X96393569Y-82368110D01*
X96342560Y-82620000D01*
X96342560Y-85020000D01*
X96386838Y-85255317D01*
X96525910Y-85471441D01*
X96532665Y-85476056D01*
X94624210Y-87384510D01*
X94432367Y-87671625D01*
X94432367Y-87671626D01*
X94364999Y-88010300D01*
X94365000Y-88010305D01*
X94365000Y-88971852D01*
X94001810Y-89334409D01*
X93777056Y-89875677D01*
X93776545Y-90461752D01*
X94000353Y-91003411D01*
X94365000Y-91368695D01*
X94365000Y-103704566D01*
X94176483Y-103740038D01*
X93960359Y-103879110D01*
X93815369Y-104091310D01*
X93764360Y-104343200D01*
X93764360Y-106019600D01*
X93808638Y-106254917D01*
X93947710Y-106471041D01*
X94159910Y-106616031D01*
X94365000Y-106657563D01*
X94365000Y-111707204D01*
X94252683Y-111728338D01*
X94036559Y-111867410D01*
X93891569Y-112079610D01*
X93840560Y-112331500D01*
X93840560Y-119358297D01*
X93793993Y-119288604D01*
X93753100Y-119083022D01*
X93753100Y-109911100D01*
X93695096Y-109619495D01*
X93529915Y-109372285D01*
X93282705Y-109207104D01*
X92991100Y-109149100D01*
X87753100Y-109149100D01*
X87753100Y-87673100D01*
X91491100Y-87673100D01*
X91782705Y-87615096D01*
X92029915Y-87449915D01*
X92195096Y-87202705D01*
X92253100Y-86911100D01*
X92253100Y-84911100D01*
X92195096Y-84619495D01*
X92029915Y-84372285D01*
X91782705Y-84207104D01*
X91491100Y-84149100D01*
X87753100Y-84149100D01*
X87753100Y-71443100D01*
X176229100Y-71443100D01*
X176229100Y-84149100D01*
G36*
X169103748Y-105167258D02*
X169089605Y-105181400D01*
X169103748Y-105195543D01*
X168924143Y-105375148D01*
X168910000Y-105361005D01*
X168895858Y-105375148D01*
X168716253Y-105195543D01*
X168730395Y-105181400D01*
X168716253Y-105167258D01*
X168895858Y-104987653D01*
X168910000Y-105001795D01*
X168924143Y-104987653D01*
X169103748Y-105167258D01*
X169103748Y-105167258D01*
G37*
X169103748Y-105167258D02*
X169089605Y-105181400D01*
X169103748Y-105195543D01*
X168924143Y-105375148D01*
X168910000Y-105361005D01*
X168895858Y-105375148D01*
X168716253Y-105195543D01*
X168730395Y-105181400D01*
X168716253Y-105167258D01*
X168895858Y-104987653D01*
X168910000Y-105001795D01*
X168924143Y-104987653D01*
X169103748Y-105167258D01*
G36*
X128463748Y-105167258D02*
X128449605Y-105181400D01*
X128463748Y-105195543D01*
X128284143Y-105375148D01*
X128270000Y-105361005D01*
X128255858Y-105375148D01*
X128076253Y-105195543D01*
X128090395Y-105181400D01*
X128076253Y-105167258D01*
X128255858Y-104987653D01*
X128270000Y-105001795D01*
X128284143Y-104987653D01*
X128463748Y-105167258D01*
X128463748Y-105167258D01*
G37*
X128463748Y-105167258D02*
X128449605Y-105181400D01*
X128463748Y-105195543D01*
X128284143Y-105375148D01*
X128270000Y-105361005D01*
X128255858Y-105375148D01*
X128076253Y-105195543D01*
X128090395Y-105181400D01*
X128076253Y-105167258D01*
X128255858Y-104987653D01*
X128270000Y-105001795D01*
X128284143Y-104987653D01*
X128463748Y-105167258D01*
G36*
X113157000Y-83693000D02*
X115443000Y-83693000D01*
X115443000Y-83673000D01*
X115697000Y-83673000D01*
X115697000Y-83693000D01*
X115717000Y-83693000D01*
X115717000Y-83947000D01*
X115697000Y-83947000D01*
X115697000Y-85489915D01*
X115919039Y-85611904D01*
X116001819Y-85594367D01*
X116494896Y-85324500D01*
X116847166Y-84886483D01*
X117005000Y-84347000D01*
X117005000Y-84281002D01*
X122000159Y-89276161D01*
X121941810Y-89334409D01*
X121920225Y-89386392D01*
X121899647Y-89336589D01*
X121485591Y-88921810D01*
X120944323Y-88697056D01*
X120358248Y-88696545D01*
X119816589Y-88920353D01*
X119401810Y-89334409D01*
X119380225Y-89386392D01*
X119359647Y-89336589D01*
X118945591Y-88921810D01*
X118404323Y-88697056D01*
X117818248Y-88696545D01*
X117276589Y-88920353D01*
X116861810Y-89334409D01*
X116839559Y-89387995D01*
X116605413Y-89314192D01*
X115749605Y-90170000D01*
X115763748Y-90184143D01*
X115584143Y-90363748D01*
X115570000Y-90349605D01*
X114714192Y-91205413D01*
X114793017Y-91455490D01*
X115344097Y-91654977D01*
X115560027Y-91645171D01*
X111222599Y-95982599D01*
X111057852Y-96229161D01*
X111000000Y-96520000D01*
X111000000Y-103798013D01*
X110784323Y-103708456D01*
X110420795Y-103708139D01*
X110469492Y-103659527D01*
X110612138Y-103315999D01*
X110612462Y-102944033D01*
X110470417Y-102600257D01*
X110437300Y-102567082D01*
X110437300Y-93837502D01*
X112662319Y-91612483D01*
X112735677Y-91642944D01*
X113321752Y-91643455D01*
X113863411Y-91419647D01*
X114278190Y-91005591D01*
X114300441Y-90952005D01*
X114534587Y-91025808D01*
X115390395Y-90170000D01*
X114534587Y-89314192D01*
X114300836Y-89387871D01*
X114279647Y-89336589D01*
X114077998Y-89134587D01*
X114714192Y-89134587D01*
X115570000Y-89990395D01*
X116425808Y-89134587D01*
X116346983Y-88884510D01*
X115795903Y-88685023D01*
X115210431Y-88711611D01*
X114793017Y-88884510D01*
X114714192Y-89134587D01*
X114077998Y-89134587D01*
X113865591Y-88921810D01*
X113324323Y-88697056D01*
X112738248Y-88696545D01*
X112196589Y-88920353D01*
X111781810Y-89334409D01*
X111760225Y-89386392D01*
X111739647Y-89336589D01*
X111325591Y-88921810D01*
X110784323Y-88697056D01*
X110198248Y-88696545D01*
X109656589Y-88920353D01*
X109543173Y-89033571D01*
X108937701Y-88428099D01*
X108691139Y-88263352D01*
X108400300Y-88205500D01*
X98994500Y-88205500D01*
X98703660Y-88263352D01*
X98457099Y-88428099D01*
X98157681Y-88727517D01*
X98148710Y-88723792D01*
X99452801Y-87419701D01*
X99617548Y-87173139D01*
X99675400Y-86882300D01*
X99675400Y-85511258D01*
X99780849Y-85581717D01*
X100330000Y-85690950D01*
X100879151Y-85581717D01*
X101344698Y-85270648D01*
X101600000Y-84888562D01*
X101855302Y-85270648D01*
X102131915Y-85455475D01*
X102167852Y-85636139D01*
X102332599Y-85882701D01*
X102579161Y-86047448D01*
X102870000Y-86105300D01*
X105888400Y-86105300D01*
X106179239Y-86047448D01*
X106425801Y-85882701D01*
X106996777Y-85311725D01*
X107400849Y-85581717D01*
X107950000Y-85690950D01*
X108499151Y-85581717D01*
X108964698Y-85270648D01*
X109220000Y-84888562D01*
X109475302Y-85270648D01*
X109940849Y-85581717D01*
X110490000Y-85690950D01*
X111039151Y-85581717D01*
X111504698Y-85270648D01*
X111757507Y-84892293D01*
X112105104Y-85324500D01*
X112598181Y-85594367D01*
X112680961Y-85611904D01*
X112903000Y-85489915D01*
X112903000Y-83947000D01*
X113157000Y-83947000D01*
X113157000Y-85489915D01*
X113379039Y-85611904D01*
X113461819Y-85594367D01*
X113954896Y-85324500D01*
X114300000Y-84895393D01*
X114645104Y-85324500D01*
X115138181Y-85594367D01*
X115220961Y-85611904D01*
X115443000Y-85489915D01*
X115443000Y-83947000D01*
X113157000Y-83947000D01*
X112903000Y-83947000D01*
X112883000Y-83947000D01*
X112883000Y-83693000D01*
X112903000Y-83693000D01*
X112903000Y-83673000D01*
X113157000Y-83673000D01*
X113157000Y-83693000D01*
X113157000Y-83693000D01*
G37*
X113157000Y-83693000D02*
X115443000Y-83693000D01*
X115443000Y-83673000D01*
X115697000Y-83673000D01*
X115697000Y-83693000D01*
X115717000Y-83693000D01*
X115717000Y-83947000D01*
X115697000Y-83947000D01*
X115697000Y-85489915D01*
X115919039Y-85611904D01*
X116001819Y-85594367D01*
X116494896Y-85324500D01*
X116847166Y-84886483D01*
X117005000Y-84347000D01*
X117005000Y-84281002D01*
X122000159Y-89276161D01*
X121941810Y-89334409D01*
X121920225Y-89386392D01*
X121899647Y-89336589D01*
X121485591Y-88921810D01*
X120944323Y-88697056D01*
X120358248Y-88696545D01*
X119816589Y-88920353D01*
X119401810Y-89334409D01*
X119380225Y-89386392D01*
X119359647Y-89336589D01*
X118945591Y-88921810D01*
X118404323Y-88697056D01*
X117818248Y-88696545D01*
X117276589Y-88920353D01*
X116861810Y-89334409D01*
X116839559Y-89387995D01*
X116605413Y-89314192D01*
X115749605Y-90170000D01*
X115763748Y-90184143D01*
X115584143Y-90363748D01*
X115570000Y-90349605D01*
X114714192Y-91205413D01*
X114793017Y-91455490D01*
X115344097Y-91654977D01*
X115560027Y-91645171D01*
X111222599Y-95982599D01*
X111057852Y-96229161D01*
X111000000Y-96520000D01*
X111000000Y-103798013D01*
X110784323Y-103708456D01*
X110420795Y-103708139D01*
X110469492Y-103659527D01*
X110612138Y-103315999D01*
X110612462Y-102944033D01*
X110470417Y-102600257D01*
X110437300Y-102567082D01*
X110437300Y-93837502D01*
X112662319Y-91612483D01*
X112735677Y-91642944D01*
X113321752Y-91643455D01*
X113863411Y-91419647D01*
X114278190Y-91005591D01*
X114300441Y-90952005D01*
X114534587Y-91025808D01*
X115390395Y-90170000D01*
X114534587Y-89314192D01*
X114300836Y-89387871D01*
X114279647Y-89336589D01*
X114077998Y-89134587D01*
X114714192Y-89134587D01*
X115570000Y-89990395D01*
X116425808Y-89134587D01*
X116346983Y-88884510D01*
X115795903Y-88685023D01*
X115210431Y-88711611D01*
X114793017Y-88884510D01*
X114714192Y-89134587D01*
X114077998Y-89134587D01*
X113865591Y-88921810D01*
X113324323Y-88697056D01*
X112738248Y-88696545D01*
X112196589Y-88920353D01*
X111781810Y-89334409D01*
X111760225Y-89386392D01*
X111739647Y-89336589D01*
X111325591Y-88921810D01*
X110784323Y-88697056D01*
X110198248Y-88696545D01*
X109656589Y-88920353D01*
X109543173Y-89033571D01*
X108937701Y-88428099D01*
X108691139Y-88263352D01*
X108400300Y-88205500D01*
X98994500Y-88205500D01*
X98703660Y-88263352D01*
X98457099Y-88428099D01*
X98157681Y-88727517D01*
X98148710Y-88723792D01*
X99452801Y-87419701D01*
X99617548Y-87173139D01*
X99675400Y-86882300D01*
X99675400Y-85511258D01*
X99780849Y-85581717D01*
X100330000Y-85690950D01*
X100879151Y-85581717D01*
X101344698Y-85270648D01*
X101600000Y-84888562D01*
X101855302Y-85270648D01*
X102131915Y-85455475D01*
X102167852Y-85636139D01*
X102332599Y-85882701D01*
X102579161Y-86047448D01*
X102870000Y-86105300D01*
X105888400Y-86105300D01*
X106179239Y-86047448D01*
X106425801Y-85882701D01*
X106996777Y-85311725D01*
X107400849Y-85581717D01*
X107950000Y-85690950D01*
X108499151Y-85581717D01*
X108964698Y-85270648D01*
X109220000Y-84888562D01*
X109475302Y-85270648D01*
X109940849Y-85581717D01*
X110490000Y-85690950D01*
X111039151Y-85581717D01*
X111504698Y-85270648D01*
X111757507Y-84892293D01*
X112105104Y-85324500D01*
X112598181Y-85594367D01*
X112680961Y-85611904D01*
X112903000Y-85489915D01*
X112903000Y-83947000D01*
X113157000Y-83947000D01*
X113157000Y-85489915D01*
X113379039Y-85611904D01*
X113461819Y-85594367D01*
X113954896Y-85324500D01*
X114300000Y-84895393D01*
X114645104Y-85324500D01*
X115138181Y-85594367D01*
X115220961Y-85611904D01*
X115443000Y-85489915D01*
X115443000Y-83947000D01*
X113157000Y-83947000D01*
X112903000Y-83947000D01*
X112883000Y-83947000D01*
X112883000Y-83693000D01*
X112903000Y-83693000D01*
X112903000Y-83673000D01*
X113157000Y-83673000D01*
X113157000Y-83693000D01*
G36*
X113157000Y-76073000D02*
X113177000Y-76073000D01*
X113177000Y-76327000D01*
X113157000Y-76327000D01*
X113157000Y-77869915D01*
X113379039Y-77991904D01*
X113461819Y-77974367D01*
X113954896Y-77704500D01*
X113976025Y-77678227D01*
X115703898Y-79406100D01*
X113245602Y-79406100D01*
X111495977Y-77656475D01*
X111504698Y-77650648D01*
X111757507Y-77272293D01*
X112105104Y-77704500D01*
X112598181Y-77974367D01*
X112680961Y-77991904D01*
X112903000Y-77869915D01*
X112903000Y-76327000D01*
X112883000Y-76327000D01*
X112883000Y-76073000D01*
X112903000Y-76073000D01*
X112903000Y-76053000D01*
X113157000Y-76053000D01*
X113157000Y-76073000D01*
X113157000Y-76073000D01*
G37*
X113157000Y-76073000D02*
X113177000Y-76073000D01*
X113177000Y-76327000D01*
X113157000Y-76327000D01*
X113157000Y-77869915D01*
X113379039Y-77991904D01*
X113461819Y-77974367D01*
X113954896Y-77704500D01*
X113976025Y-77678227D01*
X115703898Y-79406100D01*
X113245602Y-79406100D01*
X111495977Y-77656475D01*
X111504698Y-77650648D01*
X111757507Y-77272293D01*
X112105104Y-77704500D01*
X112598181Y-77974367D01*
X112680961Y-77991904D01*
X112903000Y-77869915D01*
X112903000Y-76327000D01*
X112883000Y-76327000D01*
X112883000Y-76073000D01*
X112903000Y-76073000D01*
X112903000Y-76053000D01*
X113157000Y-76053000D01*
X113157000Y-76073000D01*
M02*
